%TF.GenerationSoftware,KiCad,Pcbnew,(6.0.7)*%
%TF.CreationDate,2023-01-12T11:12:49-06:00*%
%TF.ProjectId,ErgoDOX,4572676f-444f-4582-9e6b-696361645f70,rev?*%
%TF.SameCoordinates,Original*%
%TF.FileFunction,Paste,Top*%
%TF.FilePolarity,Positive*%
%FSLAX46Y46*%
G04 Gerber Fmt 4.6, Leading zero omitted, Abs format (unit mm)*
G04 Created by KiCad (PCBNEW (6.0.7)) date 2023-01-12 11:12:49*
%MOMM*%
%LPD*%
G01*
G04 APERTURE LIST*
G04 Aperture macros list*
%AMRoundRect*
0 Rectangle with rounded corners*
0 $1 Rounding radius*
0 $2 $3 $4 $5 $6 $7 $8 $9 X,Y pos of 4 corners*
0 Add a 4 corners polygon primitive as box body*
4,1,4,$2,$3,$4,$5,$6,$7,$8,$9,$2,$3,0*
0 Add four circle primitives for the rounded corners*
1,1,$1+$1,$2,$3*
1,1,$1+$1,$4,$5*
1,1,$1+$1,$6,$7*
1,1,$1+$1,$8,$9*
0 Add four rect primitives between the rounded corners*
20,1,$1+$1,$2,$3,$4,$5,0*
20,1,$1+$1,$4,$5,$6,$7,0*
20,1,$1+$1,$6,$7,$8,$9,0*
20,1,$1+$1,$8,$9,$2,$3,0*%
%AMRotRect*
0 Rectangle, with rotation*
0 The origin of the aperture is its center*
0 $1 length*
0 $2 width*
0 $3 Rotation angle, in degrees counterclockwise*
0 Add horizontal line*
21,1,$1,$2,0,0,$3*%
G04 Aperture macros list end*
%ADD10R,2.550000X2.500000*%
%ADD11R,0.838200X0.838200*%
%ADD12R,2.500000X2.550000*%
%ADD13R,2.250000X2.250000*%
%ADD14RotRect,2.550000X2.500000X115.000000*%
%ADD15RotRect,1.910000X2.520000X115.000000*%
%ADD16RotRect,0.838200X0.838200X115.000000*%
%ADD17RotRect,2.364000X2.019000X25.000000*%
%ADD18RotRect,2.550000X2.500000X25.000000*%
%ADD19RotRect,0.838200X0.838200X25.000000*%
%ADD20RotRect,1.976000X1.972000X115.000000*%
%ADD21R,1.500000X1.000000*%
%ADD22RoundRect,0.150000X-0.587500X-0.150000X0.587500X-0.150000X0.587500X0.150000X-0.587500X0.150000X0*%
%ADD23RoundRect,0.150000X-0.512500X-0.150000X0.512500X-0.150000X0.512500X0.150000X-0.512500X0.150000X0*%
G04 APERTURE END LIST*
D10*
%TO.C,SW1:13*%
X192840000Y-138002660D03*
X179390000Y-140702660D03*
D11*
X185026300Y-150822660D03*
X188353700Y-150822660D03*
%TD*%
D10*
%TO.C,SW1:10*%
X135690000Y-133230000D03*
X122240000Y-135930000D03*
D11*
X127876300Y-146050000D03*
X131203700Y-146050000D03*
%TD*%
D10*
%TO.C,SW1:9*%
X116640000Y-134827660D03*
X103190000Y-137527660D03*
D11*
X112153700Y-147647660D03*
X108826300Y-147647660D03*
%TD*%
D10*
%TO.C,SW2:13*%
X197602500Y-118952660D03*
X184152500Y-121652660D03*
D11*
X193116200Y-131772660D03*
X189788800Y-131772660D03*
%TD*%
D10*
%TO.C,SW2:10*%
X135690000Y-114180000D03*
X122240000Y-116880000D03*
D11*
X127876300Y-127000000D03*
X131203700Y-127000000D03*
%TD*%
D10*
%TO.C,SW2:9*%
X116640000Y-115777660D03*
X103190000Y-118477660D03*
D11*
X112153700Y-128597660D03*
X108826300Y-128597660D03*
%TD*%
D12*
%TO.C,SW2:7*%
X67190000Y-111335160D03*
X69890000Y-124785160D03*
D11*
X80010000Y-119148860D03*
X80010000Y-115821460D03*
%TD*%
D10*
%TO.C,SW3:13*%
X197602500Y-99902660D03*
X184152500Y-102602660D03*
D11*
X189788800Y-112722660D03*
X193116200Y-112722660D03*
%TD*%
D10*
%TO.C,SW3:11*%
X154740000Y-96727660D03*
X141290000Y-99427660D03*
D11*
X150253700Y-109547660D03*
X146926300Y-109547660D03*
%TD*%
D13*
%TO.C,SW3:10*%
X135128000Y-94742000D03*
D10*
X122240000Y-97830000D03*
D11*
X131203700Y-107950000D03*
X127876300Y-107950000D03*
%TD*%
D10*
%TO.C,SW3:9*%
X116640000Y-96727660D03*
X103190000Y-99427660D03*
D11*
X112153700Y-109547660D03*
X108826300Y-109547660D03*
%TD*%
D10*
%TO.C,SW3:8*%
X97590000Y-97997660D03*
X84140000Y-100697660D03*
D11*
X93103700Y-110817660D03*
X89776300Y-110817660D03*
%TD*%
D10*
%TO.C,SW4:13*%
X197602500Y-80852660D03*
X184152500Y-83552660D03*
D11*
X193116200Y-93672660D03*
X189788800Y-93672660D03*
%TD*%
D10*
%TO.C,SW4:12*%
X173790000Y-80852660D03*
X160340000Y-83552660D03*
D11*
X165976300Y-93672660D03*
X169303700Y-93672660D03*
%TD*%
D10*
%TO.C,SW4:11*%
X154740000Y-77677660D03*
X141290000Y-80377660D03*
D11*
X146926300Y-90497660D03*
X150253700Y-90497660D03*
%TD*%
D10*
%TO.C,SW4:10*%
X135690000Y-76080000D03*
X122240000Y-78780000D03*
D11*
X127876300Y-88900000D03*
X131203700Y-88900000D03*
%TD*%
D10*
%TO.C,SW4:9*%
X116640000Y-77677660D03*
X103190000Y-80377660D03*
D11*
X108826300Y-90497660D03*
X112153700Y-90497660D03*
%TD*%
D10*
%TO.C,SW4:8*%
X97590000Y-78947660D03*
X84140000Y-81647660D03*
D11*
X89776300Y-91767660D03*
X93103700Y-91767660D03*
%TD*%
D12*
%TO.C,SW4:7*%
X67190000Y-82760160D03*
X69890000Y-96210160D03*
D11*
X80010000Y-90573860D03*
X80010000Y-87246460D03*
%TD*%
D14*
%TO.C,SW0:10*%
X73990957Y-149689302D03*
D15*
X81826652Y-160175246D03*
D16*
X88912035Y-151352953D03*
X87505815Y-148337305D03*
%TD*%
D17*
%TO.C,SW0:12*%
X54193531Y-170745368D03*
D18*
X43127408Y-178619344D03*
D19*
X52512527Y-185409175D03*
X55528175Y-184002955D03*
%TD*%
D14*
%TO.C,SW0:11*%
X56726577Y-157741102D03*
D20*
X64497267Y-168641333D03*
D16*
X71647655Y-159404753D03*
X70241435Y-156389105D03*
%TD*%
D18*
%TO.C,SW0:9*%
X46124378Y-153221177D03*
X35075608Y-161352424D03*
D19*
X44460727Y-168142255D03*
X47476375Y-166736035D03*
%TD*%
D18*
%TO.C,SW0:7*%
X38075118Y-135956797D03*
X27026348Y-144088044D03*
D19*
X36411467Y-150877875D03*
X39427115Y-149471655D03*
%TD*%
D10*
%TO.C,SW1:11*%
X154740000Y-134827660D03*
X141290000Y-137527660D03*
D11*
X146926300Y-147647660D03*
X150253700Y-147647660D03*
%TD*%
D18*
%TO.C,SW0:8*%
X55339498Y-127907537D03*
X44290728Y-136038784D03*
D19*
X53675847Y-142828615D03*
X56691495Y-141422395D03*
%TD*%
D10*
%TO.C,SW5:13*%
X197602500Y-61805200D03*
X184152500Y-64505200D03*
D11*
X189788800Y-74625200D03*
X193116200Y-74625200D03*
%TD*%
D10*
%TO.C,SW5:9*%
X116640000Y-58627660D03*
X103190000Y-61327660D03*
D11*
X112153700Y-71447660D03*
X108826300Y-71447660D03*
%TD*%
D10*
%TO.C,SW5:10*%
X135690000Y-57030000D03*
X122240000Y-59730000D03*
D11*
X131203700Y-69850000D03*
X127876300Y-69850000D03*
%TD*%
D10*
%TO.C,SW5:11*%
X154740000Y-58627660D03*
X141290000Y-61327660D03*
D11*
X150253700Y-71447660D03*
X146926300Y-71447660D03*
%TD*%
D10*
%TO.C,SW5:12*%
X173790000Y-61805200D03*
X160340000Y-64505200D03*
D11*
X169303700Y-74625200D03*
X165976300Y-74625200D03*
%TD*%
D10*
%TO.C,SW5:8*%
X97590000Y-59900200D03*
X84140000Y-62600200D03*
D11*
X89776300Y-72720200D03*
X93103700Y-72720200D03*
%TD*%
D10*
%TO.C,SW5:7*%
X78540000Y-59900200D03*
X65090000Y-62600200D03*
D11*
X70726300Y-72720200D03*
X74053700Y-72720200D03*
%TD*%
D10*
%TO.C,SW2:11*%
X154740000Y-115777660D03*
X141290000Y-118477660D03*
D11*
X150253700Y-128597660D03*
X146926300Y-128597660D03*
%TD*%
D10*
%TO.C,SW2:8*%
X97590000Y-117047660D03*
X84140000Y-119747660D03*
D11*
X93103700Y-129867660D03*
X89776300Y-129867660D03*
%TD*%
D10*
%TO.C,SW3:12*%
X173790000Y-99902660D03*
X160340000Y-102602660D03*
D11*
X169303700Y-112722660D03*
X165976300Y-112722660D03*
%TD*%
D10*
%TO.C,SW2:12*%
X173790000Y-118952660D03*
X160340000Y-121652660D03*
D11*
X169303700Y-131772660D03*
X165976300Y-131772660D03*
%TD*%
D10*
%TO.C,SW1:12*%
X173790000Y-138002660D03*
X160340000Y-140702660D03*
D11*
X169303700Y-150822660D03*
X165976300Y-150822660D03*
%TD*%
D19*
%TO.C,D1:8*%
X75566604Y-136822650D03*
X72550956Y-138228870D03*
%TD*%
%TO.C,D1:7*%
X55286576Y-146280670D03*
X58302224Y-144874450D03*
%TD*%
D21*
%TO.C,D4*%
X199234390Y-45136000D03*
X199234390Y-48336000D03*
X204134390Y-48336000D03*
X204134390Y-45136000D03*
%TD*%
D22*
%TO.C,Q1*%
X80596500Y-124272000D03*
X80596500Y-126172000D03*
X82471500Y-125222000D03*
%TD*%
D21*
%TO.C,D2*%
X65241000Y-49200000D03*
X65241000Y-52400000D03*
X70141000Y-52400000D03*
X70141000Y-49200000D03*
%TD*%
D23*
%TO.C,U_ESD1*%
X122052500Y-39309000D03*
X122052500Y-40259000D03*
X122052500Y-41209000D03*
X124327500Y-41209000D03*
X124327500Y-40259000D03*
X124327500Y-39309000D03*
%TD*%
M02*
