%TF.GenerationSoftware,KiCad,Pcbnew,(6.0.7)*%
%TF.CreationDate,2022-12-29T21:07:00-06:00*%
%TF.ProjectId,ErgoDOX,4572676f-444f-4582-9e6b-696361645f70,rev?*%
%TF.SameCoordinates,Original*%
%TF.FileFunction,Copper,L1,Top*%
%TF.FilePolarity,Positive*%
%FSLAX46Y46*%
G04 Gerber Fmt 4.6, Leading zero omitted, Abs format (unit mm)*
G04 Created by KiCad (PCBNEW (6.0.7)) date 2022-12-29 21:07:00*
%MOMM*%
%LPD*%
G01*
G04 APERTURE LIST*
G04 Aperture macros list*
%AMRoundRect*
0 Rectangle with rounded corners*
0 $1 Rounding radius*
0 $2 $3 $4 $5 $6 $7 $8 $9 X,Y pos of 4 corners*
0 Add a 4 corners polygon primitive as box body*
4,1,4,$2,$3,$4,$5,$6,$7,$8,$9,$2,$3,0*
0 Add four circle primitives for the rounded corners*
1,1,$1+$1,$2,$3*
1,1,$1+$1,$4,$5*
1,1,$1+$1,$6,$7*
1,1,$1+$1,$8,$9*
0 Add four rect primitives between the rounded corners*
20,1,$1+$1,$2,$3,$4,$5,0*
20,1,$1+$1,$4,$5,$6,$7,0*
20,1,$1+$1,$6,$7,$8,$9,0*
20,1,$1+$1,$8,$9,$2,$3,0*%
%AMRotRect*
0 Rectangle, with rotation*
0 The origin of the aperture is its center*
0 $1 length*
0 $2 width*
0 $3 Rotation angle, in degrees counterclockwise*
0 Add horizontal line*
21,1,$1,$2,0,0,$3*%
%AMFreePoly0*
4,1,22,0.500000,-0.750000,0.000000,-0.750000,0.000000,-0.745033,-0.079941,-0.743568,-0.215256,-0.701293,-0.333266,-0.622738,-0.424486,-0.514219,-0.481581,-0.384460,-0.499164,-0.250000,-0.500000,-0.250000,-0.500000,0.250000,-0.499164,0.250000,-0.499963,0.256109,-0.478152,0.396186,-0.417904,0.524511,-0.324060,0.630769,-0.204165,0.706417,-0.067858,0.745374,0.000000,0.744959,0.000000,0.750000,
0.500000,0.750000,0.500000,-0.750000,0.500000,-0.750000,$1*%
%AMFreePoly1*
4,1,20,0.000000,0.744959,0.073905,0.744508,0.209726,0.703889,0.328688,0.626782,0.421226,0.519385,0.479903,0.390333,0.500000,0.250000,0.500000,-0.250000,0.499851,-0.262216,0.476331,-0.402017,0.414519,-0.529596,0.319384,-0.634700,0.198574,-0.708877,0.061801,-0.746166,0.000000,-0.745033,0.000000,-0.750000,-0.500000,-0.750000,-0.500000,0.750000,0.000000,0.750000,0.000000,0.744959,
0.000000,0.744959,$1*%
G04 Aperture macros list end*
%TA.AperFunction,EtchedComponent*%
%ADD10C,0.609600*%
%TD*%
%TA.AperFunction,ComponentPad*%
%ADD11C,3.600000*%
%TD*%
%TA.AperFunction,SMDPad,CuDef*%
%ADD12R,2.550000X2.500000*%
%TD*%
%TA.AperFunction,ComponentPad*%
%ADD13C,1.651000*%
%TD*%
%TA.AperFunction,ComponentPad*%
%ADD14R,1.651000X1.651000*%
%TD*%
%TA.AperFunction,SMDPad,CuDef*%
%ADD15R,0.838200X0.838200*%
%TD*%
%TA.AperFunction,SMDPad,CuDef*%
%ADD16R,2.500000X2.550000*%
%TD*%
%TA.AperFunction,SMDPad,CuDef*%
%ADD17RotRect,2.550000X2.500000X115.000000*%
%TD*%
%TA.AperFunction,ComponentPad*%
%ADD18RotRect,1.651000X1.651000X115.000000*%
%TD*%
%TA.AperFunction,SMDPad,CuDef*%
%ADD19RotRect,0.838200X0.838200X115.000000*%
%TD*%
%TA.AperFunction,SMDPad,CuDef*%
%ADD20RotRect,2.550000X2.500000X25.000000*%
%TD*%
%TA.AperFunction,ComponentPad*%
%ADD21RotRect,1.651000X1.651000X25.000000*%
%TD*%
%TA.AperFunction,SMDPad,CuDef*%
%ADD22RotRect,0.838200X0.838200X25.000000*%
%TD*%
%TA.AperFunction,ComponentPad*%
%ADD23C,2.286000*%
%TD*%
%TA.AperFunction,ComponentPad*%
%ADD24C,0.800000*%
%TD*%
%TA.AperFunction,ComponentPad*%
%ADD25C,2.100000*%
%TD*%
%TA.AperFunction,ComponentPad*%
%ADD26C,1.750000*%
%TD*%
%TA.AperFunction,SMDPad,CuDef*%
%ADD27R,1.500000X1.000000*%
%TD*%
%TA.AperFunction,ComponentPad*%
%ADD28R,1.600000X1.600000*%
%TD*%
%TA.AperFunction,ComponentPad*%
%ADD29O,1.600000X1.600000*%
%TD*%
%TA.AperFunction,ComponentPad*%
%ADD30R,1.700000X1.700000*%
%TD*%
%TA.AperFunction,ComponentPad*%
%ADD31O,1.700000X1.700000*%
%TD*%
%TA.AperFunction,ComponentPad*%
%ADD32C,1.600000*%
%TD*%
%TA.AperFunction,SMDPad,CuDef*%
%ADD33RoundRect,0.150000X-0.587500X-0.150000X0.587500X-0.150000X0.587500X0.150000X-0.587500X0.150000X0*%
%TD*%
%TA.AperFunction,SMDPad,CuDef*%
%ADD34FreePoly0,0.000000*%
%TD*%
%TA.AperFunction,SMDPad,CuDef*%
%ADD35FreePoly1,0.000000*%
%TD*%
%TA.AperFunction,ComponentPad*%
%ADD36R,2.000000X2.000000*%
%TD*%
%TA.AperFunction,ComponentPad*%
%ADD37C,2.000000*%
%TD*%
%TA.AperFunction,ComponentPad*%
%ADD38R,2.000000X3.200000*%
%TD*%
%TA.AperFunction,SMDPad,CuDef*%
%ADD39FreePoly0,180.000000*%
%TD*%
%TA.AperFunction,SMDPad,CuDef*%
%ADD40FreePoly1,180.000000*%
%TD*%
%TA.AperFunction,ComponentPad*%
%ADD41RoundRect,0.250000X-0.600000X-0.750000X0.600000X-0.750000X0.600000X0.750000X-0.600000X0.750000X0*%
%TD*%
%TA.AperFunction,ComponentPad*%
%ADD42O,1.700000X2.000000*%
%TD*%
%TA.AperFunction,ComponentPad*%
%ADD43C,0.700000*%
%TD*%
%TA.AperFunction,ComponentPad*%
%ADD44O,0.900000X1.700000*%
%TD*%
%TA.AperFunction,ComponentPad*%
%ADD45O,0.900000X2.400000*%
%TD*%
%TA.AperFunction,ComponentPad*%
%ADD46R,1.350000X1.350000*%
%TD*%
%TA.AperFunction,ComponentPad*%
%ADD47O,1.350000X1.350000*%
%TD*%
%TA.AperFunction,ComponentPad*%
%ADD48R,0.850000X0.850000*%
%TD*%
%TA.AperFunction,ComponentPad*%
%ADD49O,0.850000X0.850000*%
%TD*%
%TA.AperFunction,SMDPad,CuDef*%
%ADD50RoundRect,0.150000X-0.512500X-0.150000X0.512500X-0.150000X0.512500X0.150000X-0.512500X0.150000X0*%
%TD*%
%TA.AperFunction,ComponentPad*%
%ADD51R,1.752600X1.752600*%
%TD*%
%TA.AperFunction,ComponentPad*%
%ADD52C,1.752600*%
%TD*%
%TA.AperFunction,ComponentPad*%
%ADD53O,2.200000X3.500000*%
%TD*%
%TA.AperFunction,ComponentPad*%
%ADD54R,1.500000X2.500000*%
%TD*%
%TA.AperFunction,ComponentPad*%
%ADD55O,1.500000X2.500000*%
%TD*%
%TA.AperFunction,ViaPad*%
%ADD56C,0.609600*%
%TD*%
%TA.AperFunction,Conductor*%
%ADD57C,0.254000*%
%TD*%
%TA.AperFunction,Conductor*%
%ADD58C,0.600000*%
%TD*%
%TA.AperFunction,Conductor*%
%ADD59C,1.016000*%
%TD*%
%TA.AperFunction,Conductor*%
%ADD60C,0.609600*%
%TD*%
%TA.AperFunction,Conductor*%
%ADD61C,0.406400*%
%TD*%
%TA.AperFunction,Conductor*%
%ADD62C,0.200000*%
%TD*%
G04 APERTURE END LIST*
D10*
%TO.C,SW5:13*%
X193116200Y-74625200D02*
X195262500Y-74625200D01*
X187642500Y-74625200D02*
X189788800Y-74625200D01*
%TO.C,SW4:13*%
X193116200Y-93672660D02*
X195262500Y-93672660D01*
X187642500Y-93672660D02*
X189788800Y-93672660D01*
%TO.C,SW3:13*%
X193116200Y-112722660D02*
X195262500Y-112722660D01*
X187642500Y-112722660D02*
X189788800Y-112722660D01*
%TO.C,SW2:13*%
X193116200Y-131772660D02*
X195262500Y-131772660D01*
X187642500Y-131772660D02*
X189788800Y-131772660D01*
%TO.C,SW1:13*%
X188353700Y-150822660D02*
X190500000Y-150822660D01*
X182880000Y-150822660D02*
X185026300Y-150822660D01*
%TO.C,SW1:10*%
X131203700Y-146050000D02*
X133350000Y-146050000D01*
X125730000Y-146050000D02*
X127876300Y-146050000D01*
%TO.C,SW1:9*%
X106680000Y-147647660D02*
X108826300Y-147647660D01*
X112153700Y-147647660D02*
X114300000Y-147647660D01*
%TO.C,SW2:10*%
X125730000Y-127000000D02*
X127876300Y-127000000D01*
X131203700Y-127000000D02*
X133350000Y-127000000D01*
%TO.C,SW2:9*%
X112153700Y-128597660D02*
X114300000Y-128597660D01*
X106680000Y-128597660D02*
X108826300Y-128597660D01*
%TO.C,SW2:7*%
X80010000Y-115821460D02*
X80010000Y-113675160D01*
X80010000Y-121295160D02*
X80010000Y-119148860D01*
%TO.C,SW3:11*%
X144780000Y-109547660D02*
X146926300Y-109547660D01*
X150253700Y-109547660D02*
X152400000Y-109547660D01*
%TO.C,SW3:10*%
X131203700Y-107950000D02*
X133350000Y-107950000D01*
X125730000Y-107950000D02*
X127876300Y-107950000D01*
%TO.C,SW3:9*%
X106680000Y-109547660D02*
X108826300Y-109547660D01*
X112153700Y-109547660D02*
X114300000Y-109547660D01*
%TO.C,SW3:8*%
X93103700Y-110817660D02*
X95250000Y-110817660D01*
X87630000Y-110817660D02*
X89776300Y-110817660D01*
%TO.C,SW4:12*%
X163830000Y-93672660D02*
X165976300Y-93672660D01*
X169303700Y-93672660D02*
X171450000Y-93672660D01*
%TO.C,SW4:11*%
X144780000Y-90497660D02*
X146926300Y-90497660D01*
X150253700Y-90497660D02*
X152400000Y-90497660D01*
%TO.C,SW4:10*%
X131203700Y-88900000D02*
X133350000Y-88900000D01*
X125730000Y-88900000D02*
X127876300Y-88900000D01*
%TO.C,SW4:9*%
X106680000Y-90497660D02*
X108826300Y-90497660D01*
X112153700Y-90497660D02*
X114300000Y-90497660D01*
%TO.C,SW4:8*%
X93103700Y-91767660D02*
X95250000Y-91767660D01*
X87630000Y-91767660D02*
X89776300Y-91767660D01*
%TO.C,SW4:7*%
X80010000Y-92720160D02*
X80010000Y-90573860D01*
X80010000Y-87246460D02*
X80010000Y-85100160D01*
%TO.C,SW0:10*%
X89819101Y-153298162D02*
X88912035Y-151352953D01*
X87505815Y-148337305D02*
X86598750Y-146392096D01*
%TO.C,SW0:12*%
X55528175Y-184002955D02*
X57473384Y-183095890D01*
X50567318Y-186316241D02*
X52512527Y-185409175D01*
%TO.C,SW0:11*%
X72554721Y-161349962D02*
X71647655Y-159404753D01*
X70241435Y-156389105D02*
X69334370Y-154443896D01*
%TO.C,SW0:9*%
X42515518Y-169049321D02*
X44460727Y-168142255D01*
X47476375Y-166736035D02*
X49421584Y-165828970D01*
%TO.C,SW0:7*%
X34466258Y-151784941D02*
X36411467Y-150877875D01*
X39427115Y-149471655D02*
X41372324Y-148564590D01*
%TO.C,SW1:11*%
X144780000Y-147647660D02*
X146926300Y-147647660D01*
X150253700Y-147647660D02*
X152400000Y-147647660D01*
%TO.C,SW0:8*%
X51730638Y-143735681D02*
X53675847Y-142828615D01*
X56691495Y-141422395D02*
X58636704Y-140515330D01*
%TO.C,SW5:9*%
X112153700Y-71447660D02*
X114300000Y-71447660D01*
X106680000Y-71447660D02*
X108826300Y-71447660D01*
%TO.C,SW5:10*%
X125730000Y-69850000D02*
X127876300Y-69850000D01*
X131203700Y-69850000D02*
X133350000Y-69850000D01*
%TO.C,SW5:11*%
X150253700Y-71447660D02*
X152400000Y-71447660D01*
X144780000Y-71447660D02*
X146926300Y-71447660D01*
%TO.C,SW5:12*%
X169303700Y-74625200D02*
X171450000Y-74625200D01*
X163830000Y-74625200D02*
X165976300Y-74625200D01*
%TO.C,SW5:8*%
X93103700Y-72720200D02*
X95250000Y-72720200D01*
X87630000Y-72720200D02*
X89776300Y-72720200D01*
%TO.C,SW5:7*%
X74053700Y-72720200D02*
X76200000Y-72720200D01*
X68580000Y-72720200D02*
X70726300Y-72720200D01*
%TO.C,SW2:11*%
X144780000Y-128597660D02*
X146926300Y-128597660D01*
X150253700Y-128597660D02*
X152400000Y-128597660D01*
%TO.C,SW2:8*%
X87630000Y-129867660D02*
X89776300Y-129867660D01*
X93103700Y-129867660D02*
X95250000Y-129867660D01*
%TO.C,SW3:12*%
X163830000Y-112722660D02*
X165976300Y-112722660D01*
X169303700Y-112722660D02*
X171450000Y-112722660D01*
%TO.C,SW2:12*%
X163830000Y-131772660D02*
X165976300Y-131772660D01*
X169303700Y-131772660D02*
X171450000Y-131772660D01*
%TO.C,SW1:12*%
X163830000Y-150822660D02*
X165976300Y-150822660D01*
X169303700Y-150822660D02*
X171450000Y-150822660D01*
%TO.C,D1:8*%
X75566604Y-136822650D02*
X77511813Y-135915584D01*
X70605747Y-139135936D02*
X72550956Y-138228870D01*
%TO.C,D1:7*%
X58302224Y-144874450D02*
X60247433Y-143967384D01*
X53341367Y-147187736D02*
X55286576Y-146280670D01*
%TD*%
D11*
%TO.P,SW5:13,1,1*%
%TO.N,/ROW5*%
X195262500Y-64465200D03*
D12*
X197602500Y-61805200D03*
D11*
X193992500Y-61925200D03*
D12*
%TO.P,SW5:13,2,2*%
%TO.N,Net-(SW5:13-Pad2)*%
X184152500Y-64505200D03*
D11*
X188902500Y-61955200D03*
X187642500Y-64465200D03*
D13*
%TO.P,SW5:13,3,A*%
X187642500Y-72085200D03*
X187642500Y-74625200D03*
D14*
%TO.P,SW5:13,4,K*%
%TO.N,/COL0*%
X195262500Y-74625200D03*
X195262500Y-72085200D03*
D15*
%TO.P,SW5:13,99*%
%TO.N,N/C*%
X189788800Y-74625200D03*
X193116200Y-74625200D03*
%TD*%
D11*
%TO.P,SW4:13,1,1*%
%TO.N,/ROW4*%
X195262500Y-83512660D03*
D12*
X197602500Y-80852660D03*
D11*
X193992500Y-80972660D03*
D12*
%TO.P,SW4:13,2,2*%
%TO.N,Net-(SW4:13-Pad2)*%
X184152500Y-83552660D03*
D11*
X188902500Y-81002660D03*
X187642500Y-83512660D03*
D13*
%TO.P,SW4:13,3,A*%
X187642500Y-91132660D03*
X187642500Y-93672660D03*
D14*
%TO.P,SW4:13,4,K*%
%TO.N,/COL0*%
X195262500Y-93672660D03*
X195262500Y-91132660D03*
D15*
%TO.P,SW4:13,99*%
%TO.N,N/C*%
X189788800Y-93672660D03*
X193116200Y-93672660D03*
%TD*%
D11*
%TO.P,SW3:13,1,1*%
%TO.N,/ROW3*%
X195262500Y-102562660D03*
D12*
X197602500Y-99902660D03*
D11*
X193992500Y-100022660D03*
D12*
%TO.P,SW3:13,2,2*%
%TO.N,Net-(SW3:13-Pad2)*%
X184152500Y-102602660D03*
D11*
X188902500Y-100052660D03*
X187642500Y-102562660D03*
D13*
%TO.P,SW3:13,3,A*%
X187642500Y-110182660D03*
X187642500Y-112722660D03*
D14*
%TO.P,SW3:13,4,K*%
%TO.N,/COL0*%
X195262500Y-112722660D03*
X195262500Y-110182660D03*
D15*
%TO.P,SW3:13,99*%
%TO.N,N/C*%
X189788800Y-112722660D03*
X193116200Y-112722660D03*
%TD*%
D11*
%TO.P,SW2:13,1,1*%
%TO.N,/ROW2*%
X195262500Y-121612660D03*
D12*
X197602500Y-118952660D03*
D11*
X193992500Y-119072660D03*
D12*
%TO.P,SW2:13,2,2*%
%TO.N,Net-(SW2:13-Pad2)*%
X184152500Y-121652660D03*
D11*
X188902500Y-119102660D03*
X187642500Y-121612660D03*
D13*
%TO.P,SW2:13,3,A*%
X187642500Y-129232660D03*
X187642500Y-131772660D03*
D14*
%TO.P,SW2:13,4,K*%
%TO.N,/COL0*%
X195262500Y-131772660D03*
X195262500Y-129232660D03*
D15*
%TO.P,SW2:13,99*%
%TO.N,N/C*%
X189788800Y-131772660D03*
X193116200Y-131772660D03*
%TD*%
D11*
%TO.P,SW1:13,1,1*%
%TO.N,/ROW1*%
X189230000Y-138122660D03*
X190500000Y-140662660D03*
D12*
X192840000Y-138002660D03*
D11*
%TO.P,SW1:13,2,2*%
%TO.N,Net-(SW1:13-Pad2)*%
X182880000Y-140662660D03*
X184140000Y-138152660D03*
D12*
X179390000Y-140702660D03*
D13*
%TO.P,SW1:13,3,A*%
X182880000Y-148282660D03*
X182880000Y-150822660D03*
D14*
%TO.P,SW1:13,4,K*%
%TO.N,/COL0*%
X190500000Y-148282660D03*
X190500000Y-150822660D03*
D15*
%TO.P,SW1:13,99*%
%TO.N,N/C*%
X185026300Y-150822660D03*
X188353700Y-150822660D03*
%TD*%
D12*
%TO.P,SW1:10,1,1*%
%TO.N,/ROW1*%
X135690000Y-133230000D03*
D11*
X132080000Y-133350000D03*
X133350000Y-135890000D03*
%TO.P,SW1:10,2,2*%
%TO.N,Net-(SW1:10-Pad2)*%
X126990000Y-133380000D03*
D12*
X122240000Y-135930000D03*
D11*
X125730000Y-135890000D03*
D13*
%TO.P,SW1:10,3,A*%
X125730000Y-143510000D03*
X125730000Y-146050000D03*
D14*
%TO.P,SW1:10,4,K*%
%TO.N,/COL3*%
X133350000Y-146050000D03*
X133350000Y-143510000D03*
D15*
%TO.P,SW1:10,99*%
%TO.N,N/C*%
X127876300Y-146050000D03*
X131203700Y-146050000D03*
%TD*%
D11*
%TO.P,SW1:9,1,1*%
%TO.N,/ROW1*%
X113030000Y-134947660D03*
D12*
X116640000Y-134827660D03*
D11*
X114300000Y-137487660D03*
%TO.P,SW1:9,2,2*%
%TO.N,Net-(SW1:9-Pad2)*%
X106680000Y-137487660D03*
D12*
X103190000Y-137527660D03*
D11*
X107940000Y-134977660D03*
D13*
%TO.P,SW1:9,3,A*%
X106680000Y-145107660D03*
X106680000Y-147647660D03*
D14*
%TO.P,SW1:9,4,K*%
%TO.N,/COL4*%
X114300000Y-145107660D03*
X114300000Y-147647660D03*
D15*
%TO.P,SW1:9,99*%
%TO.N,N/C*%
X112153700Y-147647660D03*
X108826300Y-147647660D03*
%TD*%
D11*
%TO.P,SW2:10,1,1*%
%TO.N,/ROW2*%
X132080000Y-114300000D03*
D12*
X135690000Y-114180000D03*
D11*
X133350000Y-116840000D03*
%TO.P,SW2:10,2,2*%
%TO.N,Net-(SW2:10-Pad2)*%
X125730000Y-116840000D03*
X126990000Y-114330000D03*
D12*
X122240000Y-116880000D03*
D13*
%TO.P,SW2:10,3,A*%
X125730000Y-124460000D03*
X125730000Y-127000000D03*
D14*
%TO.P,SW2:10,4,K*%
%TO.N,/COL3*%
X133350000Y-124460000D03*
X133350000Y-127000000D03*
D15*
%TO.P,SW2:10,99*%
%TO.N,N/C*%
X127876300Y-127000000D03*
X131203700Y-127000000D03*
%TD*%
D12*
%TO.P,SW2:9,1,1*%
%TO.N,/ROW2*%
X116640000Y-115777660D03*
D11*
X114300000Y-118437660D03*
X113030000Y-115897660D03*
%TO.P,SW2:9,2,2*%
%TO.N,Net-(SW2:9-Pad2)*%
X106680000Y-118437660D03*
X107940000Y-115927660D03*
D12*
X103190000Y-118477660D03*
D13*
%TO.P,SW2:9,3,A*%
X106680000Y-126057660D03*
X106680000Y-128597660D03*
D14*
%TO.P,SW2:9,4,K*%
%TO.N,/COL4*%
X114300000Y-128597660D03*
X114300000Y-126057660D03*
D15*
%TO.P,SW2:9,99*%
%TO.N,N/C*%
X112153700Y-128597660D03*
X108826300Y-128597660D03*
%TD*%
D16*
%TO.P,SW2:7,1,1*%
%TO.N,/ROW2*%
X67190000Y-111335160D03*
D11*
X67310000Y-114945160D03*
X69850000Y-113675160D03*
D16*
%TO.P,SW2:7,2,2*%
%TO.N,Net-(SW2:7-Pad2)*%
X69890000Y-124785160D03*
D11*
X69850000Y-121295160D03*
X67340000Y-120035160D03*
D13*
%TO.P,SW2:7,3,A*%
X77470000Y-121295160D03*
X80010000Y-121295160D03*
D14*
%TO.P,SW2:7,4,K*%
%TO.N,/COL6*%
X77470000Y-113675160D03*
X80010000Y-113675160D03*
D15*
%TO.P,SW2:7,99*%
%TO.N,N/C*%
X80010000Y-119148860D03*
X80010000Y-115821460D03*
%TD*%
D11*
%TO.P,SW3:11,1,1*%
%TO.N,/ROW3*%
X152400000Y-99387660D03*
X151130000Y-96847660D03*
D12*
X154740000Y-96727660D03*
%TO.P,SW3:11,2,2*%
%TO.N,Net-(SW3:11-Pad2)*%
X141290000Y-99427660D03*
D11*
X144780000Y-99387660D03*
X146040000Y-96877660D03*
D13*
%TO.P,SW3:11,3,A*%
X144780000Y-109547660D03*
X144780000Y-107007660D03*
D14*
%TO.P,SW3:11,4,K*%
%TO.N,/COL2*%
X152400000Y-107007660D03*
X152400000Y-109547660D03*
D15*
%TO.P,SW3:11,99*%
%TO.N,N/C*%
X150253700Y-109547660D03*
X146926300Y-109547660D03*
%TD*%
D11*
%TO.P,SW3:10,1,1*%
%TO.N,/ROW3*%
X133350000Y-97790000D03*
D12*
X135690000Y-95130000D03*
D11*
X132080000Y-95250000D03*
%TO.P,SW3:10,2,2*%
%TO.N,Net-(SW3:10-Pad2)*%
X126990000Y-95280000D03*
D12*
X122240000Y-97830000D03*
D11*
X125730000Y-97790000D03*
D13*
%TO.P,SW3:10,3,A*%
X125730000Y-107950000D03*
X125730000Y-105410000D03*
D14*
%TO.P,SW3:10,4,K*%
%TO.N,/COL3*%
X133350000Y-107950000D03*
X133350000Y-105410000D03*
D15*
%TO.P,SW3:10,99*%
%TO.N,N/C*%
X131203700Y-107950000D03*
X127876300Y-107950000D03*
%TD*%
D11*
%TO.P,SW3:9,1,1*%
%TO.N,/ROW3*%
X114300000Y-99387660D03*
D12*
X116640000Y-96727660D03*
D11*
X113030000Y-96847660D03*
%TO.P,SW3:9,2,2*%
%TO.N,Net-(SW3:9-Pad2)*%
X106680000Y-99387660D03*
X107940000Y-96877660D03*
D12*
X103190000Y-99427660D03*
D13*
%TO.P,SW3:9,3,A*%
X106680000Y-109547660D03*
X106680000Y-107007660D03*
D14*
%TO.P,SW3:9,4,K*%
%TO.N,/COL4*%
X114300000Y-107007660D03*
X114300000Y-109547660D03*
D15*
%TO.P,SW3:9,99*%
%TO.N,N/C*%
X112153700Y-109547660D03*
X108826300Y-109547660D03*
%TD*%
D12*
%TO.P,SW3:8,1,1*%
%TO.N,/ROW3*%
X97590000Y-97997660D03*
D11*
X95250000Y-100657660D03*
X93980000Y-98117660D03*
%TO.P,SW3:8,2,2*%
%TO.N,Net-(SW3:8-Pad2)*%
X88890000Y-98147660D03*
X87630000Y-100657660D03*
D12*
X84140000Y-100697660D03*
D13*
%TO.P,SW3:8,3,A*%
X87630000Y-108277660D03*
X87630000Y-110817660D03*
D14*
%TO.P,SW3:8,4,K*%
%TO.N,/COL5*%
X95250000Y-108277660D03*
X95250000Y-110817660D03*
D15*
%TO.P,SW3:8,99*%
%TO.N,N/C*%
X93103700Y-110817660D03*
X89776300Y-110817660D03*
%TD*%
D11*
%TO.P,SW4:12,1,1*%
%TO.N,/ROW4*%
X170180000Y-80972660D03*
X171450000Y-83512660D03*
D12*
X173790000Y-80852660D03*
D11*
%TO.P,SW4:12,2,2*%
%TO.N,Net-(SW4:12-Pad2)*%
X165090000Y-81002660D03*
X163830000Y-83512660D03*
D12*
X160340000Y-83552660D03*
D13*
%TO.P,SW4:12,3,A*%
X163830000Y-93672660D03*
X163830000Y-91132660D03*
D14*
%TO.P,SW4:12,4,K*%
%TO.N,/COL1*%
X171450000Y-93672660D03*
X171450000Y-91132660D03*
D15*
%TO.P,SW4:12,99*%
%TO.N,N/C*%
X165976300Y-93672660D03*
X169303700Y-93672660D03*
%TD*%
D11*
%TO.P,SW4:11,1,1*%
%TO.N,/ROW4*%
X152400000Y-80337660D03*
D12*
X154740000Y-77677660D03*
D11*
X151130000Y-77797660D03*
D12*
%TO.P,SW4:11,2,2*%
%TO.N,Net-(SW4:11-Pad2)*%
X141290000Y-80377660D03*
D11*
X144780000Y-80337660D03*
X146040000Y-77827660D03*
D13*
%TO.P,SW4:11,3,A*%
X144780000Y-90497660D03*
X144780000Y-87957660D03*
D14*
%TO.P,SW4:11,4,K*%
%TO.N,/COL2*%
X152400000Y-87957660D03*
X152400000Y-90497660D03*
D15*
%TO.P,SW4:11,99*%
%TO.N,N/C*%
X146926300Y-90497660D03*
X150253700Y-90497660D03*
%TD*%
D11*
%TO.P,SW4:10,1,1*%
%TO.N,/ROW4*%
X133350000Y-78740000D03*
X132080000Y-76200000D03*
D12*
X135690000Y-76080000D03*
D11*
%TO.P,SW4:10,2,2*%
%TO.N,Net-(SW4:10-Pad2)*%
X126990000Y-76230000D03*
D12*
X122240000Y-78780000D03*
D11*
X125730000Y-78740000D03*
D13*
%TO.P,SW4:10,3,A*%
X125730000Y-88900000D03*
X125730000Y-86360000D03*
D14*
%TO.P,SW4:10,4,K*%
%TO.N,/COL3*%
X133350000Y-86360000D03*
X133350000Y-88900000D03*
D15*
%TO.P,SW4:10,99*%
%TO.N,N/C*%
X127876300Y-88900000D03*
X131203700Y-88900000D03*
%TD*%
D11*
%TO.P,SW4:9,1,1*%
%TO.N,/ROW4*%
X114300000Y-80337660D03*
D12*
X116640000Y-77677660D03*
D11*
X113030000Y-77797660D03*
%TO.P,SW4:9,2,2*%
%TO.N,Net-(SW4:9-Pad2)*%
X107940000Y-77827660D03*
D12*
X103190000Y-80377660D03*
D11*
X106680000Y-80337660D03*
D13*
%TO.P,SW4:9,3,A*%
X106680000Y-87957660D03*
X106680000Y-90497660D03*
D14*
%TO.P,SW4:9,4,K*%
%TO.N,/COL4*%
X114300000Y-87957660D03*
X114300000Y-90497660D03*
D15*
%TO.P,SW4:9,99*%
%TO.N,N/C*%
X108826300Y-90497660D03*
X112153700Y-90497660D03*
%TD*%
D12*
%TO.P,SW4:8,1,1*%
%TO.N,/ROW4*%
X97590000Y-78947660D03*
D11*
X95250000Y-81607660D03*
X93980000Y-79067660D03*
D12*
%TO.P,SW4:8,2,2*%
%TO.N,Net-(SW4:8-Pad2)*%
X84140000Y-81647660D03*
D11*
X88890000Y-79097660D03*
X87630000Y-81607660D03*
D13*
%TO.P,SW4:8,3,A*%
X87630000Y-91767660D03*
X87630000Y-89227660D03*
D14*
%TO.P,SW4:8,4,K*%
%TO.N,/COL5*%
X95250000Y-89227660D03*
X95250000Y-91767660D03*
D15*
%TO.P,SW4:8,99*%
%TO.N,N/C*%
X89776300Y-91767660D03*
X93103700Y-91767660D03*
%TD*%
D11*
%TO.P,SW4:7,1,1*%
%TO.N,/ROW4*%
X67310000Y-86370160D03*
X69850000Y-85100160D03*
D16*
X67190000Y-82760160D03*
%TO.P,SW4:7,2,2*%
%TO.N,Net-(SW4:7-Pad2)*%
X69890000Y-96210160D03*
D11*
X67340000Y-91460160D03*
X69850000Y-92720160D03*
D13*
%TO.P,SW4:7,3,A*%
X80010000Y-92720160D03*
X77470000Y-92720160D03*
D14*
%TO.P,SW4:7,4,K*%
%TO.N,/COL6*%
X80010000Y-85100160D03*
X77470000Y-85100160D03*
D15*
%TO.P,SW4:7,99*%
%TO.N,N/C*%
X80010000Y-90573860D03*
X80010000Y-87246460D03*
%TD*%
D17*
%TO.P,SW0:10,1,1*%
%TO.N,/ROW0*%
X73990957Y-149689302D03*
D11*
X75625366Y-152910359D03*
X77390663Y-150685898D03*
%TO.P,SW0:10,2,2*%
%TO.N,Net-(SW0:10-Pad2)*%
X80611014Y-157591963D03*
X77803682Y-157510787D03*
D17*
X82122204Y-160738072D03*
D13*
%TO.P,SW0:10,3,A*%
X87517079Y-154371612D03*
X89819101Y-153298162D03*
D18*
%TO.P,SW0:10,4,K*%
%TO.N,/COL3*%
X86598750Y-146392096D03*
X84296728Y-147465547D03*
D19*
%TO.P,SW0:10,99*%
%TO.N,N/C*%
X88912035Y-151352953D03*
X87505815Y-148337305D03*
%TD*%
D11*
%TO.P,SW0:12,1,1*%
%TO.N,/ROW0*%
X50955121Y-172122506D03*
X53179582Y-173887803D03*
D20*
X54176178Y-170488097D03*
%TO.P,SW0:12,2,2*%
%TO.N,Net-(SW0:12-Pad2)*%
X43127408Y-178619344D03*
D11*
X46273517Y-177108154D03*
X46354693Y-174300822D03*
D13*
%TO.P,SW0:12,3,A*%
X49493868Y-184014219D03*
X50567318Y-186316241D03*
D21*
%TO.P,SW0:12,4,K*%
%TO.N,/COL1*%
X56399933Y-180793868D03*
X57473384Y-183095890D03*
D22*
%TO.P,SW0:12,99*%
%TO.N,N/C*%
X52512527Y-185409175D03*
X55528175Y-184002955D03*
%TD*%
D11*
%TO.P,SW0:11,1,1*%
%TO.N,/ROW0*%
X58360986Y-160962159D03*
X60126283Y-158737698D03*
D17*
X56726577Y-157741102D03*
D11*
%TO.P,SW0:11,2,2*%
%TO.N,Net-(SW0:11-Pad2)*%
X60539302Y-165562587D03*
D17*
X64857824Y-168789872D03*
D11*
X63346634Y-165643763D03*
D13*
%TO.P,SW0:11,3,A*%
X72554721Y-161349962D03*
X70252699Y-162423412D03*
D18*
%TO.P,SW0:11,4,K*%
%TO.N,/COL2*%
X69334370Y-154443896D03*
X67032348Y-155517347D03*
D19*
%TO.P,SW0:11,99*%
%TO.N,N/C*%
X71647655Y-159404753D03*
X70241435Y-156389105D03*
%TD*%
D11*
%TO.P,SW0:9,1,1*%
%TO.N,/ROW0*%
X45127782Y-156620883D03*
X42903321Y-154855586D03*
D20*
X46124378Y-153221177D03*
%TO.P,SW0:9,2,2*%
%TO.N,Net-(SW0:9-Pad2)*%
X35075608Y-161352424D03*
D11*
X38302893Y-157033902D03*
X38221717Y-159841234D03*
D13*
%TO.P,SW0:9,3,A*%
X41442068Y-166747299D03*
X42515518Y-169049321D03*
D21*
%TO.P,SW0:9,4,K*%
%TO.N,/COL4*%
X48348133Y-163526948D03*
X49421584Y-165828970D03*
D22*
%TO.P,SW0:9,99*%
%TO.N,N/C*%
X44460727Y-168142255D03*
X47476375Y-166736035D03*
%TD*%
D11*
%TO.P,SW0:7,1,1*%
%TO.N,/ROW0*%
X37078522Y-139356503D03*
D20*
X38075118Y-135956797D03*
D11*
X34854061Y-137591206D03*
%TO.P,SW0:7,2,2*%
%TO.N,Net-(SW0:7-Pad2)*%
X30253633Y-139769522D03*
D20*
X27026348Y-144088044D03*
D11*
X30172457Y-142576854D03*
D13*
%TO.P,SW0:7,3,A*%
X33392808Y-149482919D03*
X34466258Y-151784941D03*
D21*
%TO.P,SW0:7,4,K*%
%TO.N,/COL6*%
X41372324Y-148564590D03*
X40298873Y-146262568D03*
D22*
%TO.P,SW0:7,99*%
%TO.N,N/C*%
X36411467Y-150877875D03*
X39427115Y-149471655D03*
%TD*%
D11*
%TO.P,SW1:11,1,1*%
%TO.N,/ROW1*%
X151130000Y-134947660D03*
X152400000Y-137487660D03*
D12*
X154740000Y-134827660D03*
%TO.P,SW1:11,2,2*%
%TO.N,Net-(SW1:11-Pad2)*%
X141290000Y-137527660D03*
D11*
X144780000Y-137487660D03*
X146040000Y-134977660D03*
D13*
%TO.P,SW1:11,3,A*%
X144780000Y-145107660D03*
X144780000Y-147647660D03*
D14*
%TO.P,SW1:11,4,K*%
%TO.N,/COL2*%
X152400000Y-145107660D03*
X152400000Y-147647660D03*
D15*
%TO.P,SW1:11,99*%
%TO.N,N/C*%
X146926300Y-147647660D03*
X150253700Y-147647660D03*
%TD*%
D11*
%TO.P,SW0:8,1,1*%
%TO.N,/ROW0*%
X52118441Y-129541946D03*
D20*
X55339498Y-127907537D03*
D11*
X54342902Y-131307243D03*
D20*
%TO.P,SW0:8,2,2*%
%TO.N,Net-(SW0:8-Pad2)*%
X44290728Y-136038784D03*
D11*
X47436837Y-134527594D03*
X47518013Y-131720262D03*
D13*
%TO.P,SW0:8,3,A*%
X51730638Y-143735681D03*
X50657188Y-141433659D03*
D21*
%TO.P,SW0:8,4,K*%
%TO.N,/COL5*%
X57563253Y-138213308D03*
X58636704Y-140515330D03*
D22*
%TO.P,SW0:8,99*%
%TO.N,N/C*%
X53675847Y-142828615D03*
X56691495Y-141422395D03*
%TD*%
D13*
%TO.P,LED_C1,1,A*%
%TO.N,Net-(LED_C1-Pad1)*%
X77470000Y-118755160D03*
D14*
%TO.P,LED_C1,2,K*%
%TO.N,GND*%
X77470000Y-116215160D03*
%TD*%
D13*
%TO.P,LED_B1,1,A*%
%TO.N,Net-(LED_B1-Pad1)*%
X77470000Y-90180160D03*
D14*
%TO.P,LED_B1,2,K*%
%TO.N,GND*%
X77470000Y-87640160D03*
%TD*%
D13*
%TO.P,LED_A1,1,A*%
%TO.N,Net-(LED_A1-Pad1)*%
X71120000Y-70180200D03*
D14*
%TO.P,LED_A1,2,K*%
%TO.N,GND*%
X73660000Y-70180200D03*
%TD*%
D13*
%TO.P,RC1,1*%
%TO.N,/LED_C*%
X105827102Y-35142898D03*
%TO.P,RC1,2*%
%TO.N,Net-(LED_C1-Pad1)*%
X98642898Y-42327102D03*
%TD*%
%TO.P,RA1,1*%
%TO.N,/LED_A*%
X97572102Y-34507898D03*
%TO.P,RA1,2*%
%TO.N,Net-(LED_A1-Pad1)*%
X90387898Y-41692102D03*
%TD*%
%TO.P,RB1,1*%
%TO.N,/LED_B*%
X101382102Y-35142898D03*
%TO.P,RB1,2*%
%TO.N,Net-(LED_B1-Pad1)*%
X94197898Y-42327102D03*
%TD*%
%TO.P,R1,1*%
%TO.N,+3V3*%
X107532898Y-42327102D03*
%TO.P,R1,2*%
%TO.N,/SDA*%
X114717102Y-35142898D03*
%TD*%
%TO.P,R2,1*%
%TO.N,+3V3*%
X103087898Y-42327102D03*
%TO.P,R2,2*%
%TO.N,/SCL*%
X110272102Y-35142898D03*
%TD*%
D12*
%TO.P,SW5:9,1,1*%
%TO.N,/ROW5*%
X116640000Y-58627660D03*
D11*
X114300000Y-61287660D03*
X113030000Y-58747660D03*
D12*
%TO.P,SW5:9,2,2*%
%TO.N,Net-(SW5:9-Pad2)*%
X103190000Y-61327660D03*
D11*
X106680000Y-61287660D03*
X107940000Y-58777660D03*
D13*
%TO.P,SW5:9,3,A*%
X106680000Y-71447660D03*
X106680000Y-68907660D03*
D14*
%TO.P,SW5:9,4,K*%
%TO.N,/COL4*%
X114300000Y-68907660D03*
X114300000Y-71447660D03*
D15*
%TO.P,SW5:9,99*%
%TO.N,N/C*%
X112153700Y-71447660D03*
X108826300Y-71447660D03*
%TD*%
D11*
%TO.P,SW5:10,1,1*%
%TO.N,/ROW5*%
X132080000Y-57150000D03*
X133350000Y-59690000D03*
D12*
X135690000Y-57030000D03*
D11*
%TO.P,SW5:10,2,2*%
%TO.N,Net-(SW5:10-Pad2)*%
X126990000Y-57180000D03*
D12*
X122240000Y-59730000D03*
D11*
X125730000Y-59690000D03*
D13*
%TO.P,SW5:10,3,A*%
X125730000Y-67310000D03*
X125730000Y-69850000D03*
D14*
%TO.P,SW5:10,4,K*%
%TO.N,/COL3*%
X133350000Y-69850000D03*
X133350000Y-67310000D03*
D15*
%TO.P,SW5:10,99*%
%TO.N,N/C*%
X131203700Y-69850000D03*
X127876300Y-69850000D03*
%TD*%
D11*
%TO.P,SW5:11,1,1*%
%TO.N,/ROW5*%
X151130000Y-58747660D03*
X152400000Y-61287660D03*
D12*
X154740000Y-58627660D03*
%TO.P,SW5:11,2,2*%
%TO.N,Net-(SW5:11-Pad2)*%
X141290000Y-61327660D03*
D11*
X144780000Y-61287660D03*
X146040000Y-58777660D03*
D13*
%TO.P,SW5:11,3,A*%
X144780000Y-68907660D03*
X144780000Y-71447660D03*
D14*
%TO.P,SW5:11,4,K*%
%TO.N,/COL2*%
X152400000Y-68907660D03*
X152400000Y-71447660D03*
D15*
%TO.P,SW5:11,99*%
%TO.N,N/C*%
X150253700Y-71447660D03*
X146926300Y-71447660D03*
%TD*%
D11*
%TO.P,SW5:12,1,1*%
%TO.N,/ROW5*%
X171450000Y-64465200D03*
X170180000Y-61925200D03*
D12*
X173790000Y-61805200D03*
D11*
%TO.P,SW5:12,2,2*%
%TO.N,Net-(SW5:12-Pad2)*%
X165090000Y-61955200D03*
X163830000Y-64465200D03*
D12*
X160340000Y-64505200D03*
D13*
%TO.P,SW5:12,3,A*%
X163830000Y-72085200D03*
X163830000Y-74625200D03*
D14*
%TO.P,SW5:12,4,K*%
%TO.N,/COL1*%
X171450000Y-72085200D03*
X171450000Y-74625200D03*
D15*
%TO.P,SW5:12,99*%
%TO.N,N/C*%
X169303700Y-74625200D03*
X165976300Y-74625200D03*
%TD*%
D12*
%TO.P,SW5:8,1,1*%
%TO.N,/ROW5*%
X97590000Y-59900200D03*
D11*
X93980000Y-60020200D03*
X95250000Y-62560200D03*
D12*
%TO.P,SW5:8,2,2*%
%TO.N,Net-(SW5:8-Pad2)*%
X84140000Y-62600200D03*
D11*
X88890000Y-60050200D03*
X87630000Y-62560200D03*
D13*
%TO.P,SW5:8,3,A*%
X87630000Y-70180200D03*
X87630000Y-72720200D03*
D14*
%TO.P,SW5:8,4,K*%
%TO.N,/COL5*%
X95250000Y-72720200D03*
X95250000Y-70180200D03*
D15*
%TO.P,SW5:8,99*%
%TO.N,N/C*%
X89776300Y-72720200D03*
X93103700Y-72720200D03*
%TD*%
D12*
%TO.P,SW5:7,1,1*%
%TO.N,/ROW5*%
X78540000Y-59900200D03*
D11*
X74930000Y-60020200D03*
X76200000Y-62560200D03*
D12*
%TO.P,SW5:7,2,2*%
%TO.N,Net-(SW5:7-Pad2)*%
X65090000Y-62600200D03*
D11*
X69840000Y-60050200D03*
X68580000Y-62560200D03*
D13*
%TO.P,SW5:7,3,A*%
X68580000Y-72720200D03*
X68580000Y-70180200D03*
D14*
%TO.P,SW5:7,4,K*%
%TO.N,/COL6*%
X76200000Y-70180200D03*
X76200000Y-72720200D03*
D15*
%TO.P,SW5:7,99*%
%TO.N,N/C*%
X70726300Y-72720200D03*
X74053700Y-72720200D03*
%TD*%
D11*
%TO.P,SW2:11,1,1*%
%TO.N,/ROW2*%
X152400000Y-118437660D03*
X151130000Y-115897660D03*
D12*
X154740000Y-115777660D03*
D11*
%TO.P,SW2:11,2,2*%
%TO.N,Net-(SW2:11-Pad2)*%
X144780000Y-118437660D03*
D12*
X141290000Y-118477660D03*
D11*
X146040000Y-115927660D03*
D13*
%TO.P,SW2:11,3,A*%
X144780000Y-126057660D03*
X144780000Y-128597660D03*
D14*
%TO.P,SW2:11,4,K*%
%TO.N,/COL2*%
X152400000Y-126057660D03*
X152400000Y-128597660D03*
D15*
%TO.P,SW2:11,99*%
%TO.N,N/C*%
X150253700Y-128597660D03*
X146926300Y-128597660D03*
%TD*%
D11*
%TO.P,SW2:8,1,1*%
%TO.N,/ROW2*%
X95250000Y-119707660D03*
X93980000Y-117167660D03*
D12*
X97590000Y-117047660D03*
D11*
%TO.P,SW2:8,2,2*%
%TO.N,Net-(SW2:8-Pad2)*%
X87630000Y-119707660D03*
D12*
X84140000Y-119747660D03*
D11*
X88890000Y-117197660D03*
D13*
%TO.P,SW2:8,3,A*%
X87630000Y-127327660D03*
X87630000Y-129867660D03*
D14*
%TO.P,SW2:8,4,K*%
%TO.N,/COL5*%
X95250000Y-129867660D03*
X95250000Y-127327660D03*
D15*
%TO.P,SW2:8,99*%
%TO.N,N/C*%
X93103700Y-129867660D03*
X89776300Y-129867660D03*
%TD*%
D11*
%TO.P,SW3:12,1,1*%
%TO.N,/ROW3*%
X170180000Y-100022660D03*
X171450000Y-102562660D03*
D12*
X173790000Y-99902660D03*
D11*
%TO.P,SW3:12,2,2*%
%TO.N,Net-(SW3:12-Pad2)*%
X165090000Y-100052660D03*
X163830000Y-102562660D03*
D12*
X160340000Y-102602660D03*
D13*
%TO.P,SW3:12,3,A*%
X163830000Y-112722660D03*
X163830000Y-110182660D03*
D14*
%TO.P,SW3:12,4,K*%
%TO.N,/COL1*%
X171450000Y-110182660D03*
X171450000Y-112722660D03*
D15*
%TO.P,SW3:12,99*%
%TO.N,N/C*%
X169303700Y-112722660D03*
X165976300Y-112722660D03*
%TD*%
D12*
%TO.P,SW2:12,1,1*%
%TO.N,/ROW2*%
X173790000Y-118952660D03*
D11*
X171450000Y-121612660D03*
X170180000Y-119072660D03*
D12*
%TO.P,SW2:12,2,2*%
%TO.N,Net-(SW2:12-Pad2)*%
X160340000Y-121652660D03*
D11*
X165090000Y-119102660D03*
X163830000Y-121612660D03*
D13*
%TO.P,SW2:12,3,A*%
X163830000Y-129232660D03*
X163830000Y-131772660D03*
D14*
%TO.P,SW2:12,4,K*%
%TO.N,/COL1*%
X171450000Y-129232660D03*
X171450000Y-131772660D03*
D15*
%TO.P,SW2:12,99*%
%TO.N,N/C*%
X169303700Y-131772660D03*
X165976300Y-131772660D03*
%TD*%
D11*
%TO.P,SW1:12,1,1*%
%TO.N,/ROW1*%
X170180000Y-138122660D03*
D12*
X173790000Y-138002660D03*
D11*
X171450000Y-140662660D03*
D12*
%TO.P,SW1:12,2,2*%
%TO.N,Net-(SW1:12-Pad2)*%
X160340000Y-140702660D03*
D11*
X165090000Y-138152660D03*
X163830000Y-140662660D03*
D13*
%TO.P,SW1:12,3,A*%
X163830000Y-150822660D03*
X163830000Y-148282660D03*
D14*
%TO.P,SW1:12,4,K*%
%TO.N,/COL1*%
X171450000Y-150822660D03*
X171450000Y-148282660D03*
D15*
%TO.P,SW1:12,99*%
%TO.N,N/C*%
X169303700Y-150822660D03*
X165976300Y-150822660D03*
%TD*%
D23*
%TO.P,SX1:8,1,1*%
%TO.N,/COL5*%
X77434621Y-138754526D03*
X79659082Y-140519823D03*
%TO.P,SX1:8,2,2*%
%TO.N,Net-(D1:8-Pad1)*%
X72753017Y-143740174D03*
X72830577Y-140901427D03*
%TD*%
%TO.P,SX1:7,1,1*%
%TO.N,/COL5*%
X60170241Y-146806326D03*
X62394702Y-148571623D03*
%TO.P,SX1:7,2,2*%
%TO.N,Net-(D1:7-Pad1)*%
X55488637Y-151791974D03*
X55566197Y-148953227D03*
%TD*%
%TO.P,SX0:10,1,1*%
%TO.N,/COL5*%
X82951718Y-165611137D03*
X85176179Y-167376434D03*
%TO.P,SX0:10,2,2*%
X89780223Y-165229533D03*
X89857783Y-162390786D03*
%TD*%
%TO.P,SX0:11,1,1*%
%TO.N,/COL5*%
X65684798Y-173660397D03*
X67909259Y-175425694D03*
%TO.P,SX0:11,2,2*%
%TO.N,Net-(SW0:11-Pad2)*%
X72513303Y-173278793D03*
X72590863Y-170440046D03*
%TD*%
D13*
%TO.P,D1:8,1,A*%
%TO.N,Net-(D1:8-Pad1)*%
X70605747Y-139135936D03*
D21*
%TO.P,D1:8,2,K*%
%TO.N,/COL5*%
X77511813Y-135915584D03*
D22*
%TO.P,D1:8,99*%
%TO.N,N/C*%
X75566604Y-136822650D03*
X72550956Y-138228870D03*
%TD*%
D13*
%TO.P,D1:7,1,A*%
%TO.N,Net-(D1:7-Pad1)*%
X53341367Y-147187736D03*
D21*
%TO.P,D1:7,2,K*%
%TO.N,/COL5*%
X60247433Y-143967384D03*
D22*
%TO.P,D1:7,99*%
%TO.N,N/C*%
X55286576Y-146280670D03*
X58302224Y-144874450D03*
%TD*%
D24*
%TO.P,STITCHING_VIA,GND*%
%TO.N,GND*%
X120777000Y-56896000D03*
%TD*%
%TO.P,STITCHING_VIA,GND*%
%TO.N,GND*%
X70485000Y-55245000D03*
%TD*%
%TO.P,STITCHING_VIA,GND*%
%TO.N,GND*%
X173228000Y-51943000D03*
%TD*%
%TO.P,STITCHING_VIA,GND*%
%TO.N,GND*%
X154940000Y-38100000D03*
%TD*%
%TO.P,STITCHING_VIA,GND*%
%TO.N,N/C*%
X101490000Y-129460000D03*
%TD*%
%TO.P,STITCHING_VIA,GND*%
%TO.N,GND*%
X59870000Y-171840000D03*
%TD*%
%TO.P,STITCHING_VIA,GND*%
%TO.N,GND*%
X119940000Y-134000000D03*
%TD*%
%TO.P,STITCHING_VIA,GND*%
%TO.N,GND*%
X139192000Y-134080000D03*
%TD*%
%TO.P,STITCHING_VIA,GND*%
%TO.N,GND*%
X157790000Y-132510000D03*
%TD*%
%TO.P,STITCHING_VIA,GND*%
%TO.N,GND*%
X177240000Y-132590000D03*
%TD*%
%TO.P,STITCHING_VIA,GND*%
%TO.N,GND*%
X100190000Y-58530000D03*
%TD*%
D25*
%TO.P,SW_RST1,*%
%TO.N,*%
X145689000Y-36399000D03*
X152699000Y-36399000D03*
D26*
%TO.P,SW_RST1,1,1*%
%TO.N,/Reset_SW*%
X146939000Y-33909000D03*
%TO.P,SW_RST1,2,2*%
%TO.N,GND*%
X151439000Y-33909000D03*
%TD*%
D27*
%TO.P,D4,1,VDD*%
%TO.N,+5V*%
X199234390Y-45136000D03*
%TO.P,D4,2,DOUT*%
%TO.N,unconnected-(D4-Pad2)*%
X199234390Y-48336000D03*
%TO.P,D4,3,VSS*%
%TO.N,GND*%
X204134390Y-48336000D03*
%TO.P,D4,4,DIN*%
%TO.N,Net-(D4-Pad4)*%
X204134390Y-45136000D03*
%TD*%
D28*
%TO.P,D5,1,K*%
%TO.N,/WirelessCharger*%
X202184000Y-62103000D03*
D29*
%TO.P,D5,2,A*%
%TO.N,Net-(D5-Pad2)*%
X202184000Y-69723000D03*
%TD*%
D30*
%TO.P,OL1,1,SDA*%
%TO.N,/OLED_P1*%
X73025000Y-35941000D03*
D31*
%TO.P,OL1,2,SCL*%
%TO.N,/OLED_P2*%
X73025000Y-38481000D03*
%TO.P,OL1,3,VCC*%
%TO.N,/OLED_P3*%
X73025000Y-41021000D03*
%TO.P,OL1,4,GND*%
%TO.N,/OLED_P4*%
X73025000Y-43561000D03*
%TD*%
D28*
%TO.P,A1,1,~{RESET}*%
%TO.N,/Reset_SW*%
X160909000Y-57296500D03*
D32*
%TO.P,A1,2,3V3*%
%TO.N,+3V3*%
X163449000Y-57296500D03*
%TO.P,A1,3,AREF*%
%TO.N,unconnected-(A1-Pad3)*%
X165989000Y-57296500D03*
%TO.P,A1,4,GND*%
%TO.N,GND*%
X168529000Y-57296500D03*
%TO.P,A1,5,A0*%
%TO.N,/EncoderPin1*%
X171069000Y-57296500D03*
%TO.P,A1,6,A1*%
%TO.N,/EncoderPin2*%
X173609000Y-57296500D03*
%TO.P,A1,7,A2*%
%TO.N,/EncoderClick*%
X176149000Y-57296500D03*
%TO.P,A1,8,A3*%
%TO.N,/Haptic_motor*%
X178689000Y-57296500D03*
%TO.P,A1,9,A4*%
%TO.N,unconnected-(A1-Pad9)*%
X181229000Y-57296500D03*
%TO.P,A1,10,A5*%
%TO.N,unconnected-(A1-Pad10)*%
X183769000Y-57296500D03*
%TO.P,A1,11,SCK/D15*%
%TO.N,unconnected-(A1-Pad11)*%
X186309000Y-57296500D03*
%TO.P,A1,12,MOSI/D16*%
%TO.N,unconnected-(A1-Pad12)*%
X188849000Y-57296500D03*
%TO.P,A1,13,MISO/D14*%
%TO.N,unconnected-(A1-Pad13)*%
X191389000Y-57296500D03*
%TO.P,A1,14,RX/D0*%
%TO.N,unconnected-(A1-Pad14)*%
X193929000Y-57296500D03*
%TO.P,A1,15,TX/D1*%
%TO.N,unconnected-(A1-Pad15)*%
X196469000Y-57296500D03*
%TO.P,A1,16,~{DFU}*%
%TO.N,unconnected-(A1-Pad16)*%
X199009000Y-57296500D03*
%TO.P,A1,17,SDA/D2*%
%TO.N,/SDA*%
X199009000Y-36976500D03*
%TO.P,A1,18,SCL/D3*%
%TO.N,/SCL*%
X196469000Y-36976500D03*
%TO.P,A1,19,D5*%
%TO.N,unconnected-(A1-Pad19)*%
X193929000Y-36976500D03*
%TO.P,A1,20,D6*%
%TO.N,unconnected-(A1-Pad20)*%
X191389000Y-36976500D03*
%TO.P,A1,21,D9*%
%TO.N,unconnected-(A1-Pad21)*%
X188849000Y-36976500D03*
%TO.P,A1,22,D10*%
%TO.N,unconnected-(A1-Pad22)*%
X186309000Y-36976500D03*
%TO.P,A1,23,D11*%
%TO.N,unconnected-(A1-Pad23)*%
X183769000Y-36976500D03*
%TO.P,A1,24,D12*%
%TO.N,unconnected-(A1-Pad24)*%
X181229000Y-36976500D03*
%TO.P,A1,25,D13*%
%TO.N,/Underglow DIN*%
X178689000Y-36976500D03*
%TO.P,A1,26,USB*%
%TO.N,/WirelessCharger*%
X176149000Y-36976500D03*
%TO.P,A1,27,EN*%
%TO.N,unconnected-(A1-Pad27)*%
X173609000Y-36976500D03*
%TO.P,A1,28,VBAT*%
%TO.N,unconnected-(A1-Pad28)*%
X171069000Y-36976500D03*
%TD*%
D13*
%TO.P,R3,1*%
%TO.N,Net-(Q1-Pad3)*%
X77911475Y-107188000D03*
%TO.P,R3,2*%
%TO.N,Net-(J5-Pad1)*%
X67751477Y-107188000D03*
%TD*%
D33*
%TO.P,Q1,1,B*%
%TO.N,/Haptic_motor*%
X80596500Y-124272000D03*
%TO.P,Q1,2,C*%
%TO.N,Net-(C1-Pad2)*%
X80596500Y-126172000D03*
%TO.P,Q1,3,E*%
%TO.N,Net-(Q1-Pad3)*%
X82471500Y-125222000D03*
%TD*%
D27*
%TO.P,D2,1,VDD*%
%TO.N,+5V*%
X65241000Y-49200000D03*
%TO.P,D2,2,DOUT*%
%TO.N,Net-(D2-Pad2)*%
X65241000Y-52400000D03*
%TO.P,D2,3,VSS*%
%TO.N,GND*%
X70141000Y-52400000D03*
%TO.P,D2,4,DIN*%
%TO.N,Net-(D2-Pad4)*%
X70141000Y-49200000D03*
%TD*%
D32*
%TO.P,C1,1*%
%TO.N,+3V3*%
X66294000Y-133731000D03*
D29*
%TO.P,C1,2*%
%TO.N,Net-(C1-Pad2)*%
X73794000Y-133731000D03*
%TD*%
D34*
%TO.P,JP11,1,A*%
%TO.N,/OLED_P3*%
X76693000Y-41021000D03*
D35*
%TO.P,JP11,2,B*%
%TO.N,+3V3*%
X77993000Y-41021000D03*
%TD*%
D34*
%TO.P,JP3,1,A*%
%TO.N,Net-(D1-Pad2)*%
X66914000Y-39243000D03*
D35*
%TO.P,JP3,2,B*%
%TO.N,Net-(JP3-Pad2)*%
X68214000Y-39243000D03*
%TD*%
D36*
%TO.P,SWRE1,A,A*%
%TO.N,/EncoderPin1*%
X91353000Y-146823000D03*
D37*
%TO.P,SWRE1,B,B*%
%TO.N,/EncoderPin2*%
X96353000Y-146823000D03*
%TO.P,SWRE1,C,C*%
%TO.N,GND*%
X93853000Y-146823000D03*
D38*
%TO.P,SWRE1,MP*%
%TO.N,N/C*%
X99453000Y-139323000D03*
X88253000Y-139323000D03*
D37*
%TO.P,SWRE1,S1,S1*%
%TO.N,/EncoderClick*%
X96353000Y-132323000D03*
%TO.P,SWRE1,S2,S2*%
%TO.N,GND*%
X91353000Y-132323000D03*
%TD*%
D39*
%TO.P,JP1,1,A*%
%TO.N,/Underglow DIN*%
X68214000Y-35433000D03*
D40*
%TO.P,JP1,2,B*%
%TO.N,Net-(D1-Pad4)*%
X66914000Y-35433000D03*
%TD*%
D41*
%TO.P,J2,1,Pin_1*%
%TO.N,Net-(BAT_SW1-Pad2)*%
X148737000Y-53429000D03*
D42*
%TO.P,J2,2,Pin_2*%
%TO.N,Net-(J2-Pad2)*%
X151237000Y-53429000D03*
%TD*%
D39*
%TO.P,JP17,1,A*%
%TO.N,/D_IN_RIGHT-*%
X130444000Y-41529000D03*
D40*
%TO.P,JP17,2,B*%
%TO.N,/D_IN-*%
X129144000Y-41529000D03*
%TD*%
D43*
%TO.P,P1,A1,GND*%
%TO.N,GND*%
X140643000Y-36537000D03*
%TO.P,P1,A4,VBUS*%
%TO.N,+5V*%
X139793000Y-36537000D03*
%TO.P,P1,A5,CC1*%
%TO.N,unconnected-(P1-PadA5)*%
X138943000Y-36537000D03*
%TO.P,P1,A6,D+*%
%TO.N,/D_IN_RIGHT+*%
X138093000Y-36537000D03*
%TO.P,P1,A7,D-*%
%TO.N,/D_IN_RIGHT-*%
X137243000Y-36537000D03*
%TO.P,P1,A8,SBU1*%
%TO.N,unconnected-(P1-PadA8)*%
X136393000Y-36537000D03*
%TO.P,P1,A9,VBUS*%
%TO.N,+5V*%
X135543000Y-36537000D03*
%TO.P,P1,A12,GND*%
%TO.N,GND*%
X134693000Y-36537000D03*
%TO.P,P1,B1,GND*%
X134693000Y-35187000D03*
%TO.P,P1,B4,VBUS*%
%TO.N,+5V*%
X135543000Y-35187000D03*
%TO.P,P1,B5,CC2*%
%TO.N,unconnected-(P1-PadB5)*%
X136393000Y-35187000D03*
%TO.P,P1,B6,D+*%
%TO.N,/D_IN_RIGHT+*%
X137243000Y-35187000D03*
%TO.P,P1,B7,D-*%
%TO.N,/D_IN_RIGHT-*%
X138093000Y-35187000D03*
%TO.P,P1,B8,SBU2*%
%TO.N,unconnected-(P1-PadB8)*%
X138943000Y-35187000D03*
%TO.P,P1,B9,VBUS*%
%TO.N,+5V*%
X139793000Y-35187000D03*
%TO.P,P1,B12,GND*%
%TO.N,GND*%
X140643000Y-35187000D03*
D44*
%TO.P,P1,S1,SHIELD*%
%TO.N,unconnected-(P1-PadS1)*%
X133343000Y-32177000D03*
D45*
X133343000Y-35557000D03*
D44*
X141993000Y-32177000D03*
D45*
X141993000Y-35557000D03*
%TD*%
D46*
%TO.P,J5,1,Pin_1*%
%TO.N,Net-(J5-Pad1)*%
X62865000Y-128286000D03*
D47*
%TO.P,J5,2,Pin_2*%
%TO.N,GND*%
X62865000Y-130286000D03*
%TD*%
D34*
%TO.P,JP9,1,A*%
%TO.N,/OLED_P2*%
X76708000Y-38481000D03*
D35*
%TO.P,JP9,2,B*%
%TO.N,/SCL*%
X78008000Y-38481000D03*
%TD*%
D48*
%TO.P,J1,1,Pin_1*%
%TO.N,+5V*%
X148590000Y-42164000D03*
D49*
%TO.P,J1,2,Pin_2*%
%TO.N,/D+*%
X148590000Y-43164000D03*
%TO.P,J1,3,Pin_3*%
%TO.N,/D-*%
X148590000Y-44164000D03*
%TO.P,J1,4,Pin_4*%
%TO.N,GND*%
X148590000Y-45164000D03*
%TD*%
D34*
%TO.P,JP7,1,A*%
%TO.N,/OLED_P1*%
X76693000Y-35814000D03*
D35*
%TO.P,JP7,2,B*%
%TO.N,/SDA*%
X77993000Y-35814000D03*
%TD*%
D50*
%TO.P,U_ESD1,1,I/O1*%
%TO.N,/D+*%
X122052500Y-39309000D03*
%TO.P,U_ESD1,2,GND*%
%TO.N,GND*%
X122052500Y-40259000D03*
%TO.P,U_ESD1,3,I/O2*%
%TO.N,/D-*%
X122052500Y-41209000D03*
%TO.P,U_ESD1,4,I/O2*%
%TO.N,/D_IN-*%
X124327500Y-41209000D03*
%TO.P,U_ESD1,5,VBUS*%
%TO.N,+5V*%
X124327500Y-40259000D03*
%TO.P,U_ESD1,6,I/O1*%
%TO.N,/D_IN+*%
X124327500Y-39309000D03*
%TD*%
D51*
%TO.P,U1,1,GND*%
%TO.N,GND*%
X74930000Y-54610000D03*
D52*
%TO.P,U1,2*%
%TO.N,N/C*%
X77470000Y-54610000D03*
%TO.P,U1,3,GPB0*%
%TO.N,/ROW5*%
X80010000Y-54610000D03*
%TO.P,U1,4,GPB1*%
%TO.N,/ROW4*%
X82550000Y-54610000D03*
%TO.P,U1,5,GPB2*%
%TO.N,/ROW3*%
X85090000Y-54610000D03*
%TO.P,U1,6,GPB3*%
%TO.N,/ROW2*%
X87630000Y-54610000D03*
%TO.P,U1,7,GPB4*%
%TO.N,/ROW1*%
X90170000Y-54610000D03*
%TO.P,U1,8,GPB5*%
%TO.N,/ROW0*%
X92710000Y-54610000D03*
%TO.P,U1,9,GPB6*%
%TO.N,/COL6*%
X95250000Y-54610000D03*
%TO.P,U1,10,GPB7*%
%TO.N,/COL5*%
X97790000Y-54610000D03*
%TO.P,U1,11,VCC*%
%TO.N,VCC*%
X100330000Y-54610000D03*
%TO.P,U1,12,SCL*%
%TO.N,/SCL*%
X102870000Y-54610000D03*
%TO.P,U1,13,SDA*%
%TO.N,/SDA*%
X105410000Y-54610000D03*
%TO.P,U1,14,NC*%
%TO.N,unconnected-(U1-Pad14)*%
X107950000Y-54610000D03*
%TO.P,U1,15,ADDR*%
%TO.N,+3V3*%
X107950000Y-46990000D03*
%TO.P,U1,16,RESET*%
X105410000Y-46990000D03*
%TO.P,U1,20,GPA0*%
%TO.N,/COL0*%
X95250000Y-46990000D03*
%TO.P,U1,21,GPA1*%
%TO.N,/COL1*%
X92710000Y-46990000D03*
%TO.P,U1,22,GPA2*%
%TO.N,/COL2*%
X90170000Y-46990000D03*
%TO.P,U1,23,GPA3*%
%TO.N,/COL3*%
X87630000Y-46990000D03*
%TO.P,U1,24,GPA4*%
%TO.N,/COL4*%
X85090000Y-46990000D03*
%TO.P,U1,25,GPA5*%
%TO.N,/LED_C*%
X82550000Y-46990000D03*
%TO.P,U1,26,GPA6*%
%TO.N,/LED_B*%
X80010000Y-46990000D03*
%TO.P,U1,27,GPA7*%
%TO.N,/LED_A*%
X77470000Y-46990000D03*
%TO.P,U1,28,NC*%
%TO.N,unconnected-(U1-Pad28)*%
X74930000Y-46990000D03*
%TD*%
D46*
%TO.P,J4,1,Pin_1*%
%TO.N,Net-(D5-Pad2)*%
X202184000Y-75438000D03*
D47*
%TO.P,J4,2,Pin_2*%
%TO.N,GND*%
X202184000Y-77438000D03*
%TD*%
D34*
%TO.P,JP13,1,A*%
%TO.N,/OLED_P4*%
X76693000Y-43561000D03*
D35*
%TO.P,JP13,2,B*%
%TO.N,GND*%
X77993000Y-43561000D03*
%TD*%
D53*
%TO.P,BAT_SW1,*%
%TO.N,*%
X118423000Y-34798000D03*
X126623000Y-34798000D03*
D54*
%TO.P,BAT_SW1,1,A*%
%TO.N,Net-(BAT_SW1-Pad1)*%
X120523000Y-34798000D03*
D55*
%TO.P,BAT_SW1,2,B*%
%TO.N,Net-(BAT_SW1-Pad2)*%
X122523000Y-34798000D03*
%TO.P,BAT_SW1,3,C*%
%TO.N,Net-(BAT_SW1-Pad3)*%
X124523000Y-34798000D03*
%TD*%
D34*
%TO.P,JP5,1,A*%
%TO.N,Net-(JP3-Pad2)*%
X201534000Y-36576000D03*
D35*
%TO.P,JP5,2,B*%
%TO.N,Net-(D3-Pad4)*%
X202834000Y-36576000D03*
%TD*%
D39*
%TO.P,JP15,1,A*%
%TO.N,/D_IN_RIGHT+*%
X130444000Y-39116000D03*
D40*
%TO.P,JP15,2,B*%
%TO.N,/D_IN+*%
X129144000Y-39116000D03*
%TD*%
D34*
%TO.P,JP19,1,A*%
%TO.N,Net-(BAT_SW1-Pad1)*%
X140574000Y-41656000D03*
D35*
%TO.P,JP19,2,B*%
%TO.N,Net-(J3-Pad1)*%
X141874000Y-41656000D03*
%TD*%
D41*
%TO.P,J3,1,Pin_1*%
%TO.N,Net-(J3-Pad1)*%
X148737000Y-47579000D03*
D42*
%TO.P,J3,2,Pin_2*%
%TO.N,Net-(J2-Pad2)*%
X151237000Y-47579000D03*
%TD*%
D13*
%TO.P,R3,1*%
%TO.N,Net-(Q1-Pad3)*%
X77911475Y-107188000D03*
%TO.P,R3,2*%
%TO.N,Net-(J5-Pad1)*%
X67751477Y-107188000D03*
%TD*%
D28*
%TO.P,A2,1,~{RESET}*%
%TO.N,/Reset_SW*%
X160909000Y-33782000D03*
D32*
%TO.P,A2,2,3V3*%
%TO.N,+3V3*%
X163449000Y-33782000D03*
%TO.P,A2,3,AREF*%
%TO.N,unconnected-(A2-Pad3)*%
X165989000Y-33782000D03*
%TO.P,A2,4,GND*%
%TO.N,GND*%
X168529000Y-33782000D03*
%TO.P,A2,5,A0*%
%TO.N,/EncoderPin1*%
X171069000Y-33782000D03*
%TO.P,A2,6,A1*%
%TO.N,/EncoderPin2*%
X173609000Y-33782000D03*
%TO.P,A2,7,A2*%
%TO.N,/EncoderClick*%
X176149000Y-33782000D03*
%TO.P,A2,8,A3*%
%TO.N,/Haptic_motor*%
X178689000Y-33782000D03*
%TO.P,A2,9,A4*%
%TO.N,unconnected-(A2-Pad9)*%
X181229000Y-33782000D03*
%TO.P,A2,10,A5*%
%TO.N,unconnected-(A2-Pad10)*%
X183769000Y-33782000D03*
%TO.P,A2,11,SCK/D15*%
%TO.N,unconnected-(A2-Pad11)*%
X186309000Y-33782000D03*
%TO.P,A2,12,MOSI/D16*%
%TO.N,unconnected-(A2-Pad12)*%
X188849000Y-33782000D03*
%TO.P,A2,13,MISO/D14*%
%TO.N,unconnected-(A2-Pad13)*%
X191389000Y-33782000D03*
%TO.P,A2,14,RX/D0*%
%TO.N,unconnected-(A2-Pad14)*%
X193929000Y-33782000D03*
%TO.P,A2,15,TX/D1*%
%TO.N,unconnected-(A2-Pad15)*%
X196469000Y-33782000D03*
%TO.P,A2,16,~{DFU}*%
%TO.N,unconnected-(A2-Pad16)*%
X199009000Y-33782000D03*
%TO.P,A2,17,SDA/D2*%
%TO.N,/SDA*%
X199009000Y-54102000D03*
%TO.P,A2,18,SCL/D3*%
%TO.N,/SCL*%
X196469000Y-54102000D03*
%TO.P,A2,19,D5*%
%TO.N,unconnected-(A2-Pad19)*%
X193929000Y-54102000D03*
%TO.P,A2,20,D6*%
%TO.N,unconnected-(A2-Pad20)*%
X191389000Y-54102000D03*
%TO.P,A2,21,D9*%
%TO.N,unconnected-(A2-Pad21)*%
X188849000Y-54102000D03*
%TO.P,A2,22,D10*%
%TO.N,unconnected-(A2-Pad22)*%
X186309000Y-54102000D03*
%TO.P,A2,23,D11*%
%TO.N,unconnected-(A2-Pad23)*%
X183769000Y-54102000D03*
%TO.P,A2,24,D12*%
%TO.N,unconnected-(A2-Pad24)*%
X181229000Y-54102000D03*
%TO.P,A2,25,D13*%
%TO.N,unconnected-(A2-Pad25)*%
X178689000Y-54102000D03*
%TO.P,A2,26,USB*%
%TO.N,/WirelessCharger*%
X176149000Y-54102000D03*
%TO.P,A2,27,EN*%
%TO.N,unconnected-(A2-Pad27)*%
X173609000Y-54102000D03*
%TO.P,A2,28,VBAT*%
%TO.N,unconnected-(A2-Pad28)*%
X171069000Y-54102000D03*
%TD*%
D56*
%TO.N,/SDA*%
X197485000Y-44831000D03*
X115570000Y-49530000D03*
%TO.N,/COL4*%
X116970421Y-121412000D03*
X53975000Y-162433000D03*
%TO.N,/COL5*%
X97155000Y-110744000D03*
X99822000Y-111612900D03*
X97536000Y-66548000D03*
%TO.N,/COL6*%
X56463701Y-143489239D03*
X64389000Y-137287000D03*
X42037000Y-145288000D03*
X73152000Y-131191000D03*
%TO.N,/ROW1*%
X100584000Y-110236000D03*
X99568000Y-107188000D03*
X101727000Y-127127000D03*
%TO.N,/ROW2*%
X83312000Y-93980000D03*
X83169300Y-79400720D03*
X85344000Y-112776000D03*
%TO.N,/ROW4*%
X102339349Y-76050349D03*
X97409000Y-76835000D03*
X111282689Y-76050349D03*
%TO.N,/ROW5*%
X167170261Y-70827900D03*
X156591000Y-70866000D03*
%TO.N,GND*%
X80180240Y-39390100D03*
X139446000Y-38100000D03*
X118054331Y-37520669D03*
X122052500Y-40259000D03*
X80899000Y-35814000D03*
X200660000Y-52070000D03*
X157988000Y-55880000D03*
X137922000Y-43037380D03*
X79121000Y-133350000D03*
X67056000Y-48768000D03*
X76057000Y-130286000D03*
X120269000Y-40386000D03*
X79367169Y-43060831D03*
X115621421Y-47827577D03*
%TO.N,Net-(LED_C1-Pad1)*%
X107696000Y-48768000D03*
X101600000Y-43540900D03*
%TO.N,+3V3*%
X82140211Y-42601202D03*
X157734000Y-54229000D03*
X124975831Y-46669900D03*
X142621000Y-46228000D03*
X88463839Y-43289336D03*
X149860000Y-50800000D03*
%TO.N,/EncoderPin1*%
X177138720Y-109955720D03*
X177546000Y-107696000D03*
%TO.N,/EncoderPin2*%
X178549498Y-109334498D03*
X178689000Y-106680000D03*
%TO.N,/Haptic_motor*%
X80645000Y-123317000D03*
X172593000Y-116332000D03*
X81407000Y-115316000D03*
X96266000Y-113665000D03*
%TO.N,/D_IN+*%
X126591760Y-39870060D03*
%TO.N,+5V*%
X143383000Y-37363900D03*
X126679440Y-40960560D03*
X126619000Y-42545000D03*
X124327500Y-40259000D03*
X132378393Y-42729604D03*
X147447000Y-39497000D03*
X70141000Y-44120000D03*
X72415100Y-49400775D03*
X199234390Y-45136000D03*
X108814100Y-44958000D03*
X204126000Y-39421000D03*
%TO.N,Net-(D1-Pad2)*%
X70141000Y-47320000D03*
%TO.N,/SDA*%
X84895439Y-43962100D03*
X80264000Y-34671000D03*
X85598000Y-42143900D03*
X105156000Y-50298760D03*
X109601000Y-50419000D03*
%TO.N,/SCL*%
X102616000Y-49672331D03*
X97028000Y-44863380D03*
X152724177Y-55779760D03*
X196469000Y-45974000D03*
X78486000Y-39751000D03*
X110998000Y-42164000D03*
X116586000Y-45085000D03*
X85471000Y-37338000D03*
X110355169Y-48379169D03*
X95631000Y-39751000D03*
%TO.N,/COL3*%
X140208000Y-131699000D03*
%TO.N,/Underglow DIN*%
X119253000Y-43942000D03*
X85344000Y-34056100D03*
X91567000Y-37338000D03*
X109220000Y-38862000D03*
X68214000Y-35433000D03*
X155829000Y-44577000D03*
X178689000Y-44337789D03*
%TO.N,Net-(D1-Pad4)*%
X65241000Y-44120000D03*
%TO.N,Net-(D2-Pad4)*%
X70141000Y-49200000D03*
%TO.N,/D_IN-*%
X125476000Y-42164000D03*
%TO.N,/D+*%
X122301000Y-42545000D03*
X144272000Y-42799000D03*
%TO.N,Net-(BAT_SW1-Pad3)*%
X130899729Y-36476159D03*
X137441193Y-40406111D03*
X134747000Y-39116000D03*
%TO.N,/D-*%
X121560337Y-43011563D03*
X144399000Y-44196000D03*
X120015000Y-41402000D03*
%TO.N,Net-(D2-Pad2)*%
X68733780Y-47100089D03*
X68305900Y-52217095D03*
X68453000Y-50292000D03*
%TO.N,Net-(D3-Pad4)*%
X199226000Y-39421000D03*
%TO.N,/WirelessCharger*%
X176149000Y-50800000D03*
X203581000Y-53086000D03*
%TO.N,Net-(D4-Pad4)*%
X202692000Y-45212000D03*
%TO.N,Net-(JP3-Pad2)*%
X68214000Y-39243000D03*
X201534000Y-36576000D03*
%TO.N,Net-(BAT_SW1-Pad1)*%
X133323772Y-40285228D03*
%TO.N,/D_IN_RIGHT+*%
X137053095Y-38587900D03*
X130444000Y-39116000D03*
%TO.N,/D_IN_RIGHT-*%
X130444000Y-41529000D03*
%TO.N,Net-(J3-Pad1)*%
X141874000Y-41656000D03*
%TO.N,Net-(Q1-Pad3)*%
X81915000Y-112981449D03*
X81915000Y-123317000D03*
%TD*%
D57*
%TO.N,/SDA*%
X197485000Y-38500500D02*
X197485000Y-44831000D01*
X197485000Y-44831000D02*
X197485000Y-52578000D01*
X112014000Y-48006000D02*
X113538000Y-49530000D01*
X112014000Y-48006000D02*
X114717102Y-45302898D01*
X113538000Y-49530000D02*
X115570000Y-49530000D01*
X109601000Y-50419000D02*
X112014000Y-48006000D01*
%TO.N,Net-(SW5:13-Pad2)*%
X187602500Y-64505200D02*
X187642500Y-64465200D01*
X184152500Y-64505200D02*
X187602500Y-64505200D01*
%TO.N,/ROW2*%
X195520700Y-116870860D02*
X197602500Y-118952660D01*
X175871800Y-116870860D02*
X195520700Y-116870860D01*
X173790000Y-118952660D02*
X175871800Y-116870860D01*
X194112500Y-118952660D02*
X193992500Y-119072660D01*
X197602500Y-118952660D02*
X194112500Y-118952660D01*
%TO.N,Net-(SW2:13-Pad2)*%
X187602500Y-121652660D02*
X187642500Y-121612660D01*
X184152500Y-121652660D02*
X187602500Y-121652660D01*
%TO.N,Net-(SW4:13-Pad2)*%
X187602500Y-83552660D02*
X187642500Y-83512660D01*
X184152500Y-83552660D02*
X187602500Y-83552660D01*
%TO.N,/ROW4*%
X194112500Y-80852660D02*
X193992500Y-80972660D01*
X197602500Y-80852660D02*
X194112500Y-80852660D01*
%TO.N,/ROW5*%
X194112500Y-61805200D02*
X193992500Y-61925200D01*
X197602500Y-61805200D02*
X194112500Y-61805200D01*
%TO.N,/COL0*%
X199309300Y-78672000D02*
X195783355Y-75146055D01*
X199309300Y-87085860D02*
X199309300Y-78672000D01*
X198755000Y-87640160D02*
X199309300Y-87085860D01*
X199309300Y-116769460D02*
X195783355Y-113243515D01*
X199309300Y-125185860D02*
X199309300Y-116769460D01*
X195262500Y-129232660D02*
X199309300Y-125185860D01*
X199898000Y-88783160D02*
X198755000Y-87640160D01*
X199898000Y-105547160D02*
X199898000Y-88783160D01*
X198755000Y-106690160D02*
X199898000Y-105547160D01*
%TO.N,Net-(SW3:13-Pad2)*%
X187602500Y-102602660D02*
X187642500Y-102562660D01*
X184152500Y-102602660D02*
X187602500Y-102602660D01*
%TO.N,/COL0*%
X195262500Y-91132660D02*
X198755000Y-87640160D01*
X195262500Y-110182660D02*
X195262500Y-112722660D01*
X195262500Y-110182660D02*
X198755000Y-106690160D01*
X195262500Y-72085200D02*
X195262500Y-74625200D01*
X195262500Y-129232660D02*
X195262500Y-131772660D01*
X195262500Y-91132660D02*
X195262500Y-93672660D01*
X190500000Y-148282660D02*
X190500000Y-150822660D01*
%TO.N,/COL1*%
X171450000Y-72085200D02*
X175496800Y-76132000D01*
X91925256Y-168452301D02*
X104802557Y-155575000D01*
X115252500Y-155575000D02*
X120332500Y-150495000D01*
X171450000Y-91132660D02*
X171450000Y-93672660D01*
X176987699Y-95590859D02*
X172529500Y-91132660D01*
X169994580Y-146372580D02*
X173360080Y-146372580D01*
X66501897Y-180794660D02*
X67795256Y-179501301D01*
X74618709Y-174979603D02*
X78694510Y-174979603D01*
X89194276Y-170067836D02*
X90809811Y-168452301D01*
X67795256Y-179501301D02*
X69307456Y-179501301D01*
X175496800Y-87012200D02*
X171450000Y-91059000D01*
X175496800Y-136380800D02*
X171831000Y-132715000D01*
X171450000Y-129232660D02*
X171450000Y-131772660D01*
X161919920Y-146372580D02*
X169994580Y-146372580D01*
X175496800Y-142162375D02*
X175496800Y-136380800D01*
X56400700Y-180794660D02*
X66501897Y-180794660D01*
X73628118Y-175970195D02*
X74618709Y-174979603D01*
X171286595Y-146372580D02*
X175496800Y-142162375D01*
X172529500Y-91132660D02*
X171450000Y-91132660D01*
X171450000Y-91059000D02*
X171450000Y-91132660D01*
X176860699Y-105851461D02*
X176860699Y-102511745D01*
X176987699Y-102384745D02*
X176987699Y-95590859D01*
X169994580Y-146372580D02*
X171286595Y-146372580D01*
X172529500Y-110182660D02*
X176860699Y-105851461D01*
X90809811Y-168452301D02*
X91925256Y-168452301D01*
X72838562Y-175970195D02*
X73628118Y-175970195D01*
X78694510Y-174979603D02*
X83606277Y-170067836D01*
X171450000Y-110182660D02*
X171450000Y-112722660D01*
X176860699Y-102511745D02*
X176987699Y-102384745D01*
X104802557Y-155575000D02*
X115252500Y-155575000D01*
X157797500Y-150495000D02*
X161919920Y-146372580D01*
X175496800Y-76132000D02*
X175496800Y-87012200D01*
X171450000Y-110182660D02*
X172529500Y-110182660D01*
X171450000Y-148282660D02*
X171450000Y-150822660D01*
X171450000Y-148282660D02*
X173360080Y-146372580D01*
X171450000Y-72072500D02*
X171450000Y-74625200D01*
X120332500Y-150495000D02*
X157797500Y-150495000D01*
X69307456Y-179501301D02*
X72838562Y-175970195D01*
X83606277Y-170067836D02*
X89194276Y-170067836D01*
%TO.N,/COL4*%
X48348133Y-163526948D02*
X49421584Y-164600399D01*
X61766669Y-178943000D02*
X56291793Y-173468124D01*
X135847901Y-118871386D02*
X135847901Y-119888614D01*
X114300000Y-127311971D02*
X114942845Y-127954816D01*
X119888000Y-101419660D02*
X119888000Y-93545660D01*
X135847901Y-119888614D02*
X133985614Y-121750901D01*
X114300000Y-145107660D02*
X114300000Y-146911560D01*
X115004029Y-89916000D02*
X114942844Y-89854815D01*
X137396800Y-112498200D02*
X137396800Y-117322487D01*
X83375021Y-169509535D02*
X78722204Y-174162352D01*
X114300000Y-107007660D02*
X118832239Y-111539899D01*
X114300000Y-68907660D02*
X116970421Y-71578081D01*
X69076200Y-178943000D02*
X61766669Y-178943000D01*
X72607306Y-175411894D02*
X69076200Y-178943000D01*
X114300000Y-145107660D02*
X115036600Y-145844260D01*
X119888000Y-76327000D02*
X119888000Y-84582000D01*
X114300000Y-108261971D02*
X114942845Y-108904816D01*
X91694000Y-167894000D02*
X87675273Y-167894000D01*
X115036600Y-145844260D02*
X115036600Y-153441400D01*
X87675273Y-167894000D02*
X86059738Y-169509535D01*
X115914170Y-89571830D02*
X115570000Y-89916000D01*
X114300000Y-107007660D02*
X119888000Y-101419660D01*
X136438499Y-111539899D02*
X137396800Y-112498200D01*
X119182761Y-85287239D02*
X116970421Y-85287239D01*
X97218500Y-162369500D02*
X91694000Y-167894000D01*
X119888000Y-84582000D02*
X119182761Y-85287239D01*
X56291793Y-173468124D02*
X56291793Y-164749793D01*
X115570000Y-89916000D02*
X115004029Y-89916000D01*
X114300000Y-107007660D02*
X114300000Y-108261971D01*
X56291793Y-164749793D02*
X53975000Y-162433000D01*
X116970421Y-73409421D02*
X119888000Y-76327000D01*
X49421584Y-164600399D02*
X49421584Y-165045629D01*
X116970421Y-85287239D02*
X114300000Y-87957660D01*
X114300000Y-87957660D02*
X115914170Y-89571830D01*
X117309322Y-121750901D02*
X116970421Y-121412000D01*
X104775000Y-154813000D02*
X97218500Y-162369500D01*
X78722204Y-174162352D02*
X74646404Y-174162352D01*
X114300000Y-126057660D02*
X114300000Y-127311971D01*
X133985614Y-121750901D02*
X117309322Y-121750901D01*
X74646404Y-174162352D02*
X73396862Y-175411894D01*
X113665000Y-154813000D02*
X104775000Y-154813000D01*
X119888000Y-93545660D02*
X115914170Y-89571830D01*
X115036600Y-153441400D02*
X113665000Y-154813000D01*
X118832239Y-111539899D02*
X136438499Y-111539899D01*
X86059738Y-169509535D02*
X83375021Y-169509535D01*
X116970421Y-71578081D02*
X116970421Y-73409421D01*
X73396862Y-175411894D02*
X72607306Y-175411894D01*
X137396800Y-117322487D02*
X135847901Y-118871386D01*
%TO.N,/COL5*%
X99441000Y-93418660D02*
X99441000Y-104086660D01*
X72159810Y-166373398D02*
X70938503Y-167594705D01*
X70938503Y-167594705D02*
X70938503Y-172396450D01*
X78105000Y-138084147D02*
X78105000Y-136525000D01*
X84717015Y-167376434D02*
X85176179Y-167376434D01*
X89857783Y-165151973D02*
X89780223Y-165229533D01*
X67450095Y-175425694D02*
X67909259Y-175425694D01*
X89857783Y-162390786D02*
X89857783Y-165151973D01*
X75614218Y-135304218D02*
X79346436Y-131572000D01*
X95250000Y-89227660D02*
X99441000Y-93418660D01*
X57563253Y-138213308D02*
X60472343Y-135304218D01*
X77893785Y-138754526D02*
X77434621Y-138754526D01*
X89662000Y-131572000D02*
X90805000Y-130429000D01*
X98171000Y-124406660D02*
X95250000Y-127327660D01*
X97053400Y-71983600D02*
X95250000Y-70180200D01*
X95250000Y-90481971D02*
X95892845Y-91124816D01*
X60472343Y-135304218D02*
X75614218Y-135304218D01*
X96159120Y-72343631D02*
X95892844Y-72077355D01*
X97053400Y-71983600D02*
X96693369Y-72343631D01*
X95250000Y-89227660D02*
X99441000Y-85036660D01*
X99441000Y-104086660D02*
X95250000Y-108277660D01*
X75491283Y-166373398D02*
X72159810Y-166373398D01*
X96266000Y-130302000D02*
X96101349Y-130302000D01*
X95250000Y-108839000D02*
X97155000Y-110744000D01*
X95250000Y-89227660D02*
X95250000Y-90481971D01*
X79659082Y-140519823D02*
X77893785Y-138754526D01*
X98478340Y-124406660D02*
X99822000Y-123063000D01*
X96693369Y-72343631D02*
X96159120Y-72343631D01*
X90805000Y-130429000D02*
X93906340Y-127327660D01*
X90805000Y-130429000D02*
X91948000Y-130429000D01*
X93906340Y-127327660D02*
X95250000Y-127327660D01*
X93091000Y-131572000D02*
X94831349Y-131572000D01*
X99441000Y-85036660D02*
X99441000Y-74371200D01*
X99314000Y-64770000D02*
X97536000Y-66548000D01*
X98171000Y-124406660D02*
X98478340Y-124406660D01*
X70938503Y-172396450D02*
X67909259Y-175425694D01*
X75614218Y-135304218D02*
X76671729Y-135304218D01*
X94831349Y-131572000D02*
X95892845Y-130510504D01*
X77977584Y-168859699D02*
X75491283Y-166373398D01*
X97790000Y-54610000D02*
X97790000Y-56521776D01*
X96266000Y-128343660D02*
X96266000Y-130302000D01*
X95250000Y-108277660D02*
X95250000Y-109531971D01*
X82076468Y-168859699D02*
X77977584Y-168859699D01*
X79346436Y-131572000D02*
X89662000Y-131572000D01*
X97790000Y-56521776D02*
X99314000Y-58045776D01*
X99314000Y-58045776D02*
X99314000Y-64770000D01*
X95250000Y-127327660D02*
X96266000Y-128343660D01*
X91948000Y-130429000D02*
X93091000Y-131572000D01*
X65684798Y-173660397D02*
X67450095Y-175425694D01*
X85176179Y-167376434D02*
X83559733Y-167376434D01*
X99822000Y-123063000D02*
X99822000Y-111633000D01*
X77434621Y-138754526D02*
X78105000Y-138084147D01*
X82951718Y-165611137D02*
X84717015Y-167376434D01*
X96101349Y-130302000D02*
X95892844Y-130510505D01*
X83559733Y-167376434D02*
X82076468Y-168859699D01*
X57563253Y-138213308D02*
X58947643Y-139597698D01*
X95250000Y-109531971D02*
X95892845Y-110174816D01*
X99441000Y-74371200D02*
X97053400Y-71983600D01*
%TO.N,/COL6*%
X60247433Y-141428567D02*
X59866433Y-141428567D01*
X40298873Y-146262568D02*
X41683263Y-147646958D01*
X77470000Y-113675160D02*
X78724311Y-113675160D01*
X76040189Y-113670849D02*
X74414689Y-112045349D01*
X77470000Y-113675160D02*
X76044500Y-113675160D01*
X78994000Y-91059000D02*
X78994000Y-86624160D01*
X78613000Y-91440000D02*
X78994000Y-91059000D01*
X74414689Y-108655811D02*
X75565000Y-107505500D01*
X75498699Y-114212339D02*
X75498699Y-128844301D01*
X76200000Y-71679170D02*
X76720515Y-72199685D01*
X76040189Y-113670849D02*
X75498699Y-114212339D01*
X79489485Y-72390185D02*
X79489485Y-84579645D01*
X75565000Y-92329000D02*
X76454000Y-91440000D01*
X76044500Y-113675160D02*
X76040189Y-113670849D01*
X64389000Y-137287000D02*
X60247433Y-141428567D01*
X78994000Y-86624160D02*
X77470000Y-85100160D01*
X41062432Y-146262568D02*
X42037000Y-145288000D01*
X77279500Y-70180200D02*
X79489485Y-72390185D01*
X76200000Y-70180200D02*
X77279500Y-70180200D01*
X78724311Y-113675160D02*
X79367156Y-113032315D01*
X76200000Y-70180200D02*
X76200000Y-71679170D01*
X75498699Y-128844301D02*
X73152000Y-131191000D01*
X74414689Y-112045349D02*
X74414689Y-108655811D01*
X75565000Y-107505500D02*
X75565000Y-92329000D01*
X59866433Y-141428567D02*
X57805761Y-143489239D01*
X78724311Y-85100160D02*
X79367156Y-84457315D01*
X77470000Y-85100160D02*
X78724311Y-85100160D01*
X57805761Y-143489239D02*
X56463701Y-143489239D01*
X76454000Y-91440000D02*
X78613000Y-91440000D01*
%TO.N,/LED_A*%
X83049311Y-41020787D02*
X85462098Y-38608000D01*
X90035724Y-34507898D02*
X97572102Y-34507898D01*
X83049311Y-42977780D02*
X83049311Y-41020787D01*
X77470000Y-46121111D02*
X78784988Y-46121111D01*
X82516778Y-43510313D02*
X83049311Y-42977780D01*
X80441687Y-43510313D02*
X82516778Y-43510313D01*
X85462098Y-38608000D02*
X85935622Y-38608000D01*
X79396710Y-44555290D02*
X80441687Y-43510313D01*
X79396710Y-45509389D02*
X79396710Y-44555290D01*
X77470000Y-46990000D02*
X77470000Y-46121111D01*
X78784988Y-46121111D02*
X79396710Y-45509389D01*
X85935622Y-38608000D02*
X90035724Y-34507898D01*
D58*
%TO.N,/LED_B*%
X83650790Y-44414633D02*
X82585367Y-44414633D01*
X87312733Y-40640000D02*
X84709000Y-40640000D01*
X96454363Y-35412218D02*
X90825782Y-35412218D01*
X84709000Y-40640000D02*
X83986339Y-41362661D01*
X90825782Y-35412218D02*
X89408000Y-36830000D01*
X101382102Y-35142898D02*
X100587291Y-35937709D01*
X100587291Y-35937709D02*
X96979854Y-35937709D01*
X89344733Y-38608000D02*
X87312733Y-40640000D01*
X82585367Y-44414633D02*
X80010000Y-46990000D01*
X96979854Y-35937709D02*
X96454363Y-35412218D01*
X89408000Y-38608000D02*
X89344733Y-38608000D01*
X83986339Y-41362661D02*
X83986339Y-44079084D01*
X89408000Y-36830000D02*
X89408000Y-38608000D01*
X83986339Y-44079084D02*
X83650790Y-44414633D01*
%TO.N,/LED_C*%
X84476710Y-45509389D02*
X85935611Y-45509389D01*
X96605273Y-36842029D02*
X104127971Y-36842029D01*
X82550000Y-46990000D02*
X83609389Y-46990000D01*
X104127971Y-36842029D02*
X105827102Y-35142898D01*
X96079781Y-36316538D02*
X96605273Y-36842029D01*
X85935611Y-45509389D02*
X87685661Y-43759339D01*
X83609389Y-46990000D02*
X83609389Y-46376710D01*
X87750581Y-41544320D02*
X90312320Y-38982581D01*
X87482889Y-43556567D02*
X87482889Y-41544320D01*
X90312320Y-38982581D02*
X90312320Y-37204582D01*
X87482889Y-41544320D02*
X87750581Y-41544320D01*
X91200364Y-36316538D02*
X96079781Y-36316538D01*
X87685661Y-43759339D02*
X87482889Y-43556567D01*
X83609389Y-46376710D02*
X84476710Y-45509389D01*
X90312320Y-37204582D02*
X91200364Y-36316538D01*
D57*
%TO.N,/ROW0*%
X56726577Y-159327750D02*
X58360986Y-160962159D01*
X49022000Y-127889000D02*
X46142915Y-127889000D01*
X55339498Y-127907537D02*
X53752850Y-127907537D01*
X44537730Y-153221177D02*
X42903321Y-154855586D01*
X56726577Y-157741102D02*
X56726577Y-159327750D01*
X46124378Y-153221177D02*
X51907201Y-159004000D01*
X53752850Y-127907537D02*
X52118441Y-129541946D01*
X51907201Y-159004000D02*
X51907201Y-161762201D01*
X46142915Y-127889000D02*
X38075118Y-135956797D01*
X73990957Y-151275950D02*
X75625366Y-152910359D01*
X36488470Y-135956797D02*
X34854061Y-137591206D01*
X54176178Y-164031178D02*
X54176178Y-170488097D01*
X53170099Y-157741102D02*
X56726577Y-157741102D01*
X54176178Y-170488097D02*
X52589530Y-170488097D01*
X38075118Y-135956797D02*
X36488470Y-135956797D01*
X50292000Y-126619000D02*
X49022000Y-127889000D01*
X51907201Y-159004000D02*
X53170099Y-157741102D01*
X46124378Y-153221177D02*
X44537730Y-153221177D01*
X52118441Y-129541946D02*
X53883738Y-131307243D01*
X51907201Y-161762201D02*
X54176178Y-164031178D01*
X54050961Y-126619000D02*
X50292000Y-126619000D01*
X35313225Y-137591206D02*
X37078522Y-139356503D01*
X73990957Y-149689302D02*
X73990957Y-151275950D01*
X38075118Y-135956797D02*
X46124378Y-144006057D01*
X52589530Y-170488097D02*
X50955121Y-172122506D01*
X55339498Y-127907537D02*
X54050961Y-126619000D01*
X46124378Y-144006057D02*
X46124378Y-153221177D01*
%TO.N,/ROW1*%
X113030000Y-134947660D02*
X114830000Y-133147660D01*
X126149758Y-131064000D02*
X129794000Y-131064000D01*
X124066098Y-133147660D02*
X126149758Y-131064000D01*
X101219000Y-110871000D02*
X101219000Y-125603000D01*
X100584000Y-110236000D02*
X101219000Y-110871000D01*
X113150000Y-134827660D02*
X113030000Y-134947660D01*
X151250000Y-134827660D02*
X151130000Y-134947660D01*
X99568000Y-107188000D02*
X100406369Y-106349631D01*
X170300000Y-138002660D02*
X170180000Y-138122660D01*
X91038889Y-58551433D02*
X91571433Y-58018889D01*
X132200000Y-133230000D02*
X132080000Y-133350000D01*
X91571433Y-58018889D02*
X91571433Y-56011433D01*
X173790000Y-138002660D02*
X170300000Y-138002660D01*
X91038889Y-61102147D02*
X91038889Y-58551433D01*
X135690000Y-133230000D02*
X132200000Y-133230000D01*
X101219000Y-126619000D02*
X101727000Y-127127000D01*
X129794000Y-131064000D02*
X132080000Y-133350000D01*
X116640000Y-134827660D02*
X113150000Y-134827660D01*
X189350000Y-138002660D02*
X189230000Y-138122660D01*
X95119579Y-65680274D02*
X95119579Y-65182837D01*
X100406369Y-106349631D02*
X100406369Y-70967064D01*
X101219000Y-125603000D02*
X101219000Y-126619000D01*
X114830000Y-133147660D02*
X124066098Y-133147660D01*
X100406369Y-70967064D02*
X95119579Y-65680274D01*
X91571433Y-56011433D02*
X90170000Y-54610000D01*
X95119579Y-65182837D02*
X91038889Y-61102147D01*
X192840000Y-138002660D02*
X189350000Y-138002660D01*
X154740000Y-134827660D02*
X151250000Y-134827660D01*
%TO.N,/ROW2*%
X173790000Y-118952660D02*
X170300000Y-118952660D01*
X151250000Y-115777660D02*
X151130000Y-115897660D01*
X132200000Y-114180000D02*
X132080000Y-114300000D01*
X84836000Y-60740600D02*
X82255400Y-60740600D01*
X85344000Y-110553719D02*
X82931000Y-108140719D01*
X82255400Y-64459800D02*
X84836000Y-64459800D01*
X82931000Y-103172282D02*
X82260689Y-102501971D01*
X84836000Y-57404000D02*
X84836000Y-60740600D01*
X135690000Y-114180000D02*
X132200000Y-114180000D01*
X116640000Y-115777660D02*
X120319460Y-112098200D01*
X87630000Y-54610000D02*
X84836000Y-57404000D01*
X67310000Y-114945160D02*
X67310000Y-111505160D01*
X120319460Y-112098200D02*
X129878200Y-112098200D01*
X82931000Y-108140719D02*
X82931000Y-103172282D01*
X85344000Y-112776000D02*
X85344000Y-110553719D01*
X82260689Y-98793349D02*
X82931000Y-98123038D01*
X113030000Y-115897660D02*
X115946101Y-115897660D01*
X84836000Y-77734020D02*
X83169300Y-79400720D01*
X82931000Y-98123038D02*
X82931000Y-94361000D01*
X93980000Y-117167660D02*
X97420000Y-117167660D01*
X82260689Y-102501971D02*
X82260689Y-98793349D01*
X82255400Y-60740600D02*
X82255400Y-64459800D01*
X84836000Y-64459800D02*
X84836000Y-77734020D01*
X170300000Y-118952660D02*
X170180000Y-119072660D01*
X154740000Y-115777660D02*
X151250000Y-115777660D01*
X129878200Y-112098200D02*
X132080000Y-114300000D01*
X82931000Y-94361000D02*
X83312000Y-93980000D01*
%TO.N,/ROW3*%
X97470000Y-98117660D02*
X97590000Y-97997660D01*
X85344000Y-90043000D02*
X85344000Y-91259751D01*
X91112340Y-95250000D02*
X93980000Y-98117660D01*
X82433200Y-57266800D02*
X82433200Y-60182299D01*
X151250000Y-96727660D02*
X151130000Y-96847660D01*
X89334249Y-95250000D02*
X91112340Y-95250000D01*
X81697099Y-60509344D02*
X81697099Y-64691056D01*
X81697099Y-64691056D02*
X82024144Y-65018101D01*
X82433200Y-87132200D02*
X85344000Y-90043000D01*
X85344000Y-91259751D02*
X89334249Y-95250000D01*
X82433200Y-65018101D02*
X82433200Y-87132200D01*
X93980000Y-98117660D02*
X97470000Y-98117660D01*
X82433200Y-60182299D02*
X82024144Y-60182299D01*
X170180000Y-100022660D02*
X173620000Y-100022660D01*
X132200000Y-95130000D02*
X132080000Y-95250000D01*
X82024144Y-60182299D02*
X81697099Y-60509344D01*
X154740000Y-96727660D02*
X151250000Y-96727660D01*
X135690000Y-95130000D02*
X132200000Y-95130000D01*
X85090000Y-54610000D02*
X82433200Y-57266800D01*
X82024144Y-65018101D02*
X82433200Y-65018101D01*
%TO.N,/ROW4*%
X97409000Y-76835000D02*
X97409000Y-78816660D01*
X103265651Y-75423349D02*
X105932651Y-75423349D01*
X105932651Y-75423349D02*
X106172000Y-75184000D01*
X113150000Y-77677660D02*
X113030000Y-77797660D01*
X151130000Y-77797660D02*
X154046101Y-77797660D01*
X102339349Y-76050349D02*
X102638651Y-76050349D01*
X170180000Y-80972660D02*
X173620000Y-80972660D01*
X93980000Y-79067660D02*
X96896101Y-79067660D01*
X116640000Y-77677660D02*
X113150000Y-77677660D01*
X106172000Y-75184000D02*
X110416340Y-75184000D01*
X102638651Y-76050349D02*
X103265651Y-75423349D01*
X132080000Y-76200000D02*
X134996101Y-76200000D01*
X110416340Y-75184000D02*
X111282689Y-76050349D01*
X67310000Y-86370160D02*
X67310000Y-82930160D01*
%TO.N,/ROW5*%
X195262500Y-63195200D02*
X195262500Y-64465200D01*
X113150000Y-58627660D02*
X113030000Y-58747660D01*
X78950611Y-55223290D02*
X78950611Y-54610000D01*
X78950611Y-54610000D02*
X80010000Y-54610000D01*
X151250000Y-58627660D02*
X151130000Y-58747660D01*
X78083290Y-56090611D02*
X78950611Y-55223290D01*
X96055800Y-59900200D02*
X97590000Y-59900200D01*
X116640000Y-58627660D02*
X113150000Y-58627660D01*
X93980000Y-60020200D02*
X95935800Y-60020200D01*
X132200000Y-57030000D02*
X132080000Y-57150000D01*
X167170261Y-75133039D02*
X167170261Y-70827900D01*
X154740000Y-58627660D02*
X151250000Y-58627660D01*
X77089000Y-56090611D02*
X78083290Y-56090611D01*
X77089000Y-58499200D02*
X77089000Y-56090611D01*
X74930000Y-60020200D02*
X76200000Y-61290200D01*
X74930000Y-60020200D02*
X78370000Y-60020200D01*
X193992500Y-61925200D02*
X195262500Y-63195200D01*
X151130000Y-58747660D02*
X153088340Y-60706000D01*
X166420800Y-75882500D02*
X167170261Y-75133039D01*
X161607500Y-75882500D02*
X166420800Y-75882500D01*
X170300000Y-61805200D02*
X170180000Y-61925200D01*
X95935800Y-60020200D02*
X96055800Y-59900200D01*
X156591000Y-70866000D02*
X161607500Y-75882500D01*
X78490000Y-59900200D02*
X77089000Y-58499200D01*
X170180000Y-61925200D02*
X171450000Y-63195200D01*
X135690000Y-57030000D02*
X132200000Y-57030000D01*
X173790000Y-61805200D02*
X170300000Y-61805200D01*
%TO.N,GND*%
X70141000Y-54901000D02*
X70485000Y-55245000D01*
X70141000Y-52400000D02*
X70141000Y-54901000D01*
X139192000Y-134080000D02*
X139192000Y-130683000D01*
X89921200Y-148254800D02*
X89921200Y-136547578D01*
X204134390Y-48595610D02*
X200660000Y-52070000D01*
X88446811Y-135073189D02*
X88602811Y-135073189D01*
X106159209Y-143850360D02*
X105422700Y-144586869D01*
X138557000Y-43180000D02*
X138414380Y-43037380D01*
X88542793Y-166219207D02*
X88542793Y-166236924D01*
X107238891Y-143888460D02*
X107200791Y-143850360D01*
X154835520Y-39519520D02*
X155851520Y-39519520D01*
X118054331Y-37520669D02*
X115621422Y-37520669D01*
X77470000Y-87640160D02*
X78242160Y-87640160D01*
X79375000Y-172720000D02*
X74088103Y-172720000D01*
X90774546Y-166804333D02*
X89127919Y-166804333D01*
X83143766Y-168951234D02*
X79375000Y-172720000D01*
X71030000Y-52400000D02*
X71679000Y-52400000D01*
X73617901Y-83788061D02*
X73617901Y-77334001D01*
X119940000Y-134000000D02*
X119940000Y-137489000D01*
X63383200Y-60918400D02*
X63383200Y-74432200D01*
X139192000Y-130683000D02*
X139446000Y-130429000D01*
X105422700Y-145628451D02*
X100810151Y-150241000D01*
X138218099Y-140800901D02*
X120057099Y-140800901D01*
X105422700Y-144586869D02*
X105422700Y-145628451D01*
X107200791Y-143850360D02*
X106159209Y-143850360D01*
X66797791Y-177000494D02*
X61637297Y-171840000D01*
X138811000Y-39624000D02*
X139954000Y-38481000D01*
X139446000Y-130429000D02*
X155709000Y-130429000D01*
X78867000Y-43561000D02*
X79367169Y-43060831D01*
X93853000Y-146939000D02*
X93853000Y-146823000D01*
X139954000Y-38100000D02*
X139954000Y-38481000D01*
X97155000Y-150241000D02*
X97155000Y-160423879D01*
X67056000Y-48768000D02*
X67056000Y-51213411D01*
X71679000Y-52400000D02*
X71679000Y-47295000D01*
X158643600Y-42311600D02*
X158643600Y-55224400D01*
X73617901Y-77334001D02*
X70716100Y-74432200D01*
X138811000Y-39624000D02*
X141454622Y-39624000D01*
X113578640Y-143850360D02*
X112943640Y-143850360D01*
X88446811Y-135073189D02*
X86723622Y-133350000D01*
X76057000Y-117628160D02*
X76057000Y-130286000D01*
X77371858Y-44742800D02*
X77993000Y-44121658D01*
X141454622Y-39624000D02*
X142805311Y-40974689D01*
X154835520Y-39519520D02*
X154940000Y-39415040D01*
X112905540Y-143888460D02*
X107238891Y-143888460D01*
X112943640Y-143850360D02*
X112905540Y-143888460D01*
X140643000Y-35187000D02*
X140643000Y-36537000D01*
X115621422Y-47827578D02*
X118237000Y-50443156D01*
X119940000Y-137489000D02*
X119940000Y-140683802D01*
X73660000Y-71488300D02*
X73660000Y-70180200D01*
X138792000Y-140227000D02*
X138218099Y-140800901D01*
X97155000Y-160423879D02*
X90774546Y-166804333D01*
X69056600Y-55245000D02*
X63383200Y-60918400D01*
X120777000Y-53975000D02*
X118237000Y-51435000D01*
X116628099Y-140800901D02*
X113578640Y-143850360D01*
X155709000Y-130429000D02*
X157790000Y-132510000D01*
X145542000Y-45212000D02*
X145590000Y-45164000D01*
X77470000Y-87640160D02*
X73617901Y-83788061D01*
X142805311Y-40974689D02*
X142805311Y-42395849D01*
X89127919Y-166804333D02*
X88542793Y-166219207D01*
X139954000Y-38100000D02*
X145415000Y-38100000D01*
X120355111Y-40299889D02*
X122011611Y-40299889D01*
X74088103Y-173931097D02*
X73165607Y-174853593D01*
X93853000Y-147186600D02*
X92784800Y-148254800D01*
X115621422Y-37520669D02*
X115621422Y-47827578D01*
X149191040Y-45164000D02*
X154835520Y-39519520D01*
X139446000Y-38100000D02*
X139954000Y-38100000D01*
X97155000Y-150241000D02*
X93853000Y-146939000D01*
X139192000Y-134080000D02*
X138792000Y-134480000D01*
X204134390Y-48336000D02*
X204134390Y-48595610D01*
X145590000Y-45164000D02*
X148590000Y-45164000D01*
X74088103Y-172720000D02*
X74088103Y-173931097D01*
X145415000Y-38100000D02*
X145415000Y-45085000D01*
X74231200Y-44742800D02*
X77371858Y-44742800D01*
X119940000Y-140683802D02*
X120057099Y-140800901D01*
X80899000Y-35814000D02*
X80899000Y-38671340D01*
X89921200Y-136547578D02*
X88446811Y-135073189D01*
X154940000Y-39415040D02*
X154940000Y-38100000D01*
X77993000Y-43561000D02*
X78867000Y-43561000D01*
X63383200Y-74432200D02*
X70716100Y-74432200D01*
X85828483Y-168951234D02*
X83143766Y-168951234D01*
X88602811Y-135073189D02*
X91353000Y-132323000D01*
X71860999Y-174853593D02*
X69714098Y-177000494D01*
X142805311Y-42395849D02*
X142021160Y-43180000D01*
X138414380Y-43037380D02*
X137922000Y-43037380D01*
X67056000Y-51213411D02*
X69843411Y-51213411D01*
X148590000Y-45164000D02*
X149191040Y-45164000D01*
X71679000Y-47295000D02*
X74231200Y-44742800D01*
X61637297Y-171840000D02*
X59870000Y-171840000D01*
X71679000Y-52400000D02*
X72720000Y-52400000D01*
X86723622Y-133350000D02*
X79121000Y-133350000D01*
X72720000Y-52400000D02*
X74930000Y-54610000D01*
X80899000Y-38671340D02*
X80180240Y-39390100D01*
X93853000Y-146823000D02*
X93853000Y-147186600D01*
X145415000Y-45085000D02*
X145542000Y-45212000D01*
X69843411Y-51213411D02*
X71030000Y-52400000D01*
X168529000Y-33782000D02*
X168529000Y-57296500D01*
X77470000Y-116215160D02*
X76057000Y-117628160D01*
X122011611Y-40299889D02*
X122052500Y-40259000D01*
X88542793Y-166236924D02*
X85828483Y-168951234D01*
X70485000Y-55245000D02*
X69056600Y-55245000D01*
X92784800Y-148254800D02*
X89921200Y-148254800D01*
X120269000Y-40386000D02*
X120355111Y-40299889D01*
X77993000Y-44121658D02*
X77993000Y-43561000D01*
X100810151Y-150241000D02*
X97155000Y-150241000D01*
X120777000Y-56896000D02*
X120777000Y-53975000D01*
X138792000Y-134480000D02*
X138792000Y-140227000D01*
X155851520Y-39519520D02*
X158643600Y-42311600D01*
X142021160Y-43180000D02*
X138557000Y-43180000D01*
X158643600Y-55224400D02*
X157988000Y-55880000D01*
X120057099Y-140800901D02*
X116628099Y-140800901D01*
X70716100Y-74432200D02*
X73660000Y-71488300D01*
X73165607Y-174853593D02*
X71860999Y-174853593D01*
X69714098Y-177000494D02*
X66797791Y-177000494D01*
X118237000Y-50443156D02*
X118237000Y-51435000D01*
D59*
%TO.N,Net-(D1:7-Pad1)*%
X54950360Y-150642320D02*
X55488840Y-151792940D01*
D60*
X53878480Y-148338540D02*
X53340000Y-147187920D01*
X55565040Y-148953220D02*
X53878480Y-148338540D01*
D59*
X55565040Y-148953220D02*
X54950360Y-150642320D01*
%TO.N,Net-(D1:8-Pad1)*%
X72217280Y-142590520D02*
X72753220Y-143741140D01*
D60*
X71142860Y-140289280D02*
X70606920Y-139136120D01*
X72829420Y-140901420D02*
X71142860Y-140289280D01*
D59*
X72829420Y-140901420D02*
X72217280Y-142590520D01*
D61*
%TO.N,Net-(LED_C1-Pad1)*%
X107680680Y-48783320D02*
X107680680Y-50068998D01*
X104643427Y-56090611D02*
X101310689Y-59423349D01*
X97409000Y-115189000D02*
X95401550Y-115189000D01*
X92984101Y-114763349D02*
X92558450Y-115189000D01*
X109430611Y-55223290D02*
X108563290Y-56090611D01*
X101310689Y-108223633D02*
X98282680Y-111251642D01*
X107680680Y-50068998D02*
X107696000Y-50084318D01*
X107696000Y-48768000D02*
X107680680Y-48783320D01*
X94975899Y-114763349D02*
X92984101Y-114763349D01*
X79756000Y-118125449D02*
X78099711Y-118125449D01*
X109430611Y-53996710D02*
X109430611Y-55223290D01*
X95401550Y-115189000D02*
X94975899Y-114763349D01*
X89885899Y-114793349D02*
X83088100Y-114793349D01*
X92558450Y-115189000D02*
X90281550Y-115189000D01*
X83088100Y-114793349D02*
X79756000Y-118125449D01*
X98642898Y-42327102D02*
X100386202Y-42327102D01*
X100386202Y-42327102D02*
X101600000Y-43540900D01*
X101310689Y-59423349D02*
X101310689Y-108223633D01*
X107696000Y-52262099D02*
X109430611Y-53996710D01*
X78099711Y-118125449D02*
X77470000Y-118755160D01*
X98282680Y-111251642D02*
X98282680Y-114315320D01*
X107696000Y-50084318D02*
X107696000Y-52262099D01*
X108563290Y-56090611D02*
X104643427Y-56090611D01*
X90281550Y-115189000D02*
X89885899Y-114793349D01*
X98282680Y-114315320D02*
X97409000Y-115189000D01*
D57*
%TO.N,Net-(SW0:7-Pad2)*%
X27026348Y-144088044D02*
X28661267Y-144088044D01*
D60*
X33393380Y-149484080D02*
X34465260Y-151785320D01*
D57*
X28661267Y-144088044D02*
X30172457Y-142576854D01*
D59*
X30248860Y-139738100D02*
X29634180Y-141427200D01*
D57*
%TO.N,Net-(SW0:8-Pad2)*%
X50657760Y-141432280D02*
X51729640Y-143736060D01*
X47513240Y-131688840D02*
X46901100Y-133375400D01*
X44269597Y-135993468D02*
X45970963Y-135993468D01*
X45970963Y-135993468D02*
X47436837Y-134527594D01*
%TO.N,Net-(SW0:9-Pad2)*%
X35075608Y-161352424D02*
X36710527Y-161352424D01*
D60*
X41442640Y-166748460D02*
X42517060Y-169052240D01*
D57*
X36710527Y-161352424D02*
X38221717Y-159841234D01*
D59*
X38300660Y-157005020D02*
X37685980Y-158691580D01*
D57*
%TO.N,Net-(SW0:10-Pad2)*%
X87518240Y-154371040D02*
X89822020Y-153299160D01*
X77774800Y-157515560D02*
X79461360Y-158127700D01*
X82122204Y-160738072D02*
X82122204Y-159103153D01*
X82122204Y-159103153D02*
X80611014Y-157591963D01*
X80611014Y-157591963D02*
X83831365Y-154371612D01*
X83831365Y-154371612D02*
X87517079Y-154371612D01*
%TO.N,Net-(SW0:11-Pad2)*%
X73129140Y-171592240D02*
X72590660Y-170441620D01*
X64857824Y-168789872D02*
X64857824Y-167154953D01*
X64857824Y-167154953D02*
X63346634Y-165643763D01*
X60507880Y-165564820D02*
X62196980Y-166179500D01*
X70253860Y-162422840D02*
X72555100Y-161348420D01*
X72514460Y-173278800D02*
X73129140Y-171592240D01*
%TO.N,Net-(SW0:12-Pad2)*%
X44762327Y-178619344D02*
X46273517Y-177108154D01*
X43127408Y-178619344D02*
X44762327Y-178619344D01*
D59*
X46349920Y-174269400D02*
X45737780Y-175955960D01*
D60*
X49494440Y-184015380D02*
X50566320Y-186316620D01*
D57*
%TO.N,Net-(SW1:9-Pad2)*%
X107950000Y-134947660D02*
X106680000Y-136217660D01*
X106680000Y-145107660D02*
X106680000Y-147647660D01*
X103190000Y-137527660D02*
X106640000Y-137527660D01*
X106640000Y-137527660D02*
X106680000Y-137487660D01*
%TO.N,Net-(SW1:10-Pad2)*%
X125690000Y-135930000D02*
X125730000Y-135890000D01*
X122240000Y-135930000D02*
X125690000Y-135930000D01*
X125730000Y-143510000D02*
X125730000Y-146050000D01*
X127000000Y-133350000D02*
X125730000Y-134620000D01*
%TO.N,Net-(SW1:11-Pad2)*%
X144740000Y-137527660D02*
X144780000Y-137487660D01*
X141290000Y-137527660D02*
X144740000Y-137527660D01*
D60*
X144780000Y-145107660D02*
X144780000Y-147647660D01*
D59*
X146050000Y-134947660D02*
X144780000Y-136217660D01*
D57*
%TO.N,Net-(SW1:12-Pad2)*%
X160340000Y-140702660D02*
X163790000Y-140702660D01*
X165100000Y-138122660D02*
X163830000Y-139392660D01*
X163830000Y-148282660D02*
X163830000Y-150822660D01*
X163790000Y-140702660D02*
X163830000Y-140662660D01*
%TO.N,Net-(SW1:13-Pad2)*%
X182880000Y-148282660D02*
X182880000Y-150822660D01*
X179390000Y-140702660D02*
X182840000Y-140702660D01*
X184150000Y-138122660D02*
X182880000Y-139392660D01*
X182840000Y-140702660D02*
X182880000Y-140662660D01*
D60*
%TO.N,Net-(SW2:7-Pad2)*%
X77470000Y-121295160D02*
X80010000Y-121295160D01*
D57*
X69840000Y-124785160D02*
X69840000Y-121305160D01*
D59*
X67310000Y-120025160D02*
X68580000Y-121295160D01*
D58*
%TO.N,Net-(SW2:8-Pad2)*%
X84140000Y-119697660D02*
X87620000Y-119697660D01*
D60*
X87630000Y-127327660D02*
X87630000Y-129867660D01*
D59*
X88900000Y-117167660D02*
X87630000Y-118437660D01*
D57*
%TO.N,/ROW2*%
X107950000Y-115897660D02*
X106680000Y-117167660D01*
X103190000Y-118427660D02*
X106670000Y-118427660D01*
X106680000Y-126057660D02*
X106680000Y-128597660D01*
%TO.N,Net-(SW2:10-Pad2)*%
X127000000Y-114300000D02*
X125730000Y-115570000D01*
X125690000Y-116880000D02*
X125730000Y-116840000D01*
X125730000Y-124460000D02*
X125730000Y-127000000D01*
X122240000Y-116880000D02*
X125690000Y-116880000D01*
D60*
%TO.N,Net-(SW2:11-Pad2)*%
X144780000Y-118437660D02*
X141300000Y-118437660D01*
X144780000Y-126057660D02*
X144780000Y-128597660D01*
D59*
X146050000Y-115897660D02*
X144780000Y-117167660D01*
D57*
%TO.N,Net-(SW2:12-Pad2)*%
X163790000Y-121652660D02*
X163830000Y-121612660D01*
X160340000Y-121652660D02*
X163790000Y-121652660D01*
D60*
X163830000Y-129232660D02*
X163830000Y-131772660D01*
D59*
X165100000Y-119072660D02*
X163830000Y-120342660D01*
D57*
%TO.N,Net-(SW2:13-Pad2)*%
X187642500Y-120342660D02*
X187642500Y-121612660D01*
X187642500Y-129232660D02*
X187642500Y-131772660D01*
X188912500Y-119072660D02*
X187642500Y-120342660D01*
D59*
%TO.N,Net-(SW3:8-Pad2)*%
X88900000Y-98117660D02*
X87630000Y-99387660D01*
D60*
X87630000Y-108277660D02*
X87630000Y-110817660D01*
D58*
X84140000Y-100647660D02*
X87620000Y-100647660D01*
D57*
%TO.N,Net-(SW3:9-Pad2)*%
X106680000Y-107007660D02*
X106680000Y-109547660D01*
X103190000Y-99377660D02*
X106670000Y-99377660D01*
%TO.N,Net-(SW3:10-Pad2)*%
X127000000Y-95250000D02*
X125730000Y-96520000D01*
X125730000Y-105410000D02*
X125730000Y-107950000D01*
X122240000Y-97780000D02*
X125720000Y-97780000D01*
%TO.N,Net-(SW3:11-Pad2)*%
X144740000Y-99427660D02*
X144780000Y-99387660D01*
X141290000Y-99427660D02*
X144740000Y-99427660D01*
%TO.N,Net-(SW3:12-Pad2)*%
X160340000Y-102602660D02*
X163790000Y-102602660D01*
D60*
X163830000Y-110182660D02*
X163830000Y-112722660D01*
D57*
X163790000Y-102602660D02*
X163830000Y-102562660D01*
D59*
X165100000Y-100022660D02*
X163830000Y-101292660D01*
D57*
%TO.N,Net-(SW3:13-Pad2)*%
X187642500Y-101292660D02*
X187642500Y-102562660D01*
X187642500Y-110182660D02*
X187642500Y-112722660D01*
X188912500Y-100022660D02*
X187642500Y-101292660D01*
D60*
%TO.N,Net-(SW4:7-Pad2)*%
X69850000Y-92720160D02*
X69850000Y-96200160D01*
X77470000Y-92720160D02*
X80010000Y-92720160D01*
D59*
X67310000Y-91450160D02*
X68580000Y-92720160D01*
D60*
%TO.N,Net-(SW4:8-Pad2)*%
X87630000Y-81607660D02*
X84150000Y-81607660D01*
X87630000Y-89227660D02*
X87630000Y-91767660D01*
D59*
X88900000Y-79067660D02*
X87630000Y-80337660D01*
D60*
%TO.N,Net-(SW4:9-Pad2)*%
X106680000Y-80337660D02*
X103200000Y-80337660D01*
D59*
X107950000Y-77797660D02*
X106680000Y-79067660D01*
D60*
X106680000Y-87957660D02*
X106680000Y-90497660D01*
D59*
%TO.N,Net-(SW4:10-Pad2)*%
X127000000Y-76200000D02*
X125730000Y-77470000D01*
D60*
X125730000Y-86360000D02*
X125730000Y-88900000D01*
X125730000Y-78740000D02*
X122250000Y-78740000D01*
D57*
%TO.N,Net-(SW4:11-Pad2)*%
X144780000Y-80337660D02*
X141300000Y-80337660D01*
X144780000Y-87957660D02*
X144780000Y-90497660D01*
X146050000Y-77797660D02*
X144780000Y-79067660D01*
D60*
%TO.N,Net-(SW4:12-Pad2)*%
X163830000Y-83512660D02*
X160350000Y-83512660D01*
D59*
X165100000Y-80972660D02*
X163830000Y-82242660D01*
D60*
X163830000Y-91132660D02*
X163830000Y-93672660D01*
D59*
%TO.N,Net-(SW4:13-Pad2)*%
X187642500Y-82242660D02*
X187642500Y-83512660D01*
X188912500Y-80972660D02*
X187642500Y-82242660D01*
D60*
%TO.N,Net-(SW5:7-Pad2)*%
X68580000Y-70180200D02*
X68580000Y-72720200D01*
D59*
X69850000Y-60020200D02*
X68580000Y-61290200D01*
D57*
X68580000Y-62560200D02*
X68580000Y-70180200D01*
D58*
X65090000Y-62550200D02*
X66996942Y-62550200D01*
D57*
%TO.N,Net-(SW5:8-Pad2)*%
X84140000Y-62600200D02*
X87590000Y-62600200D01*
X87590000Y-62600200D02*
X87630000Y-62560200D01*
D59*
%TO.N,Net-(SW5:9-Pad2)*%
X107950000Y-58747660D02*
X106680000Y-60017660D01*
D60*
X106680000Y-68907660D02*
X106680000Y-71447660D01*
D57*
X106640000Y-61327660D02*
X106680000Y-61287660D01*
X103190000Y-61327660D02*
X106640000Y-61327660D01*
%TO.N,Net-(SW5:11-Pad2)*%
X141290000Y-61327660D02*
X144740000Y-61327660D01*
X144740000Y-61327660D02*
X144780000Y-61287660D01*
X146050000Y-58747660D02*
X144780000Y-60017660D01*
X144780000Y-68907660D02*
X144780000Y-71447660D01*
%TO.N,Net-(SW5:12-Pad2)*%
X163790000Y-64505200D02*
X163830000Y-64465200D01*
X160340000Y-64505200D02*
X163790000Y-64505200D01*
X163830000Y-72085200D02*
X163830000Y-73888600D01*
X163830000Y-72085200D02*
X163830000Y-64465200D01*
%TO.N,Net-(SW5:13-Pad2)*%
X187642500Y-63195200D02*
X187642500Y-64465200D01*
X187642500Y-72085200D02*
X187642500Y-74625200D01*
X188912500Y-61925200D02*
X187642500Y-63195200D01*
D58*
%TO.N,/Reset_SW*%
X151083311Y-38053311D02*
X153384239Y-38053311D01*
X157655550Y-33782000D02*
X160909000Y-33782000D01*
X153384239Y-38053311D02*
X157655550Y-33782000D01*
X146939000Y-33909000D02*
X151083311Y-38053311D01*
X160909000Y-33782000D02*
X160909000Y-57296500D01*
D57*
%TO.N,+3V3*%
X80193202Y-42601202D02*
X82140211Y-42601202D01*
X99411465Y-38650669D02*
X103087898Y-42327102D01*
X154305000Y-50800000D02*
X157734000Y-54229000D01*
X90812723Y-43289336D02*
X94564824Y-39537235D01*
X141293320Y-44900320D02*
X142621000Y-46228000D01*
X94564824Y-38784117D02*
X94431376Y-38650669D01*
X124975831Y-46669900D02*
X126745411Y-44900320D01*
X88463839Y-43289336D02*
X90812723Y-43289336D01*
X94564824Y-39537235D02*
X94564824Y-38784117D01*
X126745411Y-44900320D02*
X141293320Y-44900320D01*
X103087898Y-42327102D02*
X107405898Y-42327102D01*
X149860000Y-50800000D02*
X154305000Y-50800000D01*
X94431376Y-38650669D02*
X99411465Y-38650669D01*
X78456000Y-40864000D02*
X80193202Y-42601202D01*
X163449000Y-57296500D02*
X163449000Y-33782000D01*
%TO.N,/EncoderPin1*%
X142171782Y-115003218D02*
X143808200Y-115003218D01*
X177546000Y-107696000D02*
X177546000Y-62257556D01*
X145115558Y-113695860D02*
X146964442Y-113695860D01*
X156446800Y-114095860D02*
X156904940Y-114554000D01*
X146995302Y-113665000D02*
X150204698Y-113665000D01*
X153033200Y-114644618D02*
X153033200Y-114095860D01*
X153033200Y-114095860D02*
X156446800Y-114095860D01*
X104093844Y-130429000D02*
X116276887Y-130429000D01*
X140379140Y-116795860D02*
X142171782Y-115003218D01*
X156904940Y-114554000D02*
X172791888Y-114554000D01*
X91353000Y-143169844D02*
X104093844Y-130429000D01*
X150204698Y-113665000D02*
X150205558Y-113665860D01*
X172791888Y-114554000D02*
X177138720Y-110207168D01*
X118008874Y-128697013D02*
X139573000Y-128697013D01*
X177138720Y-110207168D02*
X177138720Y-109955720D01*
X169837200Y-35013800D02*
X169837200Y-56064700D01*
X177546000Y-62257556D02*
X173816744Y-58528300D01*
X146964442Y-113695860D02*
X146995302Y-113665000D01*
X139573000Y-128697013D02*
X139583200Y-128686813D01*
X143808200Y-115003218D02*
X145115558Y-113695860D01*
X91353000Y-146823000D02*
X91353000Y-143169844D01*
X169837200Y-56064700D02*
X171069000Y-57296500D01*
X172300800Y-58528300D02*
X171069000Y-57296500D01*
X152054442Y-113665860D02*
X153033200Y-114644618D01*
X173816744Y-58528300D02*
X172300800Y-58528300D01*
X116276887Y-130429000D02*
X118008874Y-128697013D01*
X139583200Y-128686813D02*
X139583200Y-116795860D01*
X171069000Y-33782000D02*
X169837200Y-35013800D01*
X150205558Y-113665860D02*
X152054442Y-113665860D01*
X139583200Y-116795860D02*
X140379140Y-116795860D01*
%TO.N,/EncoderPin2*%
X178562000Y-62249500D02*
X178689000Y-62376500D01*
X178549498Y-109585946D02*
X178549498Y-109334498D01*
X178689000Y-62376500D02*
X178689000Y-105791000D01*
X172377200Y-35013800D02*
X172377200Y-56064700D01*
X178689000Y-105791000D02*
X178689000Y-106680000D01*
X162941000Y-115316000D02*
X172819444Y-115316000D01*
X104298701Y-131013699D02*
X125410503Y-131013699D01*
X172819444Y-115316000D02*
X178549498Y-109585946D01*
X173609000Y-33782000D02*
X172377200Y-35013800D01*
X154908439Y-123348561D02*
X162941000Y-115316000D01*
X173609000Y-57296500D02*
X178562000Y-62249500D01*
X96353000Y-146823000D02*
X96353000Y-138959400D01*
X125918503Y-130505699D02*
X138553870Y-130505699D01*
X145711008Y-123348561D02*
X154908439Y-123348561D01*
X138553870Y-130505699D02*
X145711008Y-123348561D01*
X172377200Y-56064700D02*
X173609000Y-57296500D01*
X96353000Y-138959400D02*
X104298701Y-131013699D01*
X125410503Y-131013699D02*
X125918503Y-130505699D01*
%TO.N,/EncoderClick*%
X150435953Y-113106699D02*
X146764046Y-113106699D01*
X144884302Y-113137559D02*
X144356002Y-113665860D01*
X174917200Y-56064700D02*
X176149000Y-57296500D01*
X136406202Y-119183301D02*
X136406202Y-120119869D01*
X156678056Y-113537559D02*
X152801944Y-113537559D01*
X179425100Y-60572600D02*
X179425100Y-107036893D01*
X176149000Y-57296500D02*
X179425100Y-60572600D01*
X177242373Y-109219620D02*
X176833817Y-109219620D01*
X176402620Y-109650817D02*
X176402620Y-110081823D01*
X176833817Y-109219620D02*
X176402620Y-109650817D01*
X110363000Y-124333000D02*
X110363000Y-128762760D01*
X140141501Y-116237559D02*
X139351944Y-116237559D01*
X110363000Y-128762760D02*
X109255061Y-129870699D01*
X179425100Y-107036893D02*
X177242373Y-109219620D01*
X157136196Y-113995699D02*
X156678056Y-113537559D01*
X146764046Y-113106699D02*
X146733187Y-113137559D01*
X144356002Y-113665860D02*
X142713200Y-113665860D01*
X100341000Y-132323000D02*
X96353000Y-132323000D01*
X146733187Y-113137559D02*
X144884302Y-113137559D01*
X174917200Y-35013800D02*
X174917200Y-56064700D01*
X136406202Y-120119869D02*
X133436673Y-123089398D01*
X152371944Y-113107559D02*
X150436814Y-113107559D01*
X176402620Y-110081823D02*
X172488744Y-113995699D01*
X133436673Y-123089398D02*
X111606602Y-123089398D01*
X111606602Y-123089398D02*
X110363000Y-124333000D01*
X150436814Y-113107559D02*
X150435953Y-113106699D01*
X152801944Y-113537559D02*
X152371944Y-113107559D01*
X176149000Y-33782000D02*
X174917200Y-35013800D01*
X139351944Y-116237559D02*
X136406202Y-119183301D01*
X109255061Y-129870699D02*
X102793301Y-129870699D01*
X102793301Y-129870699D02*
X100341000Y-132323000D01*
X172488744Y-113995699D02*
X157136196Y-113995699D01*
X142713200Y-113665860D02*
X140141501Y-116237559D01*
%TO.N,/Haptic_motor*%
X96266000Y-113665000D02*
X96139000Y-113792000D01*
X177508489Y-56115989D02*
X178689000Y-57296500D01*
X80645000Y-123317000D02*
X80645000Y-124223500D01*
X178689000Y-57296500D02*
X179983401Y-58590901D01*
X179983401Y-108941599D02*
X172593000Y-116332000D01*
X178689000Y-33782000D02*
X177508489Y-34962511D01*
X96139000Y-113792000D02*
X82423000Y-113792000D01*
X179983401Y-58590901D02*
X179983401Y-108941599D01*
X82423000Y-113792000D02*
X82423000Y-114300000D01*
X177508489Y-34962511D02*
X177508489Y-56115989D01*
X82423000Y-114300000D02*
X81407000Y-115316000D01*
D62*
%TO.N,/D_IN+*%
X126873000Y-39588820D02*
X126873000Y-39116000D01*
X129144000Y-39116000D02*
X126873000Y-39116000D01*
X126873000Y-39116000D02*
X124520500Y-39116000D01*
X126591760Y-39870060D02*
X126873000Y-39588820D01*
D57*
%TO.N,+5V*%
X132070617Y-43037380D02*
X132378393Y-42729604D01*
X139793000Y-36537000D02*
X139793000Y-35187000D01*
X135016631Y-37318311D02*
X135543000Y-36791942D01*
X99695000Y-49403000D02*
X72417325Y-49403000D01*
X65241000Y-49200000D02*
X70141000Y-44300000D01*
X131375311Y-39797311D02*
X131375311Y-37534689D01*
X70141000Y-44300000D02*
X70141000Y-44120000D01*
X143383000Y-37363900D02*
X139979900Y-37363900D01*
X72417325Y-49403000D02*
X72415100Y-49400775D01*
X125939681Y-40259000D02*
X124327500Y-40259000D01*
X135543000Y-35187000D02*
X135543000Y-36537000D01*
X131375311Y-37534689D02*
X131591689Y-37318311D01*
X131591689Y-37318311D02*
X135016631Y-37318311D01*
X135543000Y-36791942D02*
X135543000Y-36537000D01*
X127111380Y-43037380D02*
X132070617Y-43037380D01*
X139793000Y-37177000D02*
X139793000Y-36537000D01*
X148590000Y-40640000D02*
X148590000Y-42164000D01*
X126679440Y-40960560D02*
X126958459Y-40960560D01*
X108814100Y-44958000D02*
X103250567Y-44958000D01*
X126679440Y-40960560D02*
X126641241Y-40960560D01*
X130862714Y-40309908D02*
X131375311Y-39797311D01*
X101774379Y-47323621D02*
X99695000Y-49403000D01*
X101774379Y-46434188D02*
X101774379Y-47323621D01*
X139979900Y-37363900D02*
X139793000Y-37177000D01*
X147447000Y-39497000D02*
X148590000Y-40640000D01*
X126641241Y-40960560D02*
X125939681Y-40259000D01*
X204126000Y-40244390D02*
X204126000Y-39421000D01*
X126958459Y-40960560D02*
X127609111Y-40309908D01*
X103250567Y-44958000D02*
X101774379Y-46434188D01*
X127609111Y-40309908D02*
X130862714Y-40309908D01*
X199234390Y-45136000D02*
X204126000Y-40244390D01*
X126619000Y-42545000D02*
X127111380Y-43037380D01*
D58*
%TO.N,Net-(D1-Pad2)*%
X71628000Y-42901293D02*
X71570689Y-42958604D01*
X67760364Y-40894000D02*
X71570689Y-40894000D01*
X71570689Y-41623396D02*
X71628000Y-41680707D01*
X66914000Y-40047636D02*
X67760364Y-40894000D01*
X71628000Y-41680707D02*
X71628000Y-42901293D01*
X66914000Y-39243000D02*
X66914000Y-40047636D01*
X71628000Y-44220707D02*
X71628000Y-45833000D01*
X71628000Y-45833000D02*
X70141000Y-47320000D01*
X71570689Y-44163396D02*
X71628000Y-44220707D01*
X71570689Y-42958604D02*
X71570689Y-44163396D01*
X71570689Y-40894000D02*
X71570689Y-41623396D01*
D57*
%TO.N,/SDA*%
X114717102Y-35142898D02*
X114717102Y-45302898D01*
X105156000Y-50298760D02*
X105156000Y-54356000D01*
X85598000Y-42143900D02*
X85598000Y-43259539D01*
X80264000Y-34671000D02*
X79136000Y-34671000D01*
X197485000Y-52578000D02*
X199009000Y-54102000D01*
X79136000Y-34671000D02*
X77993000Y-35814000D01*
X199009000Y-36976500D02*
X197485000Y-38500500D01*
X85598000Y-43259539D02*
X84895439Y-43962100D01*
%TO.N,/SCL*%
X95627709Y-41734854D02*
X94791361Y-40898506D01*
X144628339Y-56789111D02*
X145156450Y-56261000D01*
X83566000Y-37338000D02*
X85471000Y-37338000D01*
X94489215Y-40898506D02*
X95469144Y-39918577D01*
X95627709Y-43463089D02*
X95627709Y-41734854D01*
X152242937Y-56261000D02*
X152724177Y-55779760D01*
X79755329Y-40299211D02*
X80604789Y-40299211D01*
X110998000Y-35868796D02*
X110272102Y-35142898D01*
X95469144Y-39918577D02*
X95631000Y-39756721D01*
X141843680Y-55229680D02*
X141843680Y-55753358D01*
X80604789Y-40299211D02*
X83566000Y-37338000D01*
X94791361Y-40898506D02*
X94489215Y-40898506D01*
X196469000Y-54102000D02*
X196469000Y-36976500D01*
X102870000Y-49926331D02*
X102870000Y-54610000D01*
X116586000Y-46990000D02*
X121285000Y-51689000D01*
X78486000Y-39751000D02*
X78486000Y-38959000D01*
X110998000Y-42164000D02*
X110998000Y-35868796D01*
X116586000Y-45085000D02*
X116586000Y-46990000D01*
X142879433Y-56789111D02*
X144628339Y-56789111D01*
X121285000Y-51689000D02*
X138303000Y-51689000D01*
X110998000Y-47736338D02*
X110998000Y-42164000D01*
X138303000Y-51689000D02*
X141843680Y-55229680D01*
X110355169Y-48379169D02*
X110998000Y-47736338D01*
X78486000Y-39029882D02*
X79755329Y-40299211D01*
X97028000Y-44863380D02*
X95627709Y-43463089D01*
X78486000Y-38959000D02*
X78008000Y-38481000D01*
X102616000Y-49672331D02*
X102870000Y-49926331D01*
X141843680Y-55753358D02*
X142879433Y-56789111D01*
X145156450Y-56261000D02*
X152242937Y-56261000D01*
%TO.N,/COL3*%
X133350000Y-143510000D02*
X133350000Y-144764311D01*
%TO.N,/ROW4*%
X133350000Y-106664311D02*
X133992845Y-107307156D01*
%TO.N,/COL3*%
X140208000Y-131699000D02*
X140208000Y-135221060D01*
X133350000Y-125714311D02*
X133992845Y-126357156D01*
X140208000Y-135221060D02*
X139573000Y-135856060D01*
X133350000Y-144764311D02*
X133992845Y-145407156D01*
%TO.N,/ROW4*%
X137396800Y-90406800D02*
X137396800Y-101363200D01*
X133350000Y-86360000D02*
X136020421Y-83689579D01*
X133350000Y-105410000D02*
X133350000Y-106664311D01*
%TO.N,/COL3*%
X139573000Y-141478000D02*
X137541000Y-143510000D01*
%TO.N,/ROW4*%
X134505268Y-69980421D02*
X133992844Y-70492845D01*
X136020421Y-69980421D02*
X133350000Y-67310000D01*
%TO.N,/COL3*%
X139573000Y-135856060D02*
X139573000Y-141478000D01*
%TO.N,/ROW4*%
X133350000Y-86360000D02*
X137396800Y-90406800D01*
X136020421Y-83689579D02*
X136020421Y-69980421D01*
X136020421Y-69980421D02*
X134505268Y-69980421D01*
X137396800Y-101363200D02*
X133350000Y-105410000D01*
X133350000Y-86360000D02*
X133350000Y-88163900D01*
%TO.N,/COL3*%
X84296728Y-147465547D02*
X85681118Y-146081157D01*
X133350000Y-124460000D02*
X133350000Y-125714311D01*
X137541000Y-143510000D02*
X133350000Y-143510000D01*
%TO.N,/COL2*%
X67032348Y-155517347D02*
X68105799Y-154443896D01*
X152400000Y-68907660D02*
X156446800Y-72954460D01*
X156446800Y-92004460D02*
X156446800Y-102960860D01*
X152400000Y-145107660D02*
X152400000Y-146911060D01*
X152400000Y-107007660D02*
X152400000Y-108811560D01*
X158621800Y-138885860D02*
X158621800Y-132165457D01*
X156446800Y-102960860D02*
X152400000Y-107007660D01*
X152400000Y-87957660D02*
X152400000Y-89761560D01*
X156446800Y-83910860D02*
X152400000Y-87957660D01*
X152400000Y-87957660D02*
X156446800Y-92004460D01*
X68105799Y-154443896D02*
X68551029Y-154443896D01*
X152400000Y-68907660D02*
X152400000Y-70711560D01*
X158621800Y-132165457D02*
X155054003Y-128597660D01*
X155054003Y-128597660D02*
X153136100Y-128597660D01*
X152400000Y-145107660D02*
X158621800Y-138885860D01*
X156446800Y-72954460D02*
X156446800Y-83910860D01*
%TO.N,/Underglow DIN*%
X108104349Y-37746349D02*
X109220000Y-38862000D01*
X85344000Y-34056100D02*
X85049789Y-33761889D01*
X69885111Y-33761889D02*
X68214000Y-35433000D01*
X91567000Y-37338000D02*
X91975349Y-37746349D01*
X124587000Y-49276000D02*
X152400000Y-49276000D01*
X91975349Y-37746349D02*
X108104349Y-37746349D01*
X152400000Y-49276000D02*
X155829000Y-45847000D01*
X119253000Y-43942000D02*
X124587000Y-49276000D01*
X178689000Y-36976500D02*
X178689000Y-44337789D01*
X85049789Y-33761889D02*
X69885111Y-33761889D01*
X155829000Y-45847000D02*
X155829000Y-44577000D01*
D58*
%TO.N,Net-(D1-Pad4)*%
X65241000Y-43979000D02*
X65241000Y-44120000D01*
X65667689Y-38530689D02*
X65667689Y-43552311D01*
X65667689Y-43552311D02*
X65241000Y-43979000D01*
X66914000Y-37284378D02*
X65667689Y-38530689D01*
X66914000Y-35433000D02*
X66914000Y-37284378D01*
D62*
%TO.N,/D_IN-*%
X127240835Y-42164000D02*
X126912724Y-41835889D01*
X126912724Y-41835889D02*
X126185111Y-41835889D01*
X126185111Y-41835889D02*
X125857000Y-42164000D01*
X128509000Y-42164000D02*
X127240835Y-42164000D01*
X129144000Y-41529000D02*
X128509000Y-42164000D01*
X125282500Y-42164000D02*
X125857000Y-42164000D01*
X125282500Y-42164000D02*
X124327500Y-41209000D01*
%TO.N,/D+*%
X121289311Y-42357252D02*
X121831363Y-42357252D01*
X121969556Y-42495444D02*
X122214648Y-42740537D01*
X119691680Y-39566320D02*
X119048209Y-40209791D01*
X121061969Y-39566320D02*
X119691680Y-39566320D01*
X122301000Y-42545000D02*
X122251444Y-42495444D01*
X122214648Y-42740537D02*
X122214648Y-42965930D01*
X121831363Y-42357252D02*
X121969556Y-42495444D01*
X122251444Y-42495444D02*
X121969556Y-42495444D01*
X121319289Y-39309000D02*
X121061969Y-39566320D01*
X122052500Y-39309000D02*
X121319289Y-39309000D01*
X121101563Y-42545000D02*
X121289311Y-42357252D01*
X122995198Y-43746480D02*
X143324520Y-43746480D01*
X143324520Y-43746480D02*
X144272000Y-42799000D01*
X119048209Y-40209791D02*
X119048209Y-42545000D01*
X122214648Y-42965930D02*
X122995198Y-43746480D01*
X119048209Y-42545000D02*
X121101563Y-42545000D01*
D57*
%TO.N,unconnected-(P1-PadS1)*%
X141993000Y-35557000D02*
X141993000Y-32177000D01*
X133343000Y-32177000D02*
X133343000Y-35557000D01*
X133343000Y-32177000D02*
X141993000Y-32177000D01*
D58*
%TO.N,/OLED_P1*%
X76693000Y-35814000D02*
X73152000Y-35814000D01*
%TO.N,/OLED_P2*%
X73025000Y-38481000D02*
X76708000Y-38481000D01*
%TO.N,/OLED_P3*%
X76693000Y-41021000D02*
X73025000Y-41021000D01*
%TO.N,/OLED_P4*%
X76693000Y-43561000D02*
X73025000Y-43561000D01*
%TO.N,Net-(BAT_SW1-Pad3)*%
X137334304Y-40513000D02*
X136144000Y-40513000D01*
X136144000Y-40513000D02*
X134747000Y-39116000D01*
X137441193Y-40406111D02*
X137334304Y-40513000D01*
X125086000Y-37211000D02*
X130164888Y-37211000D01*
X124523000Y-34798000D02*
X124523000Y-36648000D01*
X130164888Y-37211000D02*
X130899729Y-36476159D01*
X124523000Y-36648000D02*
X125086000Y-37211000D01*
D62*
%TO.N,/D-*%
X121624563Y-43011563D02*
X122809000Y-44196000D01*
X121560337Y-43011563D02*
X121624563Y-43011563D01*
X120015000Y-41402000D02*
X121859500Y-41402000D01*
X122809000Y-44196000D02*
X144399000Y-44196000D01*
D58*
%TO.N,Net-(D2-Pad2)*%
X65241000Y-52400000D02*
X68122995Y-52400000D01*
X68122995Y-52400000D02*
X68305900Y-52217095D01*
X68453000Y-47380869D02*
X68733780Y-47100089D01*
X68453000Y-50292000D02*
X68453000Y-47380869D01*
%TO.N,Net-(D3-Pad4)*%
X200793636Y-39421000D02*
X202834000Y-37380636D01*
X202834000Y-37380636D02*
X202834000Y-36576000D01*
X199226000Y-39421000D02*
X200793636Y-39421000D01*
D57*
%TO.N,/WirelessCharger*%
X203581000Y-53086000D02*
X202184000Y-54483000D01*
X176149000Y-54102000D02*
X176149000Y-50800000D01*
X176149000Y-50800000D02*
X176149000Y-36976500D01*
X202184000Y-54483000D02*
X202184000Y-62103000D01*
D58*
%TO.N,Net-(D4-Pad4)*%
X202768000Y-45136000D02*
X202692000Y-45212000D01*
X204134390Y-45136000D02*
X202768000Y-45136000D01*
%TO.N,Net-(D5-Pad2)*%
X202184000Y-75438000D02*
X202184000Y-69723000D01*
%TO.N,Net-(BAT_SW1-Pad1)*%
X133323772Y-41375772D02*
X133604000Y-41656000D01*
X133323772Y-40285228D02*
X133323772Y-41375772D01*
X133604000Y-41656000D02*
X140574000Y-41656000D01*
D57*
%TO.N,Net-(BAT_SW1-Pad2)*%
X118618000Y-38862000D02*
X120770231Y-38862000D01*
X148737000Y-53429000D02*
X145981000Y-50673000D01*
X118343889Y-39136111D02*
X118618000Y-38862000D01*
X118343889Y-46969889D02*
X118343889Y-39136111D01*
X145981000Y-50673000D02*
X122047000Y-50673000D01*
X122047000Y-50673000D02*
X118343889Y-46969889D01*
X120770231Y-38862000D02*
X122523000Y-37109231D01*
X122523000Y-37109231D02*
X122523000Y-34798000D01*
%TO.N,/D_IN_RIGHT+*%
X138093000Y-37547995D02*
X138093000Y-36537000D01*
X137243000Y-35509557D02*
X137243000Y-35187000D01*
X137053095Y-38587900D02*
X138093000Y-37547995D01*
X138093000Y-36359557D02*
X137243000Y-35509557D01*
%TO.N,/D_IN_RIGHT-*%
X137243000Y-36537000D02*
X137243000Y-36791942D01*
X136158311Y-37876631D02*
X131933631Y-37876631D01*
X137243000Y-36791942D02*
X136158311Y-37876631D01*
X131933631Y-37876631D02*
X131933631Y-40039369D01*
X131933631Y-40039369D02*
X130444000Y-41529000D01*
%TO.N,Net-(Q1-Pad3)*%
X81915000Y-111191525D02*
X77911475Y-107188000D01*
X81915000Y-112981449D02*
X81915000Y-111191525D01*
X82471500Y-123873500D02*
X81915000Y-123317000D01*
X82471500Y-125222000D02*
X82471500Y-123873500D01*
%TO.N,Net-(C1-Pad2)*%
X73794000Y-133731000D02*
X80596500Y-126928500D01*
X80596500Y-126928500D02*
X80596500Y-126172000D01*
%TO.N,Net-(SW5:10-Pad2)*%
X127000000Y-57150000D02*
X125730000Y-58420000D01*
X126555500Y-60515500D02*
X126555500Y-66484500D01*
D58*
X125730000Y-59690000D02*
X126555500Y-60515500D01*
X126555500Y-66484500D02*
X125730000Y-67310000D01*
D57*
X122240000Y-59680000D02*
X124146942Y-59680000D01*
X125730000Y-67310000D02*
X125730000Y-69850000D01*
%TD*%
M02*
