M48
; DRILL file {KiCad 6.0.3-1.fc35} date Mon 21 Mar 2022 08:42:54 PM CDT
; FORMAT={-:-/ absolute / inch / decimal}
; #@! TF.CreationDate,2022-03-21T20:42:54-05:00
; #@! TF.GenerationSoftware,Kicad,Pcbnew,6.0.3-1.fc35
; #@! TF.FileFunction,Plated,1,2,PTH
FMAT,2
INCH
; #@! TA.AperFunction,Plated,PTH,ViaDrill
T1C0.0120
; #@! TA.AperFunction,Plated,PTH,ComponentDrill
T2C0.0157
; #@! TA.AperFunction,Plated,PTH,ComponentDrill
T3C0.0197
; #@! TA.AperFunction,Plated,PTH,ViaDrill
T4C0.0200
; #@! TA.AperFunction,Plated,PTH,ComponentDrill
T5C0.0236
; #@! TA.AperFunction,Plated,PTH,ComponentDrill
T6C0.0315
; #@! TA.AperFunction,Plated,PTH,ComponentDrill
T7C0.0390
; #@! TA.AperFunction,Plated,PTH,ComponentDrill
T8C0.0390
; #@! TA.AperFunction,Plated,PTH,ComponentDrill
T9C0.0394
; #@! TA.AperFunction,Plated,PTH,ComponentDrill
T10C0.0430
; #@! TA.AperFunction,Plated,PTH,ComponentDrill
T11C0.0512
; #@! TA.AperFunction,Plated,PTH,ComponentDrill
T12C0.0590
; #@! TA.AperFunction,Plated,PTH,ComponentDrill
T13C0.0591
; #@! TA.AperFunction,Plated,PTH,ComponentDrill
T14C0.0670
; #@! TA.AperFunction,Plated,PTH,ComponentDrill
T15C0.1570
%
G90
G05
T1
X5.49Y-1.5
T2
X5.3029Y-1.3853
X5.3029Y-1.4385
X5.3363Y-1.3853
X5.3363Y-1.4385
X5.3698Y-1.3853
X5.3698Y-1.4385
X5.4033Y-1.3853
X5.4033Y-1.4385
X5.4367Y-1.3853
X5.4367Y-1.4385
X5.4702Y-1.3853
X5.4702Y-1.4385
X5.5037Y-1.3853
X5.5037Y-1.4385
X5.5371Y-1.3853
X5.5371Y-1.4385
T3
X2.3571Y-6.7654
X2.775Y-2.175
X3.9445Y-2.3043
X3.9957Y-5.0969
X4.722Y-5.2756
X4.905Y-2.225
X5.4594Y-5.2787
X5.85Y-1.66
X5.85Y-1.6994
X5.85Y-1.7387
X5.85Y-1.7781
X6.1Y-1.5
X6.2122Y-5.2169
X6.82Y-2.045
X6.978Y-5.2201
T4
X1.655Y-5.72
X2.535Y-5.405
X2.54Y-5.28
X2.5685Y-1.737
X2.64Y-1.92
X2.6856Y-1.395
X2.6856Y-1.545
X2.6892Y-2.0558
X2.695Y-1.98
X2.7061Y-1.8543
X2.7615Y-1.737
X2.7615Y-1.863
X2.7615Y-1.937
X2.825Y-1.94
X2.825Y-2.02
X2.85Y-2.295
X2.8552Y-1.811
X2.96Y-2.2904
X2.9951Y-2.2546
X3.0189Y-3.1589
X3.09Y-1.565
X3.115Y-5.25
X3.12Y-2.72
X3.12Y-2.88
X3.1247Y-1.6953
X3.13Y-2.311
X3.135Y-2.515
X3.1567Y-1.5508
X3.16Y-1.365
X3.175Y-2.975
X3.185Y-1.41
X3.185Y-2.23
X3.19Y-2.365
X3.2339Y-1.6772
X3.2558Y-3.04
X3.28Y-3.7
X3.295Y-2.0905
X3.3Y-3.46
X3.3423Y-1.7308
X3.36Y-1.3408
X3.36Y-4.44
X3.365Y-1.47
X3.37Y-1.6592
X3.43Y-2.315
X3.4828Y-1.7043
X3.545Y-2.25
X3.555Y-1.2692
X3.56Y-5.4642
X3.605Y-1.47
X3.62Y-2.32
X3.765Y-1.565
X3.79Y-4.475
X3.8Y-1.92
X3.8Y-1.9916
X3.8Y-4.58
X3.82Y-1.7663
X3.825Y-4.36
X3.84Y-2.62
X3.865Y-5.775
X3.8808Y-1.7692
X3.895Y-2.23
X3.92Y-4.22
X3.9475Y-5.5223
X3.96Y-4.34
X3.9925Y-5.7225
X4.0Y-1.7142
X4.025Y-5.88
X4.04Y-1.9556
X4.14Y-1.9803
X4.24Y-1.92
X4.284Y-1.77
X4.3Y-1.53
X4.315Y-1.985
X4.32Y-5.92
X4.3447Y-1.9047
X4.35Y-2.31
X4.37Y-1.66
X4.4994Y-2.0406
X4.53Y-1.905
X4.59Y-1.775
X4.605Y-5.93
X4.6051Y-4.78
X4.6478Y-1.4772
X4.655Y-2.025
X4.695Y-1.73
X4.695Y-2.0642
X4.72Y-2.825
X4.725Y-1.63
X4.735Y-1.59
X4.7858Y-1.6934
X4.8052Y-1.585
X4.815Y-1.675
X4.89Y-2.1064
X4.8948Y-1.585
X4.9203Y-1.8374
X4.94Y-1.66
X4.9839Y-1.5697
X4.985Y-1.675
X4.9874Y-1.6126
X5.1356Y-1.54
X5.1356Y-1.635
X5.1535Y-1.4361
X5.225Y-1.6944
X5.235Y-2.88
X5.249Y-1.586
X5.305Y-1.54
X5.3958Y-1.5192
X5.4111Y-1.5908
X5.43Y-1.6944
X5.5856Y-1.64
X5.615Y-1.82
X5.62Y-2.08
X5.64Y-2.2
X5.645Y-1.471
X5.68Y-1.685
X5.685Y-1.74
X5.805Y-1.555
X5.9Y-2.0
X6.005Y-2.215
X6.11Y-2.435
X6.135Y-1.755
X6.15Y-2.45
X6.15Y-5.075
X6.186Y-5.075
X6.21Y-2.135
X6.25Y-2.45
X6.2608Y-5.08
X6.3Y-2.45
X6.3949Y-2.3449
X6.935Y-2.0
X6.965Y-4.5
X7.035Y-1.7456
X7.735Y-1.81
X7.775Y-1.895
X7.825Y-3.055
X7.8435Y-1.552
X7.8439Y-1.777
X7.9Y-2.05
X7.9344Y-1.44
X7.98Y-1.78
X8.015Y-2.09
X8.0365Y-1.552
T6
X2.475Y-5.0506
X2.475Y-5.1294
X4.745Y-1.37
X4.8237Y-1.37
X4.9025Y-1.37
X6.335Y-1.33
X6.335Y-2.2558
X6.435Y-1.33
X6.435Y-2.2558
X6.535Y-1.33
X6.535Y-2.2558
X6.635Y-1.33
X6.635Y-2.2558
X6.735Y-1.33
X6.735Y-1.4558
X6.735Y-2.13
X6.735Y-2.2558
X6.835Y-1.33
X6.835Y-1.4558
X6.835Y-2.13
X6.835Y-2.2558
X6.935Y-1.33
X6.935Y-1.4558
X6.935Y-2.13
X6.935Y-2.2558
X7.035Y-1.33
X7.035Y-1.4558
X7.035Y-2.13
X7.035Y-2.2558
X7.135Y-1.33
X7.135Y-1.4558
X7.135Y-2.13
X7.135Y-2.2558
X7.235Y-1.33
X7.235Y-1.4558
X7.235Y-2.13
X7.235Y-2.2558
X7.335Y-1.33
X7.335Y-1.4558
X7.335Y-2.13
X7.335Y-2.2558
X7.435Y-1.33
X7.435Y-1.4558
X7.435Y-2.13
X7.435Y-2.2558
X7.535Y-1.33
X7.535Y-1.4558
X7.535Y-2.13
X7.535Y-2.2558
X7.635Y-1.33
X7.635Y-1.4558
X7.635Y-2.13
X7.635Y-2.2558
X7.735Y-1.33
X7.735Y-1.4558
X7.735Y-2.13
X7.735Y-2.2558
X7.835Y-1.33
X7.835Y-1.4558
X7.835Y-2.13
X7.835Y-2.2558
X7.96Y-2.445
X7.96Y-2.745
X7.96Y-2.97
X7.96Y-3.0487
T7
X5.785Y-1.335
X5.9622Y-1.335
T8
X1.3147Y-5.8852
X1.3569Y-5.9758
X1.5866Y-5.7584
X1.6288Y-5.849
X1.6316Y-6.5649
X1.6738Y-6.6555
X1.9035Y-6.4381
X1.9457Y-6.5287
X1.9486Y-7.2447
X1.9908Y-7.3353
X1.9944Y-5.5683
X2.0366Y-5.6589
X2.1001Y-5.7948
X2.2205Y-7.1179
X2.2627Y-7.2085
X2.2663Y-5.4415
X2.3085Y-5.5321
X2.3719Y-5.668
X2.6391Y-6.1227
X2.7Y-2.763
X2.7Y-2.863
X2.7297Y-6.0805
X2.7659Y-6.3946
X2.7798Y-5.4778
X2.8Y-2.763
X2.8565Y-6.3524
X2.9Y-2.763
X3.0Y-2.763
X3.0Y-2.863
X3.05Y-3.3504
X3.05Y-3.4504
X3.05Y-3.5504
X3.05Y-3.6504
X3.05Y-4.4754
X3.05Y-4.5754
X3.05Y-4.6754
X3.05Y-4.7754
X3.0516Y-5.351
X3.15Y-3.3504
X3.15Y-3.6504
X3.15Y-4.4754
X3.15Y-4.7754
X3.2Y-3.78
X3.2Y-3.78
X3.2Y-4.18
X3.2Y-4.18
X3.3188Y-5.8057
X3.4094Y-5.7635
X3.4456Y-6.0776
X3.45Y-2.763
X3.45Y-2.863
X3.45Y-3.5129
X3.45Y-3.6129
X3.45Y-4.2629
X3.45Y-4.3629
X3.45Y-5.0129
X3.45Y-5.1129
X3.5362Y-6.0354
X3.5586Y-1.6414
X3.7086Y-1.6664
X3.75Y-2.763
X3.75Y-2.863
X3.75Y-3.5129
X3.75Y-3.6129
X3.75Y-4.2629
X3.75Y-4.3629
X3.75Y-5.0129
X3.75Y-5.1129
X3.8414Y-1.3586
X3.8836Y-1.6664
X3.9914Y-1.3836
X4.0586Y-1.6664
X4.1664Y-1.3836
X4.2Y-2.7129
X4.2Y-2.8129
X4.2Y-3.4629
X4.2Y-3.5629
X4.2Y-4.2129
X4.2Y-4.3129
X4.2Y-4.9629
X4.2Y-5.0629
X4.2Y-5.7129
X4.2Y-5.8129
X4.2336Y-1.6664
X4.3414Y-1.3836
X4.5Y-2.7129
X4.5Y-2.8129
X4.5Y-3.4629
X4.5Y-3.5629
X4.5Y-4.2129
X4.5Y-4.3129
X4.5Y-4.9629
X4.5Y-5.0629
X4.5Y-5.7129
X4.5Y-5.8129
X4.5164Y-1.3836
X4.95Y-2.65
X4.95Y-2.75
X4.95Y-3.4
X4.95Y-3.5
X4.95Y-4.15
X4.95Y-4.25
X4.95Y-4.9
X4.95Y-5.0
X4.95Y-5.65
X4.95Y-5.75
X5.25Y-2.65
X5.25Y-2.75
X5.25Y-3.4
X5.25Y-3.5
X5.25Y-4.15
X5.25Y-4.25
X5.25Y-4.9
X5.25Y-5.0
X5.25Y-5.65
X5.25Y-5.75
X5.7Y-2.7129
X5.7Y-2.8129
X5.7Y-3.4629
X5.7Y-3.5629
X5.7Y-4.2129
X5.7Y-4.3129
X5.7Y-4.9629
X5.7Y-5.0629
X5.7Y-5.7129
X5.7Y-5.8129
X6.0Y-2.7129
X6.0Y-2.8129
X6.0Y-3.4629
X6.0Y-3.5629
X6.0Y-4.2129
X6.0Y-4.3129
X6.0Y-4.9629
X6.0Y-5.0629
X6.0Y-5.7129
X6.0Y-5.8129
X6.45Y-2.838
X6.45Y-2.938
X6.45Y-3.5879
X6.45Y-3.6879
X6.45Y-4.3379
X6.45Y-4.4379
X6.45Y-5.0879
X6.45Y-5.1879
X6.45Y-5.8379
X6.45Y-5.9379
X6.75Y-2.838
X6.75Y-2.938
X6.75Y-3.5879
X6.75Y-3.6879
X6.75Y-4.3379
X6.75Y-4.4379
X6.75Y-5.0879
X6.75Y-5.1879
X6.75Y-5.8379
X6.75Y-5.9379
X7.2Y-5.8379
X7.2Y-5.9379
X7.3875Y-2.838
X7.3875Y-2.938
X7.3875Y-3.5879
X7.3875Y-3.6879
X7.3875Y-4.3379
X7.3875Y-4.4379
X7.3875Y-5.0879
X7.3875Y-5.1879
X7.5Y-5.8379
X7.5Y-5.9379
X7.6875Y-2.838
X7.6875Y-2.938
X7.6875Y-3.5879
X7.6875Y-3.6879
X7.6875Y-4.3379
X7.6875Y-4.4379
X7.6875Y-5.0879
X7.6875Y-5.1879
T9
X2.875Y-1.415
X2.875Y-1.515
X2.875Y-1.615
X2.875Y-1.715
X3.4396Y-5.4016
X3.4396Y-5.5
X3.4396Y-5.5984
X4.0104Y-5.4016
X4.0104Y-5.5984
X5.8558Y-1.8732
X5.8558Y-2.1035
X5.9542Y-1.8732
X5.9542Y-2.1035
T10
X2.95Y-1.85
X2.95Y-2.15
X3.05Y-1.85
X3.05Y-2.15
X3.15Y-1.85
X3.15Y-2.15
X3.25Y-1.85
X3.25Y-2.15
X3.35Y-1.85
X3.35Y-2.15
X3.45Y-1.85
X3.45Y-2.15
X3.55Y-1.85
X3.55Y-2.15
X3.65Y-1.85
X3.65Y-2.15
X3.75Y-1.85
X3.75Y-2.15
X3.85Y-2.15
X3.95Y-2.15
X4.05Y-2.15
X4.15Y-1.85
X4.15Y-2.15
X4.25Y-1.85
X4.25Y-2.15
T11
X5.7358Y-1.433
X6.0118Y-1.433
T12
X1.1879Y-5.6133
X1.1909Y-5.5015
X1.3722Y-5.417
X1.4598Y-5.4865
X1.5048Y-6.293
X1.5078Y-6.1812
X1.6891Y-6.0967
X1.7767Y-6.1662
X1.8218Y-6.9728
X1.8248Y-6.861
X1.8676Y-5.2964
X1.8706Y-5.1846
X2.0061Y-6.7765
X2.0519Y-5.1001
X2.0937Y-6.846
X2.1395Y-5.1696
X2.1846Y-5.9761
X2.1876Y-5.8643
X2.2977Y-6.3371
X2.3672Y-6.2495
X2.3689Y-5.7798
X2.3822Y-6.5184
X2.4565Y-5.8493
X2.494Y-6.5214
X2.586Y-6.837
X2.65Y-3.4004
X2.65Y-3.6004
X2.65Y-4.5254
X2.65Y-4.7254
X2.6736Y-6.9065
X2.7Y-2.463
X2.75Y-2.363
X2.75Y-3.3504
X2.75Y-3.6504
X2.75Y-4.4754
X2.75Y-4.7754
X2.8549Y-6.822
X2.8579Y-6.7102
X2.8643Y-5.6591
X2.8673Y-5.5473
X2.95Y-2.363
X2.9774Y-6.0201
X3.0Y-2.463
X3.0469Y-5.9325
X3.0486Y-5.4628
X3.0619Y-6.2014
X3.1362Y-5.5323
X3.1737Y-6.2044
X3.2658Y-6.5201
X3.3534Y-6.5896
X3.45Y-2.463
X3.45Y-3.2129
X3.45Y-3.9629
X3.45Y-4.7129
X3.5Y-2.363
X3.5Y-3.1129
X3.5Y-3.8629
X3.5Y-4.6129
X3.5347Y-6.5051
X3.5377Y-6.3933
X3.7Y-2.363
X3.7Y-3.1129
X3.7Y-3.8629
X3.7Y-4.6129
X3.75Y-2.463
X3.75Y-3.2129
X3.75Y-3.9629
X3.75Y-4.7129
X4.2Y-2.4129
X4.2Y-3.1629
X4.2Y-3.9129
X4.2Y-4.6629
X4.2Y-5.4129
X4.25Y-2.3129
X4.25Y-3.0629
X4.25Y-3.8129
X4.25Y-4.5629
X4.25Y-5.3129
X4.45Y-2.3129
X4.45Y-3.0629
X4.45Y-3.8129
X4.45Y-4.5629
X4.45Y-5.3129
X4.5Y-2.4129
X4.5Y-3.1629
X4.5Y-3.9129
X4.5Y-4.6629
X4.5Y-5.4129
X4.95Y-2.35
X4.95Y-3.1
X4.95Y-3.85
X4.95Y-4.6
X4.95Y-5.35
X5.0Y-2.25
X5.0Y-3.0
X5.0Y-3.75
X5.0Y-4.5
X5.0Y-5.25
X5.2Y-2.25
X5.2Y-3.0
X5.2Y-3.75
X5.2Y-4.5
X5.2Y-5.25
X5.25Y-2.35
X5.25Y-3.1
X5.25Y-3.85
X5.25Y-4.6
X5.25Y-5.35
X5.7Y-2.4129
X5.7Y-3.1629
X5.7Y-3.9129
X5.7Y-4.6629
X5.7Y-5.4129
X5.75Y-2.3129
X5.75Y-3.0629
X5.75Y-3.8129
X5.75Y-4.5629
X5.75Y-5.3129
X5.95Y-2.3129
X5.95Y-3.0629
X5.95Y-3.8129
X5.95Y-4.5629
X5.95Y-5.3129
X6.0Y-2.4129
X6.0Y-3.1629
X6.0Y-3.9129
X6.0Y-4.6629
X6.0Y-5.4129
X6.45Y-2.538
X6.45Y-3.2879
X6.45Y-4.0379
X6.45Y-4.7879
X6.45Y-5.5379
X6.5Y-2.438
X6.5Y-3.1879
X6.5Y-3.9379
X6.5Y-4.6879
X6.5Y-5.4379
X6.7Y-2.438
X6.7Y-3.1879
X6.7Y-3.9379
X6.7Y-4.6879
X6.7Y-5.4379
X6.75Y-2.538
X6.75Y-3.2879
X6.75Y-4.0379
X6.75Y-4.7879
X6.75Y-5.5379
X7.15Y-2.538
X7.15Y-2.738
X7.15Y-3.2879
X7.15Y-3.4879
X7.15Y-4.0379
X7.15Y-4.2379
X7.15Y-4.7879
X7.15Y-4.9879
X7.2Y-5.5379
X7.25Y-2.488
X7.25Y-2.788
X7.25Y-3.2379
X7.25Y-3.5379
X7.25Y-3.9879
X7.25Y-4.2879
X7.25Y-4.7379
X7.25Y-5.0379
X7.25Y-5.4379
X7.3875Y-2.538
X7.3875Y-3.2879
X7.3875Y-4.0379
X7.3875Y-4.7879
X7.4375Y-2.438
X7.4375Y-3.1879
X7.4375Y-3.9379
X7.4375Y-4.6879
X7.45Y-5.4379
X7.5Y-5.5379
X7.6375Y-2.438
X7.6375Y-3.1879
X7.6375Y-3.9379
X7.6375Y-4.6879
X7.6875Y-2.538
X7.6875Y-3.2879
X7.6875Y-4.0379
X7.6875Y-4.7879
T13
X4.6623Y-1.37
X4.9852Y-1.37
T14
X7.35Y-2.438
X7.35Y-2.838
X7.35Y-3.1879
X7.35Y-3.5879
X7.35Y-3.9379
X7.35Y-4.3379
X7.35Y-4.6879
X7.35Y-5.0879
T5
G00X5.2497Y-1.2826
M15
G01X5.2497Y-1.2511
M16
G05
G00X5.2497Y-1.4294
M15
G01X5.2497Y-1.3704
M16
G05
G00X5.5903Y-1.2826
M15
G01X5.5903Y-1.2511
M16
G05
G00X5.5903Y-1.4294
M15
G01X5.5903Y-1.3704
M16
G05
T13
G00X3.7093Y-5.2795
M15
G01X3.7604Y-5.2795
M16
G05
G00X3.7093Y-5.7205
M15
G01X3.7604Y-5.7205
M16
G05
T15
G00X7.3499Y-2.638
M15
G01X7.5374Y-2.638
M16
G05
G00X7.3499Y-3.3879
M15
G01X7.5374Y-3.3879
M16
G05
G00X7.3499Y-4.1379
M15
G01X7.5374Y-4.1379
M16
G05
G00X7.3499Y-4.8879
M15
G01X7.5374Y-4.8879
M16
G05
T0
M30
