%TF.GenerationSoftware,KiCad,Pcbnew,(6.0.7)*%
%TF.CreationDate,2023-01-12T11:12:47-06:00*%
%TF.ProjectId,ErgoDOX,4572676f-444f-4582-9e6b-696361645f70,rev?*%
%TF.SameCoordinates,Original*%
%TF.FileFunction,Drillmap*%
%TF.FilePolarity,Positive*%
%FSLAX45Y45*%
G04 Gerber Fmt 4.5, Leading zero omitted, Abs format (unit mm)*
G04 Created by KiCad (PCBNEW (6.0.7)) date 2023-01-12 11:12:47*
%MOMM*%
%LPD*%
G01*
G04 APERTURE LIST*
%ADD10C,0.381000*%
%ADD11C,0.200000*%
%ADD12C,0.099060*%
%ADD13C,0.109220*%
%ADD14C,0.170180*%
%ADD15C,0.304800*%
%ADD16C,0.398780*%
%ADD17C,0.637540*%
%ADD18C,0.680000*%
G04 APERTURE END LIST*
D10*
X9504680Y-3048000D02*
X8870950Y-3048000D01*
X14340840Y-3048000D02*
X13190220Y-3048000D01*
X6261100Y-12166600D02*
X5770880Y-12166600D01*
X7787640Y-3225800D02*
X6581140Y-3225800D01*
X19639280Y-15290800D02*
X20591780Y-14338300D01*
X2461768Y-13709650D02*
X2308098Y-14131544D01*
X4476496Y-18781776D02*
X4898390Y-18935192D01*
X13190220Y-3048000D02*
X13190220Y-3225800D01*
X8870950Y-3175000D02*
X8421370Y-3175000D01*
X20274280Y-3225800D02*
X14340840Y-3225800D01*
X2308098Y-14131544D02*
X4476496Y-18781776D01*
X6581140Y-3225800D02*
X6261100Y-3543300D01*
X8421370Y-3048000D02*
X7787640Y-3048000D01*
X6261100Y-3543300D02*
X6261100Y-12166600D01*
X9504680Y-3225800D02*
X9504680Y-3048000D01*
X14340840Y-3225800D02*
X14340840Y-3048000D01*
X8421370Y-3175000D02*
X8421370Y-3048000D01*
X7787640Y-3048000D02*
X7787640Y-3225800D01*
X20591780Y-3543300D02*
X20274280Y-3225800D01*
X8870950Y-3048000D02*
X8870950Y-3175000D01*
X12715240Y-15290800D02*
X19639280Y-15290800D01*
X20591780Y-14338300D02*
X20591780Y-3543300D01*
X4898390Y-18935192D02*
X12715240Y-15290800D01*
X5770880Y-12166600D02*
X2461768Y-13709650D01*
X13190220Y-3225800D02*
X9504680Y-3225800D01*
D11*
D12*
X8585470Y-3280030D02*
X8684530Y-3379090D01*
X8684530Y-3280030D02*
X8585470Y-3379090D01*
X8585470Y-3780410D02*
X8684530Y-3879470D01*
X8684530Y-3780410D02*
X8585470Y-3879470D01*
D13*
X9833610Y-4699000D02*
G75*
G03*
X9833610Y-4699000I-54610J0D01*
G01*
X10087610Y-4699000D02*
G75*
G03*
X10087610Y-4699000I-54610J0D01*
G01*
X10341610Y-4699000D02*
G75*
G03*
X10341610Y-4699000I-54610J0D01*
G01*
D14*
X3009490Y-14456470D02*
X3009490Y-14626650D01*
X2924400Y-14541560D02*
X3094580Y-14541560D01*
X3814416Y-16182908D02*
X3814416Y-16353088D01*
X3729326Y-16267998D02*
X3899506Y-16267998D01*
X3930298Y-14027090D02*
X3930298Y-14197270D01*
X3845208Y-14112180D02*
X4015388Y-14112180D01*
X4619596Y-17909600D02*
X4619596Y-18079780D01*
X4534506Y-17994690D02*
X4704686Y-17994690D01*
X4735224Y-15753528D02*
X4735224Y-15923708D01*
X4650134Y-15838618D02*
X4820314Y-15838618D01*
X4735928Y-13651544D02*
X4735928Y-13821724D01*
X4650838Y-13736634D02*
X4821018Y-13736634D01*
X5540404Y-17480220D02*
X5540404Y-17650400D01*
X5455314Y-17565310D02*
X5625494Y-17565310D01*
X5541108Y-15377982D02*
X5541108Y-15548162D01*
X5456018Y-15463072D02*
X5626198Y-15463072D01*
X5656736Y-13222164D02*
X5656736Y-13392344D01*
X5571646Y-13307254D02*
X5741826Y-13307254D01*
X6189158Y-15566234D02*
X6189158Y-15736414D01*
X6104068Y-15651324D02*
X6274248Y-15651324D01*
X6346034Y-17104420D02*
X6346034Y-17274600D01*
X6260944Y-17189510D02*
X6431124Y-17189510D01*
X6461916Y-14948602D02*
X6461916Y-15118782D01*
X6376826Y-15033692D02*
X6547006Y-15033692D01*
X6618538Y-16487042D02*
X6618538Y-16657222D01*
X6533448Y-16572132D02*
X6703628Y-16572132D01*
X6731000Y-6424930D02*
X6731000Y-6595110D01*
X6645910Y-6510020D02*
X6816090Y-6510020D01*
X7239000Y-8297926D02*
X7239000Y-8468106D01*
X7153910Y-8383016D02*
X7324090Y-8383016D01*
X7239000Y-9313926D02*
X7239000Y-9484106D01*
X7153910Y-9399016D02*
X7324090Y-9399016D01*
X7239000Y-11155426D02*
X7239000Y-11325606D01*
X7153910Y-11240516D02*
X7324090Y-11240516D01*
X7239000Y-12171426D02*
X7239000Y-12341606D01*
X7153910Y-12256516D02*
X7324090Y-12256516D01*
X7266842Y-16675040D02*
X7266842Y-16845220D01*
X7181752Y-16760130D02*
X7351932Y-16760130D01*
X7267546Y-14572802D02*
X7267546Y-14742982D01*
X7182456Y-14657892D02*
X7352636Y-14657892D01*
X7747000Y-6424930D02*
X7747000Y-6595110D01*
X7661910Y-6510020D02*
X7832090Y-6510020D01*
X7915596Y-14761054D02*
X7915596Y-14931234D01*
X7830506Y-14846144D02*
X8000686Y-14846144D01*
X8072726Y-16299494D02*
X8072726Y-16469674D01*
X7987636Y-16384584D02*
X8157816Y-16384584D01*
X8188354Y-14143422D02*
X8188354Y-14313602D01*
X8103264Y-14228512D02*
X8273444Y-14228512D01*
X8344976Y-15681862D02*
X8344976Y-15852042D01*
X8259886Y-15766952D02*
X8430066Y-15766952D01*
X8636000Y-6424930D02*
X8636000Y-6595110D01*
X8550910Y-6510020D02*
X8721090Y-6510020D01*
X8636000Y-8329676D02*
X8636000Y-8499856D01*
X8550910Y-8414766D02*
X8721090Y-8414766D01*
X8636000Y-10234676D02*
X8636000Y-10404856D01*
X8550910Y-10319766D02*
X8721090Y-10319766D01*
X8636000Y-12139676D02*
X8636000Y-12309856D01*
X8550910Y-12224766D02*
X8721090Y-12224766D01*
X8993534Y-15870114D02*
X8993534Y-16040294D01*
X8908444Y-15955204D02*
X9078624Y-15955204D01*
X9652000Y-6424930D02*
X9652000Y-6595110D01*
X9566910Y-6510020D02*
X9737090Y-6510020D01*
X9652000Y-8329676D02*
X9652000Y-8499856D01*
X9566910Y-8414766D02*
X9737090Y-8414766D01*
X9652000Y-10234676D02*
X9652000Y-10404856D01*
X9566910Y-10319766D02*
X9737090Y-10319766D01*
X9652000Y-12139676D02*
X9652000Y-12309856D01*
X9566910Y-12224766D02*
X9737090Y-12224766D01*
X10541000Y-6297676D02*
X10541000Y-6467856D01*
X10455910Y-6382766D02*
X10626090Y-6382766D01*
X10541000Y-8202676D02*
X10541000Y-8372856D01*
X10455910Y-8287766D02*
X10626090Y-8287766D01*
X10541000Y-10107676D02*
X10541000Y-10277856D01*
X10455910Y-10192766D02*
X10626090Y-10192766D01*
X10541000Y-12012676D02*
X10541000Y-12182856D01*
X10455910Y-12097766D02*
X10626090Y-12097766D01*
X10541000Y-13917676D02*
X10541000Y-14087856D01*
X10455910Y-14002766D02*
X10626090Y-14002766D01*
X11557000Y-6297676D02*
X11557000Y-6467856D01*
X11471910Y-6382766D02*
X11642090Y-6382766D01*
X11557000Y-8202676D02*
X11557000Y-8372856D01*
X11471910Y-8287766D02*
X11642090Y-8287766D01*
X11557000Y-10107676D02*
X11557000Y-10277856D01*
X11471910Y-10192766D02*
X11642090Y-10192766D01*
X11557000Y-12012676D02*
X11557000Y-12182856D01*
X11471910Y-12097766D02*
X11642090Y-12097766D01*
X11557000Y-13917676D02*
X11557000Y-14087856D01*
X11471910Y-14002766D02*
X11642090Y-14002766D01*
X12446000Y-6137910D02*
X12446000Y-6308090D01*
X12360910Y-6223000D02*
X12531090Y-6223000D01*
X12446000Y-8042910D02*
X12446000Y-8213090D01*
X12360910Y-8128000D02*
X12531090Y-8128000D01*
X12446000Y-9947910D02*
X12446000Y-10118090D01*
X12360910Y-10033000D02*
X12531090Y-10033000D01*
X12446000Y-11852910D02*
X12446000Y-12023090D01*
X12360910Y-11938000D02*
X12531090Y-11938000D01*
X12446000Y-13757910D02*
X12446000Y-13928090D01*
X12360910Y-13843000D02*
X12531090Y-13843000D01*
X13462000Y-6137910D02*
X13462000Y-6308090D01*
X13376910Y-6223000D02*
X13547090Y-6223000D01*
X13462000Y-8042910D02*
X13462000Y-8213090D01*
X13376910Y-8128000D02*
X13547090Y-8128000D01*
X13462000Y-9947910D02*
X13462000Y-10118090D01*
X13376910Y-10033000D02*
X13547090Y-10033000D01*
X13462000Y-11852910D02*
X13462000Y-12023090D01*
X13376910Y-11938000D02*
X13547090Y-11938000D01*
X13462000Y-13757910D02*
X13462000Y-13928090D01*
X13376910Y-13843000D02*
X13547090Y-13843000D01*
X14351000Y-6297676D02*
X14351000Y-6467856D01*
X14265910Y-6382766D02*
X14436090Y-6382766D01*
X14351000Y-8202676D02*
X14351000Y-8372856D01*
X14265910Y-8287766D02*
X14436090Y-8287766D01*
X14351000Y-10107676D02*
X14351000Y-10277856D01*
X14265910Y-10192766D02*
X14436090Y-10192766D01*
X14351000Y-12012676D02*
X14351000Y-12182856D01*
X14265910Y-12097766D02*
X14436090Y-12097766D01*
X14351000Y-13917676D02*
X14351000Y-14087856D01*
X14265910Y-14002766D02*
X14436090Y-14002766D01*
X15367000Y-6297676D02*
X15367000Y-6467856D01*
X15281910Y-6382766D02*
X15452090Y-6382766D01*
X15367000Y-8202676D02*
X15367000Y-8372856D01*
X15281910Y-8287766D02*
X15452090Y-8287766D01*
X15367000Y-10107676D02*
X15367000Y-10277856D01*
X15281910Y-10192766D02*
X15452090Y-10192766D01*
X15367000Y-12012676D02*
X15367000Y-12182856D01*
X15281910Y-12097766D02*
X15452090Y-12097766D01*
X15367000Y-13917676D02*
X15367000Y-14087856D01*
X15281910Y-14002766D02*
X15452090Y-14002766D01*
X16256000Y-6615430D02*
X16256000Y-6785610D01*
X16170910Y-6700520D02*
X16341090Y-6700520D01*
X16256000Y-8520176D02*
X16256000Y-8690356D01*
X16170910Y-8605266D02*
X16341090Y-8605266D01*
X16256000Y-10425176D02*
X16256000Y-10595356D01*
X16170910Y-10510266D02*
X16341090Y-10510266D01*
X16256000Y-12330176D02*
X16256000Y-12500356D01*
X16170910Y-12415266D02*
X16341090Y-12415266D01*
X16256000Y-14235176D02*
X16256000Y-14405356D01*
X16170910Y-14320266D02*
X16341090Y-14320266D01*
X17272000Y-6615430D02*
X17272000Y-6785610D01*
X17186910Y-6700520D02*
X17357090Y-6700520D01*
X17272000Y-8520176D02*
X17272000Y-8690356D01*
X17186910Y-8605266D02*
X17357090Y-8605266D01*
X17272000Y-10425176D02*
X17272000Y-10595356D01*
X17186910Y-10510266D02*
X17357090Y-10510266D01*
X17272000Y-12330176D02*
X17272000Y-12500356D01*
X17186910Y-12415266D02*
X17357090Y-12415266D01*
X17272000Y-14235176D02*
X17272000Y-14405356D01*
X17186910Y-14320266D02*
X17357090Y-14320266D01*
X18161000Y-14235176D02*
X18161000Y-14405356D01*
X18075910Y-14320266D02*
X18246090Y-14320266D01*
X18637250Y-6615430D02*
X18637250Y-6785610D01*
X18552160Y-6700520D02*
X18722340Y-6700520D01*
X18637250Y-8520176D02*
X18637250Y-8690356D01*
X18552160Y-8605266D02*
X18722340Y-8605266D01*
X18637250Y-10425176D02*
X18637250Y-10595356D01*
X18552160Y-10510266D02*
X18722340Y-10510266D01*
X18637250Y-12330176D02*
X18637250Y-12500356D01*
X18552160Y-12415266D02*
X18722340Y-12415266D01*
X19177000Y-14235176D02*
X19177000Y-14405356D01*
X19091910Y-14320266D02*
X19262090Y-14320266D01*
X19653250Y-6615430D02*
X19653250Y-6785610D01*
X19568160Y-6700520D02*
X19738340Y-6700520D01*
X19653250Y-8520176D02*
X19653250Y-8690356D01*
X19568160Y-8605266D02*
X19738340Y-8605266D01*
X19653250Y-10425176D02*
X19653250Y-10595356D01*
X19568160Y-10510266D02*
X19738340Y-10510266D01*
X19653250Y-12330176D02*
X19653250Y-12500356D01*
X19568160Y-12415266D02*
X19738340Y-12415266D01*
D15*
X6640146Y-14842343D02*
X6640146Y-14626815D01*
X6424618Y-14626815D01*
X6424618Y-14842343D01*
X6640146Y-14842343D01*
X7100472Y-14627561D02*
X7100472Y-14412032D01*
X6884944Y-14412032D01*
X6884944Y-14627561D01*
X7100472Y-14627561D01*
X7649190Y-17006244D02*
X7649190Y-16790715D01*
X7433662Y-16790715D01*
X7433662Y-17006244D01*
X7649190Y-17006244D01*
X8109516Y-16791461D02*
X8109516Y-16575933D01*
X7893988Y-16575933D01*
X7893988Y-16791461D01*
X8109516Y-16791461D01*
D16*
X3469894Y-14526260D02*
X3669284Y-14326870D01*
X3469894Y-14127480D01*
X3270504Y-14326870D01*
X3469894Y-14526260D01*
X4274820Y-16252698D02*
X4474210Y-16053308D01*
X4274820Y-15853918D01*
X4075430Y-16053308D01*
X4274820Y-16252698D01*
X5080000Y-17979390D02*
X5279390Y-17780000D01*
X5080000Y-17580610D01*
X4880610Y-17780000D01*
X5080000Y-17979390D01*
X5151169Y-15578039D02*
X5350559Y-15378649D01*
X5151169Y-15179259D01*
X4951779Y-15378649D01*
X5151169Y-15578039D01*
X5196332Y-13721334D02*
X5395722Y-13521944D01*
X5196332Y-13322554D01*
X4996942Y-13521944D01*
X5196332Y-13721334D01*
X6001512Y-15447772D02*
X6200902Y-15248382D01*
X6001512Y-15048992D01*
X5802122Y-15248382D01*
X6001512Y-15447772D01*
X6160213Y-17741940D02*
X6359603Y-17542550D01*
X6160213Y-17343160D01*
X5960823Y-17542550D01*
X6160213Y-17741940D01*
X6403848Y-16311118D02*
X6603238Y-16111728D01*
X6403848Y-15912338D01*
X6204458Y-16111728D01*
X6403848Y-16311118D01*
X6806438Y-17174210D02*
X7005828Y-16974820D01*
X6806438Y-16775430D01*
X6607048Y-16974820D01*
X6806438Y-17174210D01*
X7239000Y-6709410D02*
X7438390Y-6510020D01*
X7239000Y-6310630D01*
X7039610Y-6510020D01*
X7239000Y-6709410D01*
X7239000Y-9090406D02*
X7438390Y-8891016D01*
X7239000Y-8691626D01*
X7039610Y-8891016D01*
X7239000Y-9090406D01*
X7239000Y-11947906D02*
X7438390Y-11748516D01*
X7239000Y-11549126D01*
X7039610Y-11748516D01*
X7239000Y-11947906D01*
X7727950Y-14642592D02*
X7927340Y-14443202D01*
X7727950Y-14243812D01*
X7528560Y-14443202D01*
X7727950Y-14642592D01*
X8130286Y-15505938D02*
X8329676Y-15306548D01*
X8130286Y-15107158D01*
X7930896Y-15306548D01*
X8130286Y-15505938D01*
X8373921Y-14075116D02*
X8573311Y-13875726D01*
X8373921Y-13676336D01*
X8174531Y-13875726D01*
X8373921Y-14075116D01*
X8533130Y-16369284D02*
X8732520Y-16169894D01*
X8533130Y-15970504D01*
X8333740Y-16169894D01*
X8533130Y-16369284D01*
X9144000Y-6709410D02*
X9343390Y-6510020D01*
X9144000Y-6310630D01*
X8944610Y-6510020D01*
X9144000Y-6709410D01*
X9144000Y-8614156D02*
X9343390Y-8414766D01*
X9144000Y-8215376D01*
X8944610Y-8414766D01*
X9144000Y-8614156D01*
X9144000Y-10519156D02*
X9343390Y-10319766D01*
X9144000Y-10120376D01*
X8944610Y-10319766D01*
X9144000Y-10519156D01*
X9144000Y-12424156D02*
X9343390Y-12224766D01*
X9144000Y-12025376D01*
X8944610Y-12224766D01*
X9144000Y-12424156D01*
X9382965Y-16239017D02*
X9582355Y-16039627D01*
X9382965Y-15840237D01*
X9183575Y-16039627D01*
X9382965Y-16239017D01*
X11049000Y-6582156D02*
X11248390Y-6382766D01*
X11049000Y-6183376D01*
X10849610Y-6382766D01*
X11049000Y-6582156D01*
X11049000Y-8487156D02*
X11248390Y-8287766D01*
X11049000Y-8088376D01*
X10849610Y-8287766D01*
X11049000Y-8487156D01*
X11049000Y-10392156D02*
X11248390Y-10192766D01*
X11049000Y-9993376D01*
X10849610Y-10192766D01*
X11049000Y-10392156D01*
X11049000Y-12297156D02*
X11248390Y-12097766D01*
X11049000Y-11898376D01*
X10849610Y-12097766D01*
X11049000Y-12297156D01*
X11049000Y-14202156D02*
X11248390Y-14002766D01*
X11049000Y-13803376D01*
X10849610Y-14002766D01*
X11049000Y-14202156D01*
X12954000Y-6422390D02*
X13153390Y-6223000D01*
X12954000Y-6023610D01*
X12754610Y-6223000D01*
X12954000Y-6422390D01*
X12954000Y-8327390D02*
X13153390Y-8128000D01*
X12954000Y-7928610D01*
X12754610Y-8128000D01*
X12954000Y-8327390D01*
X12954000Y-10232390D02*
X13153390Y-10033000D01*
X12954000Y-9833610D01*
X12754610Y-10033000D01*
X12954000Y-10232390D01*
X12954000Y-12137390D02*
X13153390Y-11938000D01*
X12954000Y-11738610D01*
X12754610Y-11938000D01*
X12954000Y-12137390D01*
X12954000Y-14042390D02*
X13153390Y-13843000D01*
X12954000Y-13643610D01*
X12754610Y-13843000D01*
X12954000Y-14042390D01*
X14859000Y-6582156D02*
X15058390Y-6382766D01*
X14859000Y-6183376D01*
X14659610Y-6382766D01*
X14859000Y-6582156D01*
X14859000Y-8487156D02*
X15058390Y-8287766D01*
X14859000Y-8088376D01*
X14659610Y-8287766D01*
X14859000Y-8487156D01*
X14859000Y-10392156D02*
X15058390Y-10192766D01*
X14859000Y-9993376D01*
X14659610Y-10192766D01*
X14859000Y-10392156D01*
X14859000Y-12297156D02*
X15058390Y-12097766D01*
X14859000Y-11898376D01*
X14659610Y-12097766D01*
X14859000Y-12297156D01*
X14859000Y-14202156D02*
X15058390Y-14002766D01*
X14859000Y-13803376D01*
X14659610Y-14002766D01*
X14859000Y-14202156D01*
X16764000Y-6899910D02*
X16963390Y-6700520D01*
X16764000Y-6501130D01*
X16564610Y-6700520D01*
X16764000Y-6899910D01*
X16764000Y-8804656D02*
X16963390Y-8605266D01*
X16764000Y-8405876D01*
X16564610Y-8605266D01*
X16764000Y-8804656D01*
X16764000Y-10709656D02*
X16963390Y-10510266D01*
X16764000Y-10310876D01*
X16564610Y-10510266D01*
X16764000Y-10709656D01*
X16764000Y-12614656D02*
X16963390Y-12415266D01*
X16764000Y-12215876D01*
X16564610Y-12415266D01*
X16764000Y-12614656D01*
X16764000Y-14519656D02*
X16963390Y-14320266D01*
X16764000Y-14120876D01*
X16564610Y-14320266D01*
X16764000Y-14519656D01*
X18669000Y-14519656D02*
X18868390Y-14320266D01*
X18669000Y-14120876D01*
X18469610Y-14320266D01*
X18669000Y-14519656D01*
X19145250Y-6899910D02*
X19344640Y-6700520D01*
X19145250Y-6501130D01*
X18945860Y-6700520D01*
X19145250Y-6899910D01*
X19145250Y-8804656D02*
X19344640Y-8605266D01*
X19145250Y-8405876D01*
X18945860Y-8605266D01*
X19145250Y-8804656D01*
X19145250Y-10709656D02*
X19344640Y-10510266D01*
X19145250Y-10310876D01*
X18945860Y-10510266D01*
X19145250Y-10709656D01*
X19145250Y-12614656D02*
X19344640Y-12415266D01*
X19145250Y-12215876D01*
X18945860Y-12415266D01*
X19145250Y-12614656D01*
D17*
X5086350Y-16275050D02*
X5723890Y-16912590D01*
X5723890Y-16275050D02*
X5086350Y-16912590D01*
X5723890Y-16593820D02*
G75*
G03*
X5723890Y-16593820I-318770J0D01*
G01*
X5662930Y-11857990D02*
X6300470Y-12495530D01*
X6300470Y-11857990D02*
X5662930Y-12495530D01*
X6300470Y-12176760D02*
G75*
G03*
X6300470Y-12176760I-318770J0D01*
G01*
X10240010Y-15467330D02*
X10877550Y-16104870D01*
X10877550Y-15467330D02*
X10240010Y-16104870D01*
X10877550Y-15786100D02*
G75*
G03*
X10877550Y-15786100I-318770J0D01*
G01*
X13600430Y-8850630D02*
X14237970Y-9488170D01*
X14237970Y-8850630D02*
X13600430Y-9488170D01*
X14237970Y-9169400D02*
G75*
G03*
X14237970Y-9169400I-318770J0D01*
G01*
X19874230Y-13696950D02*
X20511770Y-14334490D01*
X20511770Y-13696950D02*
X19874230Y-14334490D01*
X20511770Y-14015720D02*
G75*
G03*
X20511770Y-14015720I-318770J0D01*
G01*
D18*
X13735000Y-4835000D02*
X14415000Y-5515000D01*
X14415000Y-4835000D02*
X13735000Y-5515000D01*
X14075000Y-4835000D02*
X14075000Y-5515000D01*
X13735000Y-5175000D02*
X14415000Y-5175000D01*
D11*
X2546667Y-19264718D02*
X2546667Y-19064718D01*
X2594286Y-19064718D01*
X2622858Y-19074242D01*
X2641905Y-19093290D01*
X2651429Y-19112337D01*
X2660953Y-19150432D01*
X2660953Y-19179004D01*
X2651429Y-19217099D01*
X2641905Y-19236147D01*
X2622858Y-19255194D01*
X2594286Y-19264718D01*
X2546667Y-19264718D01*
X2746667Y-19264718D02*
X2746667Y-19131385D01*
X2746667Y-19169480D02*
X2756191Y-19150432D01*
X2765715Y-19140909D01*
X2784762Y-19131385D01*
X2803810Y-19131385D01*
X2870476Y-19264718D02*
X2870476Y-19131385D01*
X2870476Y-19064718D02*
X2860953Y-19074242D01*
X2870476Y-19083766D01*
X2880000Y-19074242D01*
X2870476Y-19064718D01*
X2870476Y-19083766D01*
X2994286Y-19264718D02*
X2975238Y-19255194D01*
X2965715Y-19236147D01*
X2965715Y-19064718D01*
X3099048Y-19264718D02*
X3080000Y-19255194D01*
X3070476Y-19236147D01*
X3070476Y-19064718D01*
X3327619Y-19264718D02*
X3327619Y-19064718D01*
X3394286Y-19207575D01*
X3460953Y-19064718D01*
X3460953Y-19264718D01*
X3641905Y-19264718D02*
X3641905Y-19159956D01*
X3632381Y-19140909D01*
X3613334Y-19131385D01*
X3575238Y-19131385D01*
X3556191Y-19140909D01*
X3641905Y-19255194D02*
X3622857Y-19264718D01*
X3575238Y-19264718D01*
X3556191Y-19255194D01*
X3546667Y-19236147D01*
X3546667Y-19217099D01*
X3556191Y-19198052D01*
X3575238Y-19188528D01*
X3622857Y-19188528D01*
X3641905Y-19179004D01*
X3737143Y-19131385D02*
X3737143Y-19331385D01*
X3737143Y-19140909D02*
X3756191Y-19131385D01*
X3794286Y-19131385D01*
X3813334Y-19140909D01*
X3822857Y-19150432D01*
X3832381Y-19169480D01*
X3832381Y-19226623D01*
X3822857Y-19245671D01*
X3813334Y-19255194D01*
X3794286Y-19264718D01*
X3756191Y-19264718D01*
X3737143Y-19255194D01*
X3918096Y-19245671D02*
X3927619Y-19255194D01*
X3918096Y-19264718D01*
X3908572Y-19255194D01*
X3918096Y-19245671D01*
X3918096Y-19264718D01*
X3918096Y-19140909D02*
X3927619Y-19150432D01*
X3918096Y-19159956D01*
X3908572Y-19150432D01*
X3918096Y-19140909D01*
X3918096Y-19159956D01*
D12*
X2189988Y-19544712D02*
X2289048Y-19643772D01*
X2289048Y-19544712D02*
X2189988Y-19643772D01*
D11*
X2584762Y-19484718D02*
X2603810Y-19484718D01*
X2622858Y-19494242D01*
X2632381Y-19503766D01*
X2641905Y-19522813D01*
X2651429Y-19560909D01*
X2651429Y-19608528D01*
X2641905Y-19646623D01*
X2632381Y-19665671D01*
X2622858Y-19675194D01*
X2603810Y-19684718D01*
X2584762Y-19684718D01*
X2565715Y-19675194D01*
X2556191Y-19665671D01*
X2546667Y-19646623D01*
X2537143Y-19608528D01*
X2537143Y-19560909D01*
X2546667Y-19522813D01*
X2556191Y-19503766D01*
X2565715Y-19494242D01*
X2584762Y-19484718D01*
X2737143Y-19665671D02*
X2746667Y-19675194D01*
X2737143Y-19684718D01*
X2727619Y-19675194D01*
X2737143Y-19665671D01*
X2737143Y-19684718D01*
X2841905Y-19684718D02*
X2880000Y-19684718D01*
X2899048Y-19675194D01*
X2908572Y-19665671D01*
X2927619Y-19637099D01*
X2937143Y-19599004D01*
X2937143Y-19522813D01*
X2927619Y-19503766D01*
X2918096Y-19494242D01*
X2899048Y-19484718D01*
X2860953Y-19484718D01*
X2841905Y-19494242D01*
X2832381Y-19503766D01*
X2822857Y-19522813D01*
X2822857Y-19570432D01*
X2832381Y-19589480D01*
X2841905Y-19599004D01*
X2860953Y-19608528D01*
X2899048Y-19608528D01*
X2918096Y-19599004D01*
X2927619Y-19589480D01*
X2937143Y-19570432D01*
X3032381Y-19684718D02*
X3070476Y-19684718D01*
X3089524Y-19675194D01*
X3099048Y-19665671D01*
X3118096Y-19637099D01*
X3127619Y-19599004D01*
X3127619Y-19522813D01*
X3118096Y-19503766D01*
X3108572Y-19494242D01*
X3089524Y-19484718D01*
X3051429Y-19484718D01*
X3032381Y-19494242D01*
X3022857Y-19503766D01*
X3013334Y-19522813D01*
X3013334Y-19570432D01*
X3022857Y-19589480D01*
X3032381Y-19599004D01*
X3051429Y-19608528D01*
X3089524Y-19608528D01*
X3108572Y-19599004D01*
X3118096Y-19589480D01*
X3127619Y-19570432D01*
X3318096Y-19684718D02*
X3203810Y-19684718D01*
X3260953Y-19684718D02*
X3260953Y-19484718D01*
X3241905Y-19513290D01*
X3222857Y-19532337D01*
X3203810Y-19541861D01*
X3403810Y-19684718D02*
X3403810Y-19551385D01*
X3403810Y-19570432D02*
X3413334Y-19560909D01*
X3432381Y-19551385D01*
X3460953Y-19551385D01*
X3480000Y-19560909D01*
X3489524Y-19579956D01*
X3489524Y-19684718D01*
X3489524Y-19579956D02*
X3499048Y-19560909D01*
X3518096Y-19551385D01*
X3546667Y-19551385D01*
X3565715Y-19560909D01*
X3575238Y-19579956D01*
X3575238Y-19684718D01*
X3670476Y-19684718D02*
X3670476Y-19551385D01*
X3670476Y-19570432D02*
X3680000Y-19560909D01*
X3699048Y-19551385D01*
X3727619Y-19551385D01*
X3746667Y-19560909D01*
X3756191Y-19579956D01*
X3756191Y-19684718D01*
X3756191Y-19579956D02*
X3765715Y-19560909D01*
X3784762Y-19551385D01*
X3813334Y-19551385D01*
X3832381Y-19560909D01*
X3841905Y-19579956D01*
X3841905Y-19684718D01*
X4232381Y-19475194D02*
X4060953Y-19732337D01*
X4489524Y-19484718D02*
X4508572Y-19484718D01*
X4527619Y-19494242D01*
X4537143Y-19503766D01*
X4546667Y-19522813D01*
X4556191Y-19560909D01*
X4556191Y-19608528D01*
X4546667Y-19646623D01*
X4537143Y-19665671D01*
X4527619Y-19675194D01*
X4508572Y-19684718D01*
X4489524Y-19684718D01*
X4470477Y-19675194D01*
X4460953Y-19665671D01*
X4451429Y-19646623D01*
X4441905Y-19608528D01*
X4441905Y-19560909D01*
X4451429Y-19522813D01*
X4460953Y-19503766D01*
X4470477Y-19494242D01*
X4489524Y-19484718D01*
X4641905Y-19665671D02*
X4651429Y-19675194D01*
X4641905Y-19684718D01*
X4632381Y-19675194D01*
X4641905Y-19665671D01*
X4641905Y-19684718D01*
X4775238Y-19484718D02*
X4794286Y-19484718D01*
X4813334Y-19494242D01*
X4822858Y-19503766D01*
X4832381Y-19522813D01*
X4841905Y-19560909D01*
X4841905Y-19608528D01*
X4832381Y-19646623D01*
X4822858Y-19665671D01*
X4813334Y-19675194D01*
X4794286Y-19684718D01*
X4775238Y-19684718D01*
X4756191Y-19675194D01*
X4746667Y-19665671D01*
X4737143Y-19646623D01*
X4727619Y-19608528D01*
X4727619Y-19560909D01*
X4737143Y-19522813D01*
X4746667Y-19503766D01*
X4756191Y-19494242D01*
X4775238Y-19484718D01*
X4908572Y-19484718D02*
X5032381Y-19484718D01*
X4965715Y-19560909D01*
X4994286Y-19560909D01*
X5013334Y-19570432D01*
X5022858Y-19579956D01*
X5032381Y-19599004D01*
X5032381Y-19646623D01*
X5022858Y-19665671D01*
X5013334Y-19675194D01*
X4994286Y-19684718D01*
X4937143Y-19684718D01*
X4918096Y-19675194D01*
X4908572Y-19665671D01*
X5127619Y-19684718D02*
X5165715Y-19684718D01*
X5184762Y-19675194D01*
X5194286Y-19665671D01*
X5213334Y-19637099D01*
X5222858Y-19599004D01*
X5222858Y-19522813D01*
X5213334Y-19503766D01*
X5203810Y-19494242D01*
X5184762Y-19484718D01*
X5146667Y-19484718D01*
X5127619Y-19494242D01*
X5118096Y-19503766D01*
X5108572Y-19522813D01*
X5108572Y-19570432D01*
X5118096Y-19589480D01*
X5127619Y-19599004D01*
X5146667Y-19608528D01*
X5184762Y-19608528D01*
X5203810Y-19599004D01*
X5213334Y-19589480D01*
X5222858Y-19570432D01*
X5346667Y-19484718D02*
X5365715Y-19484718D01*
X5384762Y-19494242D01*
X5394286Y-19503766D01*
X5403810Y-19522813D01*
X5413334Y-19560909D01*
X5413334Y-19608528D01*
X5403810Y-19646623D01*
X5394286Y-19665671D01*
X5384762Y-19675194D01*
X5365715Y-19684718D01*
X5346667Y-19684718D01*
X5327619Y-19675194D01*
X5318096Y-19665671D01*
X5308572Y-19646623D01*
X5299048Y-19608528D01*
X5299048Y-19560909D01*
X5308572Y-19522813D01*
X5318096Y-19503766D01*
X5327619Y-19494242D01*
X5346667Y-19484718D01*
X5489524Y-19484718D02*
X5489524Y-19522813D01*
X5565715Y-19484718D02*
X5565715Y-19522813D01*
X5860953Y-19760909D02*
X5851429Y-19751385D01*
X5832381Y-19722813D01*
X5822857Y-19703766D01*
X5813334Y-19675194D01*
X5803810Y-19627575D01*
X5803810Y-19589480D01*
X5813334Y-19541861D01*
X5822857Y-19513290D01*
X5832381Y-19494242D01*
X5851429Y-19465671D01*
X5860953Y-19456147D01*
X5927619Y-19503766D02*
X5937143Y-19494242D01*
X5956191Y-19484718D01*
X6003810Y-19484718D01*
X6022857Y-19494242D01*
X6032381Y-19503766D01*
X6041905Y-19522813D01*
X6041905Y-19541861D01*
X6032381Y-19570432D01*
X5918096Y-19684718D01*
X6041905Y-19684718D01*
X6280000Y-19684718D02*
X6280000Y-19484718D01*
X6365715Y-19684718D02*
X6365715Y-19579956D01*
X6356191Y-19560909D01*
X6337143Y-19551385D01*
X6308572Y-19551385D01*
X6289524Y-19560909D01*
X6280000Y-19570432D01*
X6489524Y-19684718D02*
X6470476Y-19675194D01*
X6460953Y-19665671D01*
X6451429Y-19646623D01*
X6451429Y-19589480D01*
X6460953Y-19570432D01*
X6470476Y-19560909D01*
X6489524Y-19551385D01*
X6518096Y-19551385D01*
X6537143Y-19560909D01*
X6546667Y-19570432D01*
X6556191Y-19589480D01*
X6556191Y-19646623D01*
X6546667Y-19665671D01*
X6537143Y-19675194D01*
X6518096Y-19684718D01*
X6489524Y-19684718D01*
X6670476Y-19684718D02*
X6651429Y-19675194D01*
X6641905Y-19656147D01*
X6641905Y-19484718D01*
X6822857Y-19675194D02*
X6803810Y-19684718D01*
X6765715Y-19684718D01*
X6746667Y-19675194D01*
X6737143Y-19656147D01*
X6737143Y-19579956D01*
X6746667Y-19560909D01*
X6765715Y-19551385D01*
X6803810Y-19551385D01*
X6822857Y-19560909D01*
X6832381Y-19579956D01*
X6832381Y-19599004D01*
X6737143Y-19618052D01*
X6908572Y-19675194D02*
X6927619Y-19684718D01*
X6965715Y-19684718D01*
X6984762Y-19675194D01*
X6994286Y-19656147D01*
X6994286Y-19646623D01*
X6984762Y-19627575D01*
X6965715Y-19618052D01*
X6937143Y-19618052D01*
X6918096Y-19608528D01*
X6908572Y-19589480D01*
X6908572Y-19579956D01*
X6918096Y-19560909D01*
X6937143Y-19551385D01*
X6965715Y-19551385D01*
X6984762Y-19560909D01*
X7060953Y-19760909D02*
X7070476Y-19751385D01*
X7089524Y-19722813D01*
X7099048Y-19703766D01*
X7108572Y-19675194D01*
X7118096Y-19627575D01*
X7118096Y-19589480D01*
X7108572Y-19541861D01*
X7099048Y-19513290D01*
X7089524Y-19494242D01*
X7070476Y-19465671D01*
X7060953Y-19456147D01*
X7422857Y-19760909D02*
X7413334Y-19751385D01*
X7394286Y-19722813D01*
X7384762Y-19703766D01*
X7375238Y-19675194D01*
X7365715Y-19627575D01*
X7365715Y-19589480D01*
X7375238Y-19541861D01*
X7384762Y-19513290D01*
X7394286Y-19494242D01*
X7413334Y-19465671D01*
X7422857Y-19456147D01*
X7499048Y-19551385D02*
X7499048Y-19684718D01*
X7499048Y-19570432D02*
X7508572Y-19560909D01*
X7527619Y-19551385D01*
X7556191Y-19551385D01*
X7575238Y-19560909D01*
X7584762Y-19579956D01*
X7584762Y-19684718D01*
X7708572Y-19684718D02*
X7689524Y-19675194D01*
X7680000Y-19665671D01*
X7670476Y-19646623D01*
X7670476Y-19589480D01*
X7680000Y-19570432D01*
X7689524Y-19560909D01*
X7708572Y-19551385D01*
X7737143Y-19551385D01*
X7756191Y-19560909D01*
X7765715Y-19570432D01*
X7775238Y-19589480D01*
X7775238Y-19646623D01*
X7765715Y-19665671D01*
X7756191Y-19675194D01*
X7737143Y-19684718D01*
X7708572Y-19684718D01*
X7832381Y-19551385D02*
X7908572Y-19551385D01*
X7860953Y-19484718D02*
X7860953Y-19656147D01*
X7870476Y-19675194D01*
X7889524Y-19684718D01*
X7908572Y-19684718D01*
X8127619Y-19551385D02*
X8127619Y-19751385D01*
X8127619Y-19560909D02*
X8146667Y-19551385D01*
X8184762Y-19551385D01*
X8203810Y-19560909D01*
X8213334Y-19570432D01*
X8222857Y-19589480D01*
X8222857Y-19646623D01*
X8213334Y-19665671D01*
X8203810Y-19675194D01*
X8184762Y-19684718D01*
X8146667Y-19684718D01*
X8127619Y-19675194D01*
X8337143Y-19684718D02*
X8318096Y-19675194D01*
X8308572Y-19656147D01*
X8308572Y-19484718D01*
X8499048Y-19684718D02*
X8499048Y-19579956D01*
X8489524Y-19560909D01*
X8470477Y-19551385D01*
X8432381Y-19551385D01*
X8413334Y-19560909D01*
X8499048Y-19675194D02*
X8480000Y-19684718D01*
X8432381Y-19684718D01*
X8413334Y-19675194D01*
X8403810Y-19656147D01*
X8403810Y-19637099D01*
X8413334Y-19618052D01*
X8432381Y-19608528D01*
X8480000Y-19608528D01*
X8499048Y-19599004D01*
X8565715Y-19551385D02*
X8641905Y-19551385D01*
X8594286Y-19484718D02*
X8594286Y-19656147D01*
X8603810Y-19675194D01*
X8622858Y-19684718D01*
X8641905Y-19684718D01*
X8784762Y-19675194D02*
X8765715Y-19684718D01*
X8727619Y-19684718D01*
X8708572Y-19675194D01*
X8699048Y-19656147D01*
X8699048Y-19579956D01*
X8708572Y-19560909D01*
X8727619Y-19551385D01*
X8765715Y-19551385D01*
X8784762Y-19560909D01*
X8794286Y-19579956D01*
X8794286Y-19599004D01*
X8699048Y-19618052D01*
X8965715Y-19684718D02*
X8965715Y-19484718D01*
X8965715Y-19675194D02*
X8946667Y-19684718D01*
X8908572Y-19684718D01*
X8889524Y-19675194D01*
X8880000Y-19665671D01*
X8870477Y-19646623D01*
X8870477Y-19589480D01*
X8880000Y-19570432D01*
X8889524Y-19560909D01*
X8908572Y-19551385D01*
X8946667Y-19551385D01*
X8965715Y-19560909D01*
X9041905Y-19760909D02*
X9051429Y-19751385D01*
X9070477Y-19722813D01*
X9080000Y-19703766D01*
X9089524Y-19675194D01*
X9099048Y-19627575D01*
X9099048Y-19589480D01*
X9089524Y-19541861D01*
X9080000Y-19513290D01*
X9070477Y-19494242D01*
X9051429Y-19465671D01*
X9041905Y-19456147D01*
D13*
X2289048Y-19858242D02*
G75*
G03*
X2289048Y-19858242I-54610J0D01*
G01*
D11*
X2651429Y-19948718D02*
X2537143Y-19948718D01*
X2594286Y-19948718D02*
X2594286Y-19748718D01*
X2575238Y-19777290D01*
X2556191Y-19796337D01*
X2537143Y-19805861D01*
X2737143Y-19929671D02*
X2746667Y-19939194D01*
X2737143Y-19948718D01*
X2727619Y-19939194D01*
X2737143Y-19929671D01*
X2737143Y-19948718D01*
X2870476Y-19748718D02*
X2889524Y-19748718D01*
X2908572Y-19758242D01*
X2918096Y-19767766D01*
X2927619Y-19786813D01*
X2937143Y-19824909D01*
X2937143Y-19872528D01*
X2927619Y-19910623D01*
X2918096Y-19929671D01*
X2908572Y-19939194D01*
X2889524Y-19948718D01*
X2870476Y-19948718D01*
X2851429Y-19939194D01*
X2841905Y-19929671D01*
X2832381Y-19910623D01*
X2822857Y-19872528D01*
X2822857Y-19824909D01*
X2832381Y-19786813D01*
X2841905Y-19767766D01*
X2851429Y-19758242D01*
X2870476Y-19748718D01*
X3032381Y-19948718D02*
X3070476Y-19948718D01*
X3089524Y-19939194D01*
X3099048Y-19929671D01*
X3118096Y-19901099D01*
X3127619Y-19863004D01*
X3127619Y-19786813D01*
X3118096Y-19767766D01*
X3108572Y-19758242D01*
X3089524Y-19748718D01*
X3051429Y-19748718D01*
X3032381Y-19758242D01*
X3022857Y-19767766D01*
X3013334Y-19786813D01*
X3013334Y-19834432D01*
X3022857Y-19853480D01*
X3032381Y-19863004D01*
X3051429Y-19872528D01*
X3089524Y-19872528D01*
X3108572Y-19863004D01*
X3118096Y-19853480D01*
X3127619Y-19834432D01*
X3203810Y-19767766D02*
X3213334Y-19758242D01*
X3232381Y-19748718D01*
X3280000Y-19748718D01*
X3299048Y-19758242D01*
X3308572Y-19767766D01*
X3318096Y-19786813D01*
X3318096Y-19805861D01*
X3308572Y-19834432D01*
X3194286Y-19948718D01*
X3318096Y-19948718D01*
X3403810Y-19948718D02*
X3403810Y-19815385D01*
X3403810Y-19834432D02*
X3413334Y-19824909D01*
X3432381Y-19815385D01*
X3460953Y-19815385D01*
X3480000Y-19824909D01*
X3489524Y-19843956D01*
X3489524Y-19948718D01*
X3489524Y-19843956D02*
X3499048Y-19824909D01*
X3518096Y-19815385D01*
X3546667Y-19815385D01*
X3565715Y-19824909D01*
X3575238Y-19843956D01*
X3575238Y-19948718D01*
X3670476Y-19948718D02*
X3670476Y-19815385D01*
X3670476Y-19834432D02*
X3680000Y-19824909D01*
X3699048Y-19815385D01*
X3727619Y-19815385D01*
X3746667Y-19824909D01*
X3756191Y-19843956D01*
X3756191Y-19948718D01*
X3756191Y-19843956D02*
X3765715Y-19824909D01*
X3784762Y-19815385D01*
X3813334Y-19815385D01*
X3832381Y-19824909D01*
X3841905Y-19843956D01*
X3841905Y-19948718D01*
X4232381Y-19739194D02*
X4060953Y-19996337D01*
X4489524Y-19748718D02*
X4508572Y-19748718D01*
X4527619Y-19758242D01*
X4537143Y-19767766D01*
X4546667Y-19786813D01*
X4556191Y-19824909D01*
X4556191Y-19872528D01*
X4546667Y-19910623D01*
X4537143Y-19929671D01*
X4527619Y-19939194D01*
X4508572Y-19948718D01*
X4489524Y-19948718D01*
X4470477Y-19939194D01*
X4460953Y-19929671D01*
X4451429Y-19910623D01*
X4441905Y-19872528D01*
X4441905Y-19824909D01*
X4451429Y-19786813D01*
X4460953Y-19767766D01*
X4470477Y-19758242D01*
X4489524Y-19748718D01*
X4641905Y-19929671D02*
X4651429Y-19939194D01*
X4641905Y-19948718D01*
X4632381Y-19939194D01*
X4641905Y-19929671D01*
X4641905Y-19948718D01*
X4775238Y-19748718D02*
X4794286Y-19748718D01*
X4813334Y-19758242D01*
X4822858Y-19767766D01*
X4832381Y-19786813D01*
X4841905Y-19824909D01*
X4841905Y-19872528D01*
X4832381Y-19910623D01*
X4822858Y-19929671D01*
X4813334Y-19939194D01*
X4794286Y-19948718D01*
X4775238Y-19948718D01*
X4756191Y-19939194D01*
X4746667Y-19929671D01*
X4737143Y-19910623D01*
X4727619Y-19872528D01*
X4727619Y-19824909D01*
X4737143Y-19786813D01*
X4746667Y-19767766D01*
X4756191Y-19758242D01*
X4775238Y-19748718D01*
X5013334Y-19815385D02*
X5013334Y-19948718D01*
X4965715Y-19739194D02*
X4918096Y-19882052D01*
X5041905Y-19882052D01*
X5099048Y-19748718D02*
X5222858Y-19748718D01*
X5156191Y-19824909D01*
X5184762Y-19824909D01*
X5203810Y-19834432D01*
X5213334Y-19843956D01*
X5222858Y-19863004D01*
X5222858Y-19910623D01*
X5213334Y-19929671D01*
X5203810Y-19939194D01*
X5184762Y-19948718D01*
X5127619Y-19948718D01*
X5108572Y-19939194D01*
X5099048Y-19929671D01*
X5346667Y-19748718D02*
X5365715Y-19748718D01*
X5384762Y-19758242D01*
X5394286Y-19767766D01*
X5403810Y-19786813D01*
X5413334Y-19824909D01*
X5413334Y-19872528D01*
X5403810Y-19910623D01*
X5394286Y-19929671D01*
X5384762Y-19939194D01*
X5365715Y-19948718D01*
X5346667Y-19948718D01*
X5327619Y-19939194D01*
X5318096Y-19929671D01*
X5308572Y-19910623D01*
X5299048Y-19872528D01*
X5299048Y-19824909D01*
X5308572Y-19786813D01*
X5318096Y-19767766D01*
X5327619Y-19758242D01*
X5346667Y-19748718D01*
X5489524Y-19748718D02*
X5489524Y-19786813D01*
X5565715Y-19748718D02*
X5565715Y-19786813D01*
X5860953Y-20024909D02*
X5851429Y-20015385D01*
X5832381Y-19986813D01*
X5822857Y-19967766D01*
X5813334Y-19939194D01*
X5803810Y-19891575D01*
X5803810Y-19853480D01*
X5813334Y-19805861D01*
X5822857Y-19777290D01*
X5832381Y-19758242D01*
X5851429Y-19729671D01*
X5860953Y-19720147D01*
X5918096Y-19748718D02*
X6041905Y-19748718D01*
X5975238Y-19824909D01*
X6003810Y-19824909D01*
X6022857Y-19834432D01*
X6032381Y-19843956D01*
X6041905Y-19863004D01*
X6041905Y-19910623D01*
X6032381Y-19929671D01*
X6022857Y-19939194D01*
X6003810Y-19948718D01*
X5946667Y-19948718D01*
X5927619Y-19939194D01*
X5918096Y-19929671D01*
X6280000Y-19948718D02*
X6280000Y-19748718D01*
X6365715Y-19948718D02*
X6365715Y-19843956D01*
X6356191Y-19824909D01*
X6337143Y-19815385D01*
X6308572Y-19815385D01*
X6289524Y-19824909D01*
X6280000Y-19834432D01*
X6489524Y-19948718D02*
X6470476Y-19939194D01*
X6460953Y-19929671D01*
X6451429Y-19910623D01*
X6451429Y-19853480D01*
X6460953Y-19834432D01*
X6470476Y-19824909D01*
X6489524Y-19815385D01*
X6518096Y-19815385D01*
X6537143Y-19824909D01*
X6546667Y-19834432D01*
X6556191Y-19853480D01*
X6556191Y-19910623D01*
X6546667Y-19929671D01*
X6537143Y-19939194D01*
X6518096Y-19948718D01*
X6489524Y-19948718D01*
X6670476Y-19948718D02*
X6651429Y-19939194D01*
X6641905Y-19920147D01*
X6641905Y-19748718D01*
X6822857Y-19939194D02*
X6803810Y-19948718D01*
X6765715Y-19948718D01*
X6746667Y-19939194D01*
X6737143Y-19920147D01*
X6737143Y-19843956D01*
X6746667Y-19824909D01*
X6765715Y-19815385D01*
X6803810Y-19815385D01*
X6822857Y-19824909D01*
X6832381Y-19843956D01*
X6832381Y-19863004D01*
X6737143Y-19882052D01*
X6908572Y-19939194D02*
X6927619Y-19948718D01*
X6965715Y-19948718D01*
X6984762Y-19939194D01*
X6994286Y-19920147D01*
X6994286Y-19910623D01*
X6984762Y-19891575D01*
X6965715Y-19882052D01*
X6937143Y-19882052D01*
X6918096Y-19872528D01*
X6908572Y-19853480D01*
X6908572Y-19843956D01*
X6918096Y-19824909D01*
X6937143Y-19815385D01*
X6965715Y-19815385D01*
X6984762Y-19824909D01*
X7060953Y-20024909D02*
X7070476Y-20015385D01*
X7089524Y-19986813D01*
X7099048Y-19967766D01*
X7108572Y-19939194D01*
X7118096Y-19891575D01*
X7118096Y-19853480D01*
X7108572Y-19805861D01*
X7099048Y-19777290D01*
X7089524Y-19758242D01*
X7070476Y-19729671D01*
X7060953Y-19720147D01*
X7422857Y-20024909D02*
X7413334Y-20015385D01*
X7394286Y-19986813D01*
X7384762Y-19967766D01*
X7375238Y-19939194D01*
X7365715Y-19891575D01*
X7365715Y-19853480D01*
X7375238Y-19805861D01*
X7384762Y-19777290D01*
X7394286Y-19758242D01*
X7413334Y-19729671D01*
X7422857Y-19720147D01*
X7499048Y-19815385D02*
X7499048Y-19948718D01*
X7499048Y-19834432D02*
X7508572Y-19824909D01*
X7527619Y-19815385D01*
X7556191Y-19815385D01*
X7575238Y-19824909D01*
X7584762Y-19843956D01*
X7584762Y-19948718D01*
X7708572Y-19948718D02*
X7689524Y-19939194D01*
X7680000Y-19929671D01*
X7670476Y-19910623D01*
X7670476Y-19853480D01*
X7680000Y-19834432D01*
X7689524Y-19824909D01*
X7708572Y-19815385D01*
X7737143Y-19815385D01*
X7756191Y-19824909D01*
X7765715Y-19834432D01*
X7775238Y-19853480D01*
X7775238Y-19910623D01*
X7765715Y-19929671D01*
X7756191Y-19939194D01*
X7737143Y-19948718D01*
X7708572Y-19948718D01*
X7832381Y-19815385D02*
X7908572Y-19815385D01*
X7860953Y-19748718D02*
X7860953Y-19920147D01*
X7870476Y-19939194D01*
X7889524Y-19948718D01*
X7908572Y-19948718D01*
X8127619Y-19815385D02*
X8127619Y-20015385D01*
X8127619Y-19824909D02*
X8146667Y-19815385D01*
X8184762Y-19815385D01*
X8203810Y-19824909D01*
X8213334Y-19834432D01*
X8222857Y-19853480D01*
X8222857Y-19910623D01*
X8213334Y-19929671D01*
X8203810Y-19939194D01*
X8184762Y-19948718D01*
X8146667Y-19948718D01*
X8127619Y-19939194D01*
X8337143Y-19948718D02*
X8318096Y-19939194D01*
X8308572Y-19920147D01*
X8308572Y-19748718D01*
X8499048Y-19948718D02*
X8499048Y-19843956D01*
X8489524Y-19824909D01*
X8470477Y-19815385D01*
X8432381Y-19815385D01*
X8413334Y-19824909D01*
X8499048Y-19939194D02*
X8480000Y-19948718D01*
X8432381Y-19948718D01*
X8413334Y-19939194D01*
X8403810Y-19920147D01*
X8403810Y-19901099D01*
X8413334Y-19882052D01*
X8432381Y-19872528D01*
X8480000Y-19872528D01*
X8499048Y-19863004D01*
X8565715Y-19815385D02*
X8641905Y-19815385D01*
X8594286Y-19748718D02*
X8594286Y-19920147D01*
X8603810Y-19939194D01*
X8622858Y-19948718D01*
X8641905Y-19948718D01*
X8784762Y-19939194D02*
X8765715Y-19948718D01*
X8727619Y-19948718D01*
X8708572Y-19939194D01*
X8699048Y-19920147D01*
X8699048Y-19843956D01*
X8708572Y-19824909D01*
X8727619Y-19815385D01*
X8765715Y-19815385D01*
X8784762Y-19824909D01*
X8794286Y-19843956D01*
X8794286Y-19863004D01*
X8699048Y-19882052D01*
X8965715Y-19948718D02*
X8965715Y-19748718D01*
X8965715Y-19939194D02*
X8946667Y-19948718D01*
X8908572Y-19948718D01*
X8889524Y-19939194D01*
X8880000Y-19929671D01*
X8870477Y-19910623D01*
X8870477Y-19853480D01*
X8880000Y-19834432D01*
X8889524Y-19824909D01*
X8908572Y-19815385D01*
X8946667Y-19815385D01*
X8965715Y-19824909D01*
X9041905Y-20024909D02*
X9051429Y-20015385D01*
X9070477Y-19986813D01*
X9080000Y-19967766D01*
X9089524Y-19939194D01*
X9099048Y-19891575D01*
X9099048Y-19853480D01*
X9089524Y-19805861D01*
X9080000Y-19777290D01*
X9070477Y-19758242D01*
X9051429Y-19729671D01*
X9041905Y-19720147D01*
D14*
X2203958Y-20037152D02*
X2203958Y-20207332D01*
X2118868Y-20122242D02*
X2289048Y-20122242D01*
D11*
X2651429Y-20212718D02*
X2537143Y-20212718D01*
X2594286Y-20212718D02*
X2594286Y-20012718D01*
X2575238Y-20041290D01*
X2556191Y-20060337D01*
X2537143Y-20069861D01*
X2737143Y-20193671D02*
X2746667Y-20203194D01*
X2737143Y-20212718D01*
X2727619Y-20203194D01*
X2737143Y-20193671D01*
X2737143Y-20212718D01*
X2813334Y-20012718D02*
X2946667Y-20012718D01*
X2860953Y-20212718D01*
X3060953Y-20012718D02*
X3080000Y-20012718D01*
X3099048Y-20022242D01*
X3108572Y-20031766D01*
X3118096Y-20050813D01*
X3127619Y-20088909D01*
X3127619Y-20136528D01*
X3118096Y-20174623D01*
X3108572Y-20193671D01*
X3099048Y-20203194D01*
X3080000Y-20212718D01*
X3060953Y-20212718D01*
X3041905Y-20203194D01*
X3032381Y-20193671D01*
X3022857Y-20174623D01*
X3013334Y-20136528D01*
X3013334Y-20088909D01*
X3022857Y-20050813D01*
X3032381Y-20031766D01*
X3041905Y-20022242D01*
X3060953Y-20012718D01*
X3203810Y-20031766D02*
X3213334Y-20022242D01*
X3232381Y-20012718D01*
X3280000Y-20012718D01*
X3299048Y-20022242D01*
X3308572Y-20031766D01*
X3318096Y-20050813D01*
X3318096Y-20069861D01*
X3308572Y-20098432D01*
X3194286Y-20212718D01*
X3318096Y-20212718D01*
X3403810Y-20212718D02*
X3403810Y-20079385D01*
X3403810Y-20098432D02*
X3413334Y-20088909D01*
X3432381Y-20079385D01*
X3460953Y-20079385D01*
X3480000Y-20088909D01*
X3489524Y-20107956D01*
X3489524Y-20212718D01*
X3489524Y-20107956D02*
X3499048Y-20088909D01*
X3518096Y-20079385D01*
X3546667Y-20079385D01*
X3565715Y-20088909D01*
X3575238Y-20107956D01*
X3575238Y-20212718D01*
X3670476Y-20212718D02*
X3670476Y-20079385D01*
X3670476Y-20098432D02*
X3680000Y-20088909D01*
X3699048Y-20079385D01*
X3727619Y-20079385D01*
X3746667Y-20088909D01*
X3756191Y-20107956D01*
X3756191Y-20212718D01*
X3756191Y-20107956D02*
X3765715Y-20088909D01*
X3784762Y-20079385D01*
X3813334Y-20079385D01*
X3832381Y-20088909D01*
X3841905Y-20107956D01*
X3841905Y-20212718D01*
X4232381Y-20003194D02*
X4060953Y-20260337D01*
X4489524Y-20012718D02*
X4508572Y-20012718D01*
X4527619Y-20022242D01*
X4537143Y-20031766D01*
X4546667Y-20050813D01*
X4556191Y-20088909D01*
X4556191Y-20136528D01*
X4546667Y-20174623D01*
X4537143Y-20193671D01*
X4527619Y-20203194D01*
X4508572Y-20212718D01*
X4489524Y-20212718D01*
X4470477Y-20203194D01*
X4460953Y-20193671D01*
X4451429Y-20174623D01*
X4441905Y-20136528D01*
X4441905Y-20088909D01*
X4451429Y-20050813D01*
X4460953Y-20031766D01*
X4470477Y-20022242D01*
X4489524Y-20012718D01*
X4641905Y-20193671D02*
X4651429Y-20203194D01*
X4641905Y-20212718D01*
X4632381Y-20203194D01*
X4641905Y-20193671D01*
X4641905Y-20212718D01*
X4775238Y-20012718D02*
X4794286Y-20012718D01*
X4813334Y-20022242D01*
X4822858Y-20031766D01*
X4832381Y-20050813D01*
X4841905Y-20088909D01*
X4841905Y-20136528D01*
X4832381Y-20174623D01*
X4822858Y-20193671D01*
X4813334Y-20203194D01*
X4794286Y-20212718D01*
X4775238Y-20212718D01*
X4756191Y-20203194D01*
X4746667Y-20193671D01*
X4737143Y-20174623D01*
X4727619Y-20136528D01*
X4727619Y-20088909D01*
X4737143Y-20050813D01*
X4746667Y-20031766D01*
X4756191Y-20022242D01*
X4775238Y-20012718D01*
X5013334Y-20012718D02*
X4975238Y-20012718D01*
X4956191Y-20022242D01*
X4946667Y-20031766D01*
X4927619Y-20060337D01*
X4918096Y-20098432D01*
X4918096Y-20174623D01*
X4927619Y-20193671D01*
X4937143Y-20203194D01*
X4956191Y-20212718D01*
X4994286Y-20212718D01*
X5013334Y-20203194D01*
X5022858Y-20193671D01*
X5032381Y-20174623D01*
X5032381Y-20127004D01*
X5022858Y-20107956D01*
X5013334Y-20098432D01*
X4994286Y-20088909D01*
X4956191Y-20088909D01*
X4937143Y-20098432D01*
X4927619Y-20107956D01*
X4918096Y-20127004D01*
X5099048Y-20012718D02*
X5232381Y-20012718D01*
X5146667Y-20212718D01*
X5346667Y-20012718D02*
X5365715Y-20012718D01*
X5384762Y-20022242D01*
X5394286Y-20031766D01*
X5403810Y-20050813D01*
X5413334Y-20088909D01*
X5413334Y-20136528D01*
X5403810Y-20174623D01*
X5394286Y-20193671D01*
X5384762Y-20203194D01*
X5365715Y-20212718D01*
X5346667Y-20212718D01*
X5327619Y-20203194D01*
X5318096Y-20193671D01*
X5308572Y-20174623D01*
X5299048Y-20136528D01*
X5299048Y-20088909D01*
X5308572Y-20050813D01*
X5318096Y-20031766D01*
X5327619Y-20022242D01*
X5346667Y-20012718D01*
X5489524Y-20012718D02*
X5489524Y-20050813D01*
X5565715Y-20012718D02*
X5565715Y-20050813D01*
X5860953Y-20288909D02*
X5851429Y-20279385D01*
X5832381Y-20250813D01*
X5822857Y-20231766D01*
X5813334Y-20203194D01*
X5803810Y-20155575D01*
X5803810Y-20117480D01*
X5813334Y-20069861D01*
X5822857Y-20041290D01*
X5832381Y-20022242D01*
X5851429Y-19993671D01*
X5860953Y-19984147D01*
X5965715Y-20098432D02*
X5946667Y-20088909D01*
X5937143Y-20079385D01*
X5927619Y-20060337D01*
X5927619Y-20050813D01*
X5937143Y-20031766D01*
X5946667Y-20022242D01*
X5965715Y-20012718D01*
X6003810Y-20012718D01*
X6022857Y-20022242D01*
X6032381Y-20031766D01*
X6041905Y-20050813D01*
X6041905Y-20060337D01*
X6032381Y-20079385D01*
X6022857Y-20088909D01*
X6003810Y-20098432D01*
X5965715Y-20098432D01*
X5946667Y-20107956D01*
X5937143Y-20117480D01*
X5927619Y-20136528D01*
X5927619Y-20174623D01*
X5937143Y-20193671D01*
X5946667Y-20203194D01*
X5965715Y-20212718D01*
X6003810Y-20212718D01*
X6022857Y-20203194D01*
X6032381Y-20193671D01*
X6041905Y-20174623D01*
X6041905Y-20136528D01*
X6032381Y-20117480D01*
X6022857Y-20107956D01*
X6003810Y-20098432D01*
X6213334Y-20079385D02*
X6213334Y-20212718D01*
X6165715Y-20003194D02*
X6118096Y-20146052D01*
X6241905Y-20146052D01*
X6470476Y-20212718D02*
X6470476Y-20012718D01*
X6556191Y-20212718D02*
X6556191Y-20107956D01*
X6546667Y-20088909D01*
X6527619Y-20079385D01*
X6499048Y-20079385D01*
X6480000Y-20088909D01*
X6470476Y-20098432D01*
X6680000Y-20212718D02*
X6660953Y-20203194D01*
X6651429Y-20193671D01*
X6641905Y-20174623D01*
X6641905Y-20117480D01*
X6651429Y-20098432D01*
X6660953Y-20088909D01*
X6680000Y-20079385D01*
X6708572Y-20079385D01*
X6727619Y-20088909D01*
X6737143Y-20098432D01*
X6746667Y-20117480D01*
X6746667Y-20174623D01*
X6737143Y-20193671D01*
X6727619Y-20203194D01*
X6708572Y-20212718D01*
X6680000Y-20212718D01*
X6860953Y-20212718D02*
X6841905Y-20203194D01*
X6832381Y-20184147D01*
X6832381Y-20012718D01*
X7013334Y-20203194D02*
X6994286Y-20212718D01*
X6956191Y-20212718D01*
X6937143Y-20203194D01*
X6927619Y-20184147D01*
X6927619Y-20107956D01*
X6937143Y-20088909D01*
X6956191Y-20079385D01*
X6994286Y-20079385D01*
X7013334Y-20088909D01*
X7022857Y-20107956D01*
X7022857Y-20127004D01*
X6927619Y-20146052D01*
X7099048Y-20203194D02*
X7118096Y-20212718D01*
X7156191Y-20212718D01*
X7175238Y-20203194D01*
X7184762Y-20184147D01*
X7184762Y-20174623D01*
X7175238Y-20155575D01*
X7156191Y-20146052D01*
X7127619Y-20146052D01*
X7108572Y-20136528D01*
X7099048Y-20117480D01*
X7099048Y-20107956D01*
X7108572Y-20088909D01*
X7127619Y-20079385D01*
X7156191Y-20079385D01*
X7175238Y-20088909D01*
X7251429Y-20288909D02*
X7260953Y-20279385D01*
X7280000Y-20250813D01*
X7289524Y-20231766D01*
X7299048Y-20203194D01*
X7308572Y-20155575D01*
X7308572Y-20117480D01*
X7299048Y-20069861D01*
X7289524Y-20041290D01*
X7280000Y-20022242D01*
X7260953Y-19993671D01*
X7251429Y-19984147D01*
X7613334Y-20288909D02*
X7603810Y-20279385D01*
X7584762Y-20250813D01*
X7575238Y-20231766D01*
X7565715Y-20203194D01*
X7556191Y-20155575D01*
X7556191Y-20117480D01*
X7565715Y-20069861D01*
X7575238Y-20041290D01*
X7584762Y-20022242D01*
X7603810Y-19993671D01*
X7613334Y-19984147D01*
X7689524Y-20079385D02*
X7689524Y-20212718D01*
X7689524Y-20098432D02*
X7699048Y-20088909D01*
X7718096Y-20079385D01*
X7746667Y-20079385D01*
X7765715Y-20088909D01*
X7775238Y-20107956D01*
X7775238Y-20212718D01*
X7899048Y-20212718D02*
X7880000Y-20203194D01*
X7870476Y-20193671D01*
X7860953Y-20174623D01*
X7860953Y-20117480D01*
X7870476Y-20098432D01*
X7880000Y-20088909D01*
X7899048Y-20079385D01*
X7927619Y-20079385D01*
X7946667Y-20088909D01*
X7956191Y-20098432D01*
X7965715Y-20117480D01*
X7965715Y-20174623D01*
X7956191Y-20193671D01*
X7946667Y-20203194D01*
X7927619Y-20212718D01*
X7899048Y-20212718D01*
X8022857Y-20079385D02*
X8099048Y-20079385D01*
X8051429Y-20012718D02*
X8051429Y-20184147D01*
X8060953Y-20203194D01*
X8080000Y-20212718D01*
X8099048Y-20212718D01*
X8318096Y-20079385D02*
X8318096Y-20279385D01*
X8318096Y-20088909D02*
X8337143Y-20079385D01*
X8375238Y-20079385D01*
X8394286Y-20088909D01*
X8403810Y-20098432D01*
X8413334Y-20117480D01*
X8413334Y-20174623D01*
X8403810Y-20193671D01*
X8394286Y-20203194D01*
X8375238Y-20212718D01*
X8337143Y-20212718D01*
X8318096Y-20203194D01*
X8527619Y-20212718D02*
X8508572Y-20203194D01*
X8499048Y-20184147D01*
X8499048Y-20012718D01*
X8689524Y-20212718D02*
X8689524Y-20107956D01*
X8680000Y-20088909D01*
X8660953Y-20079385D01*
X8622858Y-20079385D01*
X8603810Y-20088909D01*
X8689524Y-20203194D02*
X8670477Y-20212718D01*
X8622858Y-20212718D01*
X8603810Y-20203194D01*
X8594286Y-20184147D01*
X8594286Y-20165099D01*
X8603810Y-20146052D01*
X8622858Y-20136528D01*
X8670477Y-20136528D01*
X8689524Y-20127004D01*
X8756191Y-20079385D02*
X8832381Y-20079385D01*
X8784762Y-20012718D02*
X8784762Y-20184147D01*
X8794286Y-20203194D01*
X8813334Y-20212718D01*
X8832381Y-20212718D01*
X8975238Y-20203194D02*
X8956191Y-20212718D01*
X8918096Y-20212718D01*
X8899048Y-20203194D01*
X8889524Y-20184147D01*
X8889524Y-20107956D01*
X8899048Y-20088909D01*
X8918096Y-20079385D01*
X8956191Y-20079385D01*
X8975238Y-20088909D01*
X8984762Y-20107956D01*
X8984762Y-20127004D01*
X8889524Y-20146052D01*
X9156191Y-20212718D02*
X9156191Y-20012718D01*
X9156191Y-20203194D02*
X9137143Y-20212718D01*
X9099048Y-20212718D01*
X9080000Y-20203194D01*
X9070477Y-20193671D01*
X9060953Y-20174623D01*
X9060953Y-20117480D01*
X9070477Y-20098432D01*
X9080000Y-20088909D01*
X9099048Y-20079385D01*
X9137143Y-20079385D01*
X9156191Y-20088909D01*
X9232381Y-20288909D02*
X9241905Y-20279385D01*
X9260953Y-20250813D01*
X9270477Y-20231766D01*
X9280000Y-20203194D01*
X9289524Y-20155575D01*
X9289524Y-20117480D01*
X9280000Y-20069861D01*
X9270477Y-20041290D01*
X9260953Y-20022242D01*
X9241905Y-19993671D01*
X9232381Y-19984147D01*
X2259759Y-20483133D02*
X2259759Y-20341711D01*
X2118337Y-20341711D01*
X2118337Y-20483133D01*
X2259759Y-20483133D01*
X2527619Y-20302898D02*
X2651429Y-20302898D01*
X2584762Y-20379089D01*
X2613334Y-20379089D01*
X2632381Y-20388612D01*
X2641905Y-20398136D01*
X2651429Y-20417184D01*
X2651429Y-20464803D01*
X2641905Y-20483851D01*
X2632381Y-20493374D01*
X2613334Y-20502898D01*
X2556191Y-20502898D01*
X2537143Y-20493374D01*
X2527619Y-20483851D01*
X2737143Y-20483851D02*
X2746667Y-20493374D01*
X2737143Y-20502898D01*
X2727619Y-20493374D01*
X2737143Y-20483851D01*
X2737143Y-20502898D01*
X2870476Y-20302898D02*
X2889524Y-20302898D01*
X2908572Y-20312422D01*
X2918096Y-20321946D01*
X2927619Y-20340993D01*
X2937143Y-20379089D01*
X2937143Y-20426708D01*
X2927619Y-20464803D01*
X2918096Y-20483851D01*
X2908572Y-20493374D01*
X2889524Y-20502898D01*
X2870476Y-20502898D01*
X2851429Y-20493374D01*
X2841905Y-20483851D01*
X2832381Y-20464803D01*
X2822857Y-20426708D01*
X2822857Y-20379089D01*
X2832381Y-20340993D01*
X2841905Y-20321946D01*
X2851429Y-20312422D01*
X2870476Y-20302898D01*
X3108572Y-20369565D02*
X3108572Y-20502898D01*
X3060953Y-20293374D02*
X3013334Y-20436232D01*
X3137143Y-20436232D01*
X3241905Y-20388612D02*
X3222857Y-20379089D01*
X3213334Y-20369565D01*
X3203810Y-20350517D01*
X3203810Y-20340993D01*
X3213334Y-20321946D01*
X3222857Y-20312422D01*
X3241905Y-20302898D01*
X3280000Y-20302898D01*
X3299048Y-20312422D01*
X3308572Y-20321946D01*
X3318096Y-20340993D01*
X3318096Y-20350517D01*
X3308572Y-20369565D01*
X3299048Y-20379089D01*
X3280000Y-20388612D01*
X3241905Y-20388612D01*
X3222857Y-20398136D01*
X3213334Y-20407660D01*
X3203810Y-20426708D01*
X3203810Y-20464803D01*
X3213334Y-20483851D01*
X3222857Y-20493374D01*
X3241905Y-20502898D01*
X3280000Y-20502898D01*
X3299048Y-20493374D01*
X3308572Y-20483851D01*
X3318096Y-20464803D01*
X3318096Y-20426708D01*
X3308572Y-20407660D01*
X3299048Y-20398136D01*
X3280000Y-20388612D01*
X3403810Y-20502898D02*
X3403810Y-20369565D01*
X3403810Y-20388612D02*
X3413334Y-20379089D01*
X3432381Y-20369565D01*
X3460953Y-20369565D01*
X3480000Y-20379089D01*
X3489524Y-20398136D01*
X3489524Y-20502898D01*
X3489524Y-20398136D02*
X3499048Y-20379089D01*
X3518096Y-20369565D01*
X3546667Y-20369565D01*
X3565715Y-20379089D01*
X3575238Y-20398136D01*
X3575238Y-20502898D01*
X3670476Y-20502898D02*
X3670476Y-20369565D01*
X3670476Y-20388612D02*
X3680000Y-20379089D01*
X3699048Y-20369565D01*
X3727619Y-20369565D01*
X3746667Y-20379089D01*
X3756191Y-20398136D01*
X3756191Y-20502898D01*
X3756191Y-20398136D02*
X3765715Y-20379089D01*
X3784762Y-20369565D01*
X3813334Y-20369565D01*
X3832381Y-20379089D01*
X3841905Y-20398136D01*
X3841905Y-20502898D01*
X4232381Y-20293374D02*
X4060953Y-20550517D01*
X4489524Y-20302898D02*
X4508572Y-20302898D01*
X4527619Y-20312422D01*
X4537143Y-20321946D01*
X4546667Y-20340993D01*
X4556191Y-20379089D01*
X4556191Y-20426708D01*
X4546667Y-20464803D01*
X4537143Y-20483851D01*
X4527619Y-20493374D01*
X4508572Y-20502898D01*
X4489524Y-20502898D01*
X4470477Y-20493374D01*
X4460953Y-20483851D01*
X4451429Y-20464803D01*
X4441905Y-20426708D01*
X4441905Y-20379089D01*
X4451429Y-20340993D01*
X4460953Y-20321946D01*
X4470477Y-20312422D01*
X4489524Y-20302898D01*
X4641905Y-20483851D02*
X4651429Y-20493374D01*
X4641905Y-20502898D01*
X4632381Y-20493374D01*
X4641905Y-20483851D01*
X4641905Y-20502898D01*
X4841905Y-20502898D02*
X4727619Y-20502898D01*
X4784762Y-20502898D02*
X4784762Y-20302898D01*
X4765715Y-20331470D01*
X4746667Y-20350517D01*
X4727619Y-20360041D01*
X4918096Y-20321946D02*
X4927619Y-20312422D01*
X4946667Y-20302898D01*
X4994286Y-20302898D01*
X5013334Y-20312422D01*
X5022858Y-20321946D01*
X5032381Y-20340993D01*
X5032381Y-20360041D01*
X5022858Y-20388612D01*
X4908572Y-20502898D01*
X5032381Y-20502898D01*
X5156191Y-20302898D02*
X5175238Y-20302898D01*
X5194286Y-20312422D01*
X5203810Y-20321946D01*
X5213334Y-20340993D01*
X5222858Y-20379089D01*
X5222858Y-20426708D01*
X5213334Y-20464803D01*
X5203810Y-20483851D01*
X5194286Y-20493374D01*
X5175238Y-20502898D01*
X5156191Y-20502898D01*
X5137143Y-20493374D01*
X5127619Y-20483851D01*
X5118096Y-20464803D01*
X5108572Y-20426708D01*
X5108572Y-20379089D01*
X5118096Y-20340993D01*
X5127619Y-20321946D01*
X5137143Y-20312422D01*
X5156191Y-20302898D01*
X5346667Y-20302898D02*
X5365715Y-20302898D01*
X5384762Y-20312422D01*
X5394286Y-20321946D01*
X5403810Y-20340993D01*
X5413334Y-20379089D01*
X5413334Y-20426708D01*
X5403810Y-20464803D01*
X5394286Y-20483851D01*
X5384762Y-20493374D01*
X5365715Y-20502898D01*
X5346667Y-20502898D01*
X5327619Y-20493374D01*
X5318096Y-20483851D01*
X5308572Y-20464803D01*
X5299048Y-20426708D01*
X5299048Y-20379089D01*
X5308572Y-20340993D01*
X5318096Y-20321946D01*
X5327619Y-20312422D01*
X5346667Y-20302898D01*
X5489524Y-20302898D02*
X5489524Y-20340993D01*
X5565715Y-20302898D02*
X5565715Y-20340993D01*
X5860953Y-20579089D02*
X5851429Y-20569565D01*
X5832381Y-20540993D01*
X5822857Y-20521946D01*
X5813334Y-20493374D01*
X5803810Y-20445755D01*
X5803810Y-20407660D01*
X5813334Y-20360041D01*
X5822857Y-20331470D01*
X5832381Y-20312422D01*
X5851429Y-20283851D01*
X5860953Y-20274327D01*
X6022857Y-20369565D02*
X6022857Y-20502898D01*
X5975238Y-20293374D02*
X5927619Y-20436232D01*
X6051429Y-20436232D01*
X6280000Y-20502898D02*
X6280000Y-20302898D01*
X6365715Y-20502898D02*
X6365715Y-20398136D01*
X6356191Y-20379089D01*
X6337143Y-20369565D01*
X6308572Y-20369565D01*
X6289524Y-20379089D01*
X6280000Y-20388612D01*
X6489524Y-20502898D02*
X6470476Y-20493374D01*
X6460953Y-20483851D01*
X6451429Y-20464803D01*
X6451429Y-20407660D01*
X6460953Y-20388612D01*
X6470476Y-20379089D01*
X6489524Y-20369565D01*
X6518096Y-20369565D01*
X6537143Y-20379089D01*
X6546667Y-20388612D01*
X6556191Y-20407660D01*
X6556191Y-20464803D01*
X6546667Y-20483851D01*
X6537143Y-20493374D01*
X6518096Y-20502898D01*
X6489524Y-20502898D01*
X6670476Y-20502898D02*
X6651429Y-20493374D01*
X6641905Y-20474327D01*
X6641905Y-20302898D01*
X6822857Y-20493374D02*
X6803810Y-20502898D01*
X6765715Y-20502898D01*
X6746667Y-20493374D01*
X6737143Y-20474327D01*
X6737143Y-20398136D01*
X6746667Y-20379089D01*
X6765715Y-20369565D01*
X6803810Y-20369565D01*
X6822857Y-20379089D01*
X6832381Y-20398136D01*
X6832381Y-20417184D01*
X6737143Y-20436232D01*
X6908572Y-20493374D02*
X6927619Y-20502898D01*
X6965715Y-20502898D01*
X6984762Y-20493374D01*
X6994286Y-20474327D01*
X6994286Y-20464803D01*
X6984762Y-20445755D01*
X6965715Y-20436232D01*
X6937143Y-20436232D01*
X6918096Y-20426708D01*
X6908572Y-20407660D01*
X6908572Y-20398136D01*
X6918096Y-20379089D01*
X6937143Y-20369565D01*
X6965715Y-20369565D01*
X6984762Y-20379089D01*
X7060953Y-20579089D02*
X7070476Y-20569565D01*
X7089524Y-20540993D01*
X7099048Y-20521946D01*
X7108572Y-20493374D01*
X7118096Y-20445755D01*
X7118096Y-20407660D01*
X7108572Y-20360041D01*
X7099048Y-20331470D01*
X7089524Y-20312422D01*
X7070476Y-20283851D01*
X7060953Y-20274327D01*
X7422857Y-20579089D02*
X7413334Y-20569565D01*
X7394286Y-20540993D01*
X7384762Y-20521946D01*
X7375238Y-20493374D01*
X7365715Y-20445755D01*
X7365715Y-20407660D01*
X7375238Y-20360041D01*
X7384762Y-20331470D01*
X7394286Y-20312422D01*
X7413334Y-20283851D01*
X7422857Y-20274327D01*
X7499048Y-20369565D02*
X7499048Y-20502898D01*
X7499048Y-20388612D02*
X7508572Y-20379089D01*
X7527619Y-20369565D01*
X7556191Y-20369565D01*
X7575238Y-20379089D01*
X7584762Y-20398136D01*
X7584762Y-20502898D01*
X7708572Y-20502898D02*
X7689524Y-20493374D01*
X7680000Y-20483851D01*
X7670476Y-20464803D01*
X7670476Y-20407660D01*
X7680000Y-20388612D01*
X7689524Y-20379089D01*
X7708572Y-20369565D01*
X7737143Y-20369565D01*
X7756191Y-20379089D01*
X7765715Y-20388612D01*
X7775238Y-20407660D01*
X7775238Y-20464803D01*
X7765715Y-20483851D01*
X7756191Y-20493374D01*
X7737143Y-20502898D01*
X7708572Y-20502898D01*
X7832381Y-20369565D02*
X7908572Y-20369565D01*
X7860953Y-20302898D02*
X7860953Y-20474327D01*
X7870476Y-20493374D01*
X7889524Y-20502898D01*
X7908572Y-20502898D01*
X8127619Y-20369565D02*
X8127619Y-20569565D01*
X8127619Y-20379089D02*
X8146667Y-20369565D01*
X8184762Y-20369565D01*
X8203810Y-20379089D01*
X8213334Y-20388612D01*
X8222857Y-20407660D01*
X8222857Y-20464803D01*
X8213334Y-20483851D01*
X8203810Y-20493374D01*
X8184762Y-20502898D01*
X8146667Y-20502898D01*
X8127619Y-20493374D01*
X8337143Y-20502898D02*
X8318096Y-20493374D01*
X8308572Y-20474327D01*
X8308572Y-20302898D01*
X8499048Y-20502898D02*
X8499048Y-20398136D01*
X8489524Y-20379089D01*
X8470477Y-20369565D01*
X8432381Y-20369565D01*
X8413334Y-20379089D01*
X8499048Y-20493374D02*
X8480000Y-20502898D01*
X8432381Y-20502898D01*
X8413334Y-20493374D01*
X8403810Y-20474327D01*
X8403810Y-20455279D01*
X8413334Y-20436232D01*
X8432381Y-20426708D01*
X8480000Y-20426708D01*
X8499048Y-20417184D01*
X8565715Y-20369565D02*
X8641905Y-20369565D01*
X8594286Y-20302898D02*
X8594286Y-20474327D01*
X8603810Y-20493374D01*
X8622858Y-20502898D01*
X8641905Y-20502898D01*
X8784762Y-20493374D02*
X8765715Y-20502898D01*
X8727619Y-20502898D01*
X8708572Y-20493374D01*
X8699048Y-20474327D01*
X8699048Y-20398136D01*
X8708572Y-20379089D01*
X8727619Y-20369565D01*
X8765715Y-20369565D01*
X8784762Y-20379089D01*
X8794286Y-20398136D01*
X8794286Y-20417184D01*
X8699048Y-20436232D01*
X8965715Y-20502898D02*
X8965715Y-20302898D01*
X8965715Y-20493374D02*
X8946667Y-20502898D01*
X8908572Y-20502898D01*
X8889524Y-20493374D01*
X8880000Y-20483851D01*
X8870477Y-20464803D01*
X8870477Y-20407660D01*
X8880000Y-20388612D01*
X8889524Y-20379089D01*
X8908572Y-20369565D01*
X8946667Y-20369565D01*
X8965715Y-20379089D01*
X9041905Y-20579089D02*
X9051429Y-20569565D01*
X9070477Y-20540993D01*
X9080000Y-20521946D01*
X9089524Y-20493374D01*
X9099048Y-20445755D01*
X9099048Y-20407660D01*
X9089524Y-20360041D01*
X9080000Y-20331470D01*
X9070477Y-20312422D01*
X9051429Y-20283851D01*
X9041905Y-20274327D01*
X2189048Y-20832422D02*
X2289048Y-20732422D01*
X2189048Y-20632422D01*
X2089048Y-20732422D01*
X2189048Y-20832422D01*
X2527619Y-20622898D02*
X2651429Y-20622898D01*
X2584762Y-20699089D01*
X2613334Y-20699089D01*
X2632381Y-20708612D01*
X2641905Y-20718136D01*
X2651429Y-20737184D01*
X2651429Y-20784803D01*
X2641905Y-20803851D01*
X2632381Y-20813374D01*
X2613334Y-20822898D01*
X2556191Y-20822898D01*
X2537143Y-20813374D01*
X2527619Y-20803851D01*
X2737143Y-20803851D02*
X2746667Y-20813374D01*
X2737143Y-20822898D01*
X2727619Y-20813374D01*
X2737143Y-20803851D01*
X2737143Y-20822898D01*
X2841905Y-20822898D02*
X2880000Y-20822898D01*
X2899048Y-20813374D01*
X2908572Y-20803851D01*
X2927619Y-20775279D01*
X2937143Y-20737184D01*
X2937143Y-20660993D01*
X2927619Y-20641946D01*
X2918096Y-20632422D01*
X2899048Y-20622898D01*
X2860953Y-20622898D01*
X2841905Y-20632422D01*
X2832381Y-20641946D01*
X2822857Y-20660993D01*
X2822857Y-20708612D01*
X2832381Y-20727660D01*
X2841905Y-20737184D01*
X2860953Y-20746708D01*
X2899048Y-20746708D01*
X2918096Y-20737184D01*
X2927619Y-20727660D01*
X2937143Y-20708612D01*
X3051429Y-20708612D02*
X3032381Y-20699089D01*
X3022857Y-20689565D01*
X3013334Y-20670517D01*
X3013334Y-20660993D01*
X3022857Y-20641946D01*
X3032381Y-20632422D01*
X3051429Y-20622898D01*
X3089524Y-20622898D01*
X3108572Y-20632422D01*
X3118096Y-20641946D01*
X3127619Y-20660993D01*
X3127619Y-20670517D01*
X3118096Y-20689565D01*
X3108572Y-20699089D01*
X3089524Y-20708612D01*
X3051429Y-20708612D01*
X3032381Y-20718136D01*
X3022857Y-20727660D01*
X3013334Y-20746708D01*
X3013334Y-20784803D01*
X3022857Y-20803851D01*
X3032381Y-20813374D01*
X3051429Y-20822898D01*
X3089524Y-20822898D01*
X3108572Y-20813374D01*
X3118096Y-20803851D01*
X3127619Y-20784803D01*
X3127619Y-20746708D01*
X3118096Y-20727660D01*
X3108572Y-20718136D01*
X3089524Y-20708612D01*
X3241905Y-20708612D02*
X3222857Y-20699089D01*
X3213334Y-20689565D01*
X3203810Y-20670517D01*
X3203810Y-20660993D01*
X3213334Y-20641946D01*
X3222857Y-20632422D01*
X3241905Y-20622898D01*
X3280000Y-20622898D01*
X3299048Y-20632422D01*
X3308572Y-20641946D01*
X3318096Y-20660993D01*
X3318096Y-20670517D01*
X3308572Y-20689565D01*
X3299048Y-20699089D01*
X3280000Y-20708612D01*
X3241905Y-20708612D01*
X3222857Y-20718136D01*
X3213334Y-20727660D01*
X3203810Y-20746708D01*
X3203810Y-20784803D01*
X3213334Y-20803851D01*
X3222857Y-20813374D01*
X3241905Y-20822898D01*
X3280000Y-20822898D01*
X3299048Y-20813374D01*
X3308572Y-20803851D01*
X3318096Y-20784803D01*
X3318096Y-20746708D01*
X3308572Y-20727660D01*
X3299048Y-20718136D01*
X3280000Y-20708612D01*
X3403810Y-20822898D02*
X3403810Y-20689565D01*
X3403810Y-20708612D02*
X3413334Y-20699089D01*
X3432381Y-20689565D01*
X3460953Y-20689565D01*
X3480000Y-20699089D01*
X3489524Y-20718136D01*
X3489524Y-20822898D01*
X3489524Y-20718136D02*
X3499048Y-20699089D01*
X3518096Y-20689565D01*
X3546667Y-20689565D01*
X3565715Y-20699089D01*
X3575238Y-20718136D01*
X3575238Y-20822898D01*
X3670476Y-20822898D02*
X3670476Y-20689565D01*
X3670476Y-20708612D02*
X3680000Y-20699089D01*
X3699048Y-20689565D01*
X3727619Y-20689565D01*
X3746667Y-20699089D01*
X3756191Y-20718136D01*
X3756191Y-20822898D01*
X3756191Y-20718136D02*
X3765715Y-20699089D01*
X3784762Y-20689565D01*
X3813334Y-20689565D01*
X3832381Y-20699089D01*
X3841905Y-20718136D01*
X3841905Y-20822898D01*
X4232381Y-20613374D02*
X4060953Y-20870517D01*
X4489524Y-20622898D02*
X4508572Y-20622898D01*
X4527619Y-20632422D01*
X4537143Y-20641946D01*
X4546667Y-20660993D01*
X4556191Y-20699089D01*
X4556191Y-20746708D01*
X4546667Y-20784803D01*
X4537143Y-20803851D01*
X4527619Y-20813374D01*
X4508572Y-20822898D01*
X4489524Y-20822898D01*
X4470477Y-20813374D01*
X4460953Y-20803851D01*
X4451429Y-20784803D01*
X4441905Y-20746708D01*
X4441905Y-20699089D01*
X4451429Y-20660993D01*
X4460953Y-20641946D01*
X4470477Y-20632422D01*
X4489524Y-20622898D01*
X4641905Y-20803851D02*
X4651429Y-20813374D01*
X4641905Y-20822898D01*
X4632381Y-20813374D01*
X4641905Y-20803851D01*
X4641905Y-20822898D01*
X4841905Y-20822898D02*
X4727619Y-20822898D01*
X4784762Y-20822898D02*
X4784762Y-20622898D01*
X4765715Y-20651470D01*
X4746667Y-20670517D01*
X4727619Y-20680041D01*
X5022858Y-20622898D02*
X4927619Y-20622898D01*
X4918096Y-20718136D01*
X4927619Y-20708612D01*
X4946667Y-20699089D01*
X4994286Y-20699089D01*
X5013334Y-20708612D01*
X5022858Y-20718136D01*
X5032381Y-20737184D01*
X5032381Y-20784803D01*
X5022858Y-20803851D01*
X5013334Y-20813374D01*
X4994286Y-20822898D01*
X4946667Y-20822898D01*
X4927619Y-20813374D01*
X4918096Y-20803851D01*
X5099048Y-20622898D02*
X5232381Y-20622898D01*
X5146667Y-20822898D01*
X5346667Y-20622898D02*
X5365715Y-20622898D01*
X5384762Y-20632422D01*
X5394286Y-20641946D01*
X5403810Y-20660993D01*
X5413334Y-20699089D01*
X5413334Y-20746708D01*
X5403810Y-20784803D01*
X5394286Y-20803851D01*
X5384762Y-20813374D01*
X5365715Y-20822898D01*
X5346667Y-20822898D01*
X5327619Y-20813374D01*
X5318096Y-20803851D01*
X5308572Y-20784803D01*
X5299048Y-20746708D01*
X5299048Y-20699089D01*
X5308572Y-20660993D01*
X5318096Y-20641946D01*
X5327619Y-20632422D01*
X5346667Y-20622898D01*
X5489524Y-20622898D02*
X5489524Y-20660993D01*
X5565715Y-20622898D02*
X5565715Y-20660993D01*
X5860953Y-20899089D02*
X5851429Y-20889565D01*
X5832381Y-20860993D01*
X5822857Y-20841946D01*
X5813334Y-20813374D01*
X5803810Y-20765755D01*
X5803810Y-20727660D01*
X5813334Y-20680041D01*
X5822857Y-20651470D01*
X5832381Y-20632422D01*
X5851429Y-20603851D01*
X5860953Y-20594327D01*
X6022857Y-20689565D02*
X6022857Y-20822898D01*
X5975238Y-20613374D02*
X5927619Y-20756232D01*
X6051429Y-20756232D01*
X6213334Y-20622898D02*
X6175238Y-20622898D01*
X6156191Y-20632422D01*
X6146667Y-20641946D01*
X6127619Y-20670517D01*
X6118096Y-20708612D01*
X6118096Y-20784803D01*
X6127619Y-20803851D01*
X6137143Y-20813374D01*
X6156191Y-20822898D01*
X6194286Y-20822898D01*
X6213334Y-20813374D01*
X6222857Y-20803851D01*
X6232381Y-20784803D01*
X6232381Y-20737184D01*
X6222857Y-20718136D01*
X6213334Y-20708612D01*
X6194286Y-20699089D01*
X6156191Y-20699089D01*
X6137143Y-20708612D01*
X6127619Y-20718136D01*
X6118096Y-20737184D01*
X6470476Y-20822898D02*
X6470476Y-20622898D01*
X6556191Y-20822898D02*
X6556191Y-20718136D01*
X6546667Y-20699089D01*
X6527619Y-20689565D01*
X6499048Y-20689565D01*
X6480000Y-20699089D01*
X6470476Y-20708612D01*
X6680000Y-20822898D02*
X6660953Y-20813374D01*
X6651429Y-20803851D01*
X6641905Y-20784803D01*
X6641905Y-20727660D01*
X6651429Y-20708612D01*
X6660953Y-20699089D01*
X6680000Y-20689565D01*
X6708572Y-20689565D01*
X6727619Y-20699089D01*
X6737143Y-20708612D01*
X6746667Y-20727660D01*
X6746667Y-20784803D01*
X6737143Y-20803851D01*
X6727619Y-20813374D01*
X6708572Y-20822898D01*
X6680000Y-20822898D01*
X6860953Y-20822898D02*
X6841905Y-20813374D01*
X6832381Y-20794327D01*
X6832381Y-20622898D01*
X7013334Y-20813374D02*
X6994286Y-20822898D01*
X6956191Y-20822898D01*
X6937143Y-20813374D01*
X6927619Y-20794327D01*
X6927619Y-20718136D01*
X6937143Y-20699089D01*
X6956191Y-20689565D01*
X6994286Y-20689565D01*
X7013334Y-20699089D01*
X7022857Y-20718136D01*
X7022857Y-20737184D01*
X6927619Y-20756232D01*
X7099048Y-20813374D02*
X7118096Y-20822898D01*
X7156191Y-20822898D01*
X7175238Y-20813374D01*
X7184762Y-20794327D01*
X7184762Y-20784803D01*
X7175238Y-20765755D01*
X7156191Y-20756232D01*
X7127619Y-20756232D01*
X7108572Y-20746708D01*
X7099048Y-20727660D01*
X7099048Y-20718136D01*
X7108572Y-20699089D01*
X7127619Y-20689565D01*
X7156191Y-20689565D01*
X7175238Y-20699089D01*
X7251429Y-20899089D02*
X7260953Y-20889565D01*
X7280000Y-20860993D01*
X7289524Y-20841946D01*
X7299048Y-20813374D01*
X7308572Y-20765755D01*
X7308572Y-20727660D01*
X7299048Y-20680041D01*
X7289524Y-20651470D01*
X7280000Y-20632422D01*
X7260953Y-20603851D01*
X7251429Y-20594327D01*
X7613334Y-20899089D02*
X7603810Y-20889565D01*
X7584762Y-20860993D01*
X7575238Y-20841946D01*
X7565715Y-20813374D01*
X7556191Y-20765755D01*
X7556191Y-20727660D01*
X7565715Y-20680041D01*
X7575238Y-20651470D01*
X7584762Y-20632422D01*
X7603810Y-20603851D01*
X7613334Y-20594327D01*
X7689524Y-20689565D02*
X7689524Y-20822898D01*
X7689524Y-20708612D02*
X7699048Y-20699089D01*
X7718096Y-20689565D01*
X7746667Y-20689565D01*
X7765715Y-20699089D01*
X7775238Y-20718136D01*
X7775238Y-20822898D01*
X7899048Y-20822898D02*
X7880000Y-20813374D01*
X7870476Y-20803851D01*
X7860953Y-20784803D01*
X7860953Y-20727660D01*
X7870476Y-20708612D01*
X7880000Y-20699089D01*
X7899048Y-20689565D01*
X7927619Y-20689565D01*
X7946667Y-20699089D01*
X7956191Y-20708612D01*
X7965715Y-20727660D01*
X7965715Y-20784803D01*
X7956191Y-20803851D01*
X7946667Y-20813374D01*
X7927619Y-20822898D01*
X7899048Y-20822898D01*
X8022857Y-20689565D02*
X8099048Y-20689565D01*
X8051429Y-20622898D02*
X8051429Y-20794327D01*
X8060953Y-20813374D01*
X8080000Y-20822898D01*
X8099048Y-20822898D01*
X8318096Y-20689565D02*
X8318096Y-20889565D01*
X8318096Y-20699089D02*
X8337143Y-20689565D01*
X8375238Y-20689565D01*
X8394286Y-20699089D01*
X8403810Y-20708612D01*
X8413334Y-20727660D01*
X8413334Y-20784803D01*
X8403810Y-20803851D01*
X8394286Y-20813374D01*
X8375238Y-20822898D01*
X8337143Y-20822898D01*
X8318096Y-20813374D01*
X8527619Y-20822898D02*
X8508572Y-20813374D01*
X8499048Y-20794327D01*
X8499048Y-20622898D01*
X8689524Y-20822898D02*
X8689524Y-20718136D01*
X8680000Y-20699089D01*
X8660953Y-20689565D01*
X8622858Y-20689565D01*
X8603810Y-20699089D01*
X8689524Y-20813374D02*
X8670477Y-20822898D01*
X8622858Y-20822898D01*
X8603810Y-20813374D01*
X8594286Y-20794327D01*
X8594286Y-20775279D01*
X8603810Y-20756232D01*
X8622858Y-20746708D01*
X8670477Y-20746708D01*
X8689524Y-20737184D01*
X8756191Y-20689565D02*
X8832381Y-20689565D01*
X8784762Y-20622898D02*
X8784762Y-20794327D01*
X8794286Y-20813374D01*
X8813334Y-20822898D01*
X8832381Y-20822898D01*
X8975238Y-20813374D02*
X8956191Y-20822898D01*
X8918096Y-20822898D01*
X8899048Y-20813374D01*
X8889524Y-20794327D01*
X8889524Y-20718136D01*
X8899048Y-20699089D01*
X8918096Y-20689565D01*
X8956191Y-20689565D01*
X8975238Y-20699089D01*
X8984762Y-20718136D01*
X8984762Y-20737184D01*
X8889524Y-20756232D01*
X9156191Y-20822898D02*
X9156191Y-20622898D01*
X9156191Y-20813374D02*
X9137143Y-20822898D01*
X9099048Y-20822898D01*
X9080000Y-20813374D01*
X9070477Y-20803851D01*
X9060953Y-20784803D01*
X9060953Y-20727660D01*
X9070477Y-20708612D01*
X9080000Y-20699089D01*
X9099048Y-20689565D01*
X9137143Y-20689565D01*
X9156191Y-20699089D01*
X9232381Y-20899089D02*
X9241905Y-20889565D01*
X9260953Y-20860993D01*
X9270477Y-20841946D01*
X9280000Y-20813374D01*
X9289524Y-20765755D01*
X9289524Y-20727660D01*
X9280000Y-20680041D01*
X9270477Y-20651470D01*
X9260953Y-20632422D01*
X9241905Y-20603851D01*
X9232381Y-20594327D01*
X2089048Y-20952422D02*
X2289048Y-21152422D01*
X2289048Y-20952422D02*
X2089048Y-21152422D01*
X2289048Y-21052422D02*
G75*
G03*
X2289048Y-21052422I-100000J0D01*
G01*
X2632381Y-20942898D02*
X2594286Y-20942898D01*
X2575238Y-20952422D01*
X2565715Y-20961946D01*
X2546667Y-20990517D01*
X2537143Y-21028612D01*
X2537143Y-21104803D01*
X2546667Y-21123851D01*
X2556191Y-21133374D01*
X2575238Y-21142898D01*
X2613334Y-21142898D01*
X2632381Y-21133374D01*
X2641905Y-21123851D01*
X2651429Y-21104803D01*
X2651429Y-21057184D01*
X2641905Y-21038136D01*
X2632381Y-21028612D01*
X2613334Y-21019089D01*
X2575238Y-21019089D01*
X2556191Y-21028612D01*
X2546667Y-21038136D01*
X2537143Y-21057184D01*
X2737143Y-21123851D02*
X2746667Y-21133374D01*
X2737143Y-21142898D01*
X2727619Y-21133374D01*
X2737143Y-21123851D01*
X2737143Y-21142898D01*
X2813334Y-20942898D02*
X2937143Y-20942898D01*
X2870476Y-21019089D01*
X2899048Y-21019089D01*
X2918096Y-21028612D01*
X2927619Y-21038136D01*
X2937143Y-21057184D01*
X2937143Y-21104803D01*
X2927619Y-21123851D01*
X2918096Y-21133374D01*
X2899048Y-21142898D01*
X2841905Y-21142898D01*
X2822857Y-21133374D01*
X2813334Y-21123851D01*
X3003810Y-20942898D02*
X3137143Y-20942898D01*
X3051429Y-21142898D01*
X3308572Y-20942898D02*
X3213334Y-20942898D01*
X3203810Y-21038136D01*
X3213334Y-21028612D01*
X3232381Y-21019089D01*
X3280000Y-21019089D01*
X3299048Y-21028612D01*
X3308572Y-21038136D01*
X3318096Y-21057184D01*
X3318096Y-21104803D01*
X3308572Y-21123851D01*
X3299048Y-21133374D01*
X3280000Y-21142898D01*
X3232381Y-21142898D01*
X3213334Y-21133374D01*
X3203810Y-21123851D01*
X3403810Y-21142898D02*
X3403810Y-21009565D01*
X3403810Y-21028612D02*
X3413334Y-21019089D01*
X3432381Y-21009565D01*
X3460953Y-21009565D01*
X3480000Y-21019089D01*
X3489524Y-21038136D01*
X3489524Y-21142898D01*
X3489524Y-21038136D02*
X3499048Y-21019089D01*
X3518096Y-21009565D01*
X3546667Y-21009565D01*
X3565715Y-21019089D01*
X3575238Y-21038136D01*
X3575238Y-21142898D01*
X3670476Y-21142898D02*
X3670476Y-21009565D01*
X3670476Y-21028612D02*
X3680000Y-21019089D01*
X3699048Y-21009565D01*
X3727619Y-21009565D01*
X3746667Y-21019089D01*
X3756191Y-21038136D01*
X3756191Y-21142898D01*
X3756191Y-21038136D02*
X3765715Y-21019089D01*
X3784762Y-21009565D01*
X3813334Y-21009565D01*
X3832381Y-21019089D01*
X3841905Y-21038136D01*
X3841905Y-21142898D01*
X4232381Y-20933374D02*
X4060953Y-21190517D01*
X4489524Y-20942898D02*
X4508572Y-20942898D01*
X4527619Y-20952422D01*
X4537143Y-20961946D01*
X4546667Y-20980993D01*
X4556191Y-21019089D01*
X4556191Y-21066708D01*
X4546667Y-21104803D01*
X4537143Y-21123851D01*
X4527619Y-21133374D01*
X4508572Y-21142898D01*
X4489524Y-21142898D01*
X4470477Y-21133374D01*
X4460953Y-21123851D01*
X4451429Y-21104803D01*
X4441905Y-21066708D01*
X4441905Y-21019089D01*
X4451429Y-20980993D01*
X4460953Y-20961946D01*
X4470477Y-20952422D01*
X4489524Y-20942898D01*
X4641905Y-21123851D02*
X4651429Y-21133374D01*
X4641905Y-21142898D01*
X4632381Y-21133374D01*
X4641905Y-21123851D01*
X4641905Y-21142898D01*
X4727619Y-20961946D02*
X4737143Y-20952422D01*
X4756191Y-20942898D01*
X4803810Y-20942898D01*
X4822858Y-20952422D01*
X4832381Y-20961946D01*
X4841905Y-20980993D01*
X4841905Y-21000041D01*
X4832381Y-21028612D01*
X4718096Y-21142898D01*
X4841905Y-21142898D01*
X5022858Y-20942898D02*
X4927619Y-20942898D01*
X4918096Y-21038136D01*
X4927619Y-21028612D01*
X4946667Y-21019089D01*
X4994286Y-21019089D01*
X5013334Y-21028612D01*
X5022858Y-21038136D01*
X5032381Y-21057184D01*
X5032381Y-21104803D01*
X5022858Y-21123851D01*
X5013334Y-21133374D01*
X4994286Y-21142898D01*
X4946667Y-21142898D01*
X4927619Y-21133374D01*
X4918096Y-21123851D01*
X5222858Y-21142898D02*
X5108572Y-21142898D01*
X5165715Y-21142898D02*
X5165715Y-20942898D01*
X5146667Y-20971470D01*
X5127619Y-20990517D01*
X5108572Y-21000041D01*
X5346667Y-20942898D02*
X5365715Y-20942898D01*
X5384762Y-20952422D01*
X5394286Y-20961946D01*
X5403810Y-20980993D01*
X5413334Y-21019089D01*
X5413334Y-21066708D01*
X5403810Y-21104803D01*
X5394286Y-21123851D01*
X5384762Y-21133374D01*
X5365715Y-21142898D01*
X5346667Y-21142898D01*
X5327619Y-21133374D01*
X5318096Y-21123851D01*
X5308572Y-21104803D01*
X5299048Y-21066708D01*
X5299048Y-21019089D01*
X5308572Y-20980993D01*
X5318096Y-20961946D01*
X5327619Y-20952422D01*
X5346667Y-20942898D01*
X5489524Y-20942898D02*
X5489524Y-20980993D01*
X5565715Y-20942898D02*
X5565715Y-20980993D01*
X5860953Y-21219089D02*
X5851429Y-21209565D01*
X5832381Y-21180993D01*
X5822857Y-21161946D01*
X5813334Y-21133374D01*
X5803810Y-21085755D01*
X5803810Y-21047660D01*
X5813334Y-21000041D01*
X5822857Y-20971470D01*
X5832381Y-20952422D01*
X5851429Y-20923851D01*
X5860953Y-20914327D01*
X6032381Y-20942898D02*
X5937143Y-20942898D01*
X5927619Y-21038136D01*
X5937143Y-21028612D01*
X5956191Y-21019089D01*
X6003810Y-21019089D01*
X6022857Y-21028612D01*
X6032381Y-21038136D01*
X6041905Y-21057184D01*
X6041905Y-21104803D01*
X6032381Y-21123851D01*
X6022857Y-21133374D01*
X6003810Y-21142898D01*
X5956191Y-21142898D01*
X5937143Y-21133374D01*
X5927619Y-21123851D01*
X6280000Y-21142898D02*
X6280000Y-20942898D01*
X6365715Y-21142898D02*
X6365715Y-21038136D01*
X6356191Y-21019089D01*
X6337143Y-21009565D01*
X6308572Y-21009565D01*
X6289524Y-21019089D01*
X6280000Y-21028612D01*
X6489524Y-21142898D02*
X6470476Y-21133374D01*
X6460953Y-21123851D01*
X6451429Y-21104803D01*
X6451429Y-21047660D01*
X6460953Y-21028612D01*
X6470476Y-21019089D01*
X6489524Y-21009565D01*
X6518096Y-21009565D01*
X6537143Y-21019089D01*
X6546667Y-21028612D01*
X6556191Y-21047660D01*
X6556191Y-21104803D01*
X6546667Y-21123851D01*
X6537143Y-21133374D01*
X6518096Y-21142898D01*
X6489524Y-21142898D01*
X6670476Y-21142898D02*
X6651429Y-21133374D01*
X6641905Y-21114327D01*
X6641905Y-20942898D01*
X6822857Y-21133374D02*
X6803810Y-21142898D01*
X6765715Y-21142898D01*
X6746667Y-21133374D01*
X6737143Y-21114327D01*
X6737143Y-21038136D01*
X6746667Y-21019089D01*
X6765715Y-21009565D01*
X6803810Y-21009565D01*
X6822857Y-21019089D01*
X6832381Y-21038136D01*
X6832381Y-21057184D01*
X6737143Y-21076232D01*
X6908572Y-21133374D02*
X6927619Y-21142898D01*
X6965715Y-21142898D01*
X6984762Y-21133374D01*
X6994286Y-21114327D01*
X6994286Y-21104803D01*
X6984762Y-21085755D01*
X6965715Y-21076232D01*
X6937143Y-21076232D01*
X6918096Y-21066708D01*
X6908572Y-21047660D01*
X6908572Y-21038136D01*
X6918096Y-21019089D01*
X6937143Y-21009565D01*
X6965715Y-21009565D01*
X6984762Y-21019089D01*
X7060953Y-21219089D02*
X7070476Y-21209565D01*
X7089524Y-21180993D01*
X7099048Y-21161946D01*
X7108572Y-21133374D01*
X7118096Y-21085755D01*
X7118096Y-21047660D01*
X7108572Y-21000041D01*
X7099048Y-20971470D01*
X7089524Y-20952422D01*
X7070476Y-20923851D01*
X7060953Y-20914327D01*
X7422857Y-21219089D02*
X7413334Y-21209565D01*
X7394286Y-21180993D01*
X7384762Y-21161946D01*
X7375238Y-21133374D01*
X7365715Y-21085755D01*
X7365715Y-21047660D01*
X7375238Y-21000041D01*
X7384762Y-20971470D01*
X7394286Y-20952422D01*
X7413334Y-20923851D01*
X7422857Y-20914327D01*
X7499048Y-21009565D02*
X7499048Y-21142898D01*
X7499048Y-21028612D02*
X7508572Y-21019089D01*
X7527619Y-21009565D01*
X7556191Y-21009565D01*
X7575238Y-21019089D01*
X7584762Y-21038136D01*
X7584762Y-21142898D01*
X7708572Y-21142898D02*
X7689524Y-21133374D01*
X7680000Y-21123851D01*
X7670476Y-21104803D01*
X7670476Y-21047660D01*
X7680000Y-21028612D01*
X7689524Y-21019089D01*
X7708572Y-21009565D01*
X7737143Y-21009565D01*
X7756191Y-21019089D01*
X7765715Y-21028612D01*
X7775238Y-21047660D01*
X7775238Y-21104803D01*
X7765715Y-21123851D01*
X7756191Y-21133374D01*
X7737143Y-21142898D01*
X7708572Y-21142898D01*
X7832381Y-21009565D02*
X7908572Y-21009565D01*
X7860953Y-20942898D02*
X7860953Y-21114327D01*
X7870476Y-21133374D01*
X7889524Y-21142898D01*
X7908572Y-21142898D01*
X8127619Y-21009565D02*
X8127619Y-21209565D01*
X8127619Y-21019089D02*
X8146667Y-21009565D01*
X8184762Y-21009565D01*
X8203810Y-21019089D01*
X8213334Y-21028612D01*
X8222857Y-21047660D01*
X8222857Y-21104803D01*
X8213334Y-21123851D01*
X8203810Y-21133374D01*
X8184762Y-21142898D01*
X8146667Y-21142898D01*
X8127619Y-21133374D01*
X8337143Y-21142898D02*
X8318096Y-21133374D01*
X8308572Y-21114327D01*
X8308572Y-20942898D01*
X8499048Y-21142898D02*
X8499048Y-21038136D01*
X8489524Y-21019089D01*
X8470477Y-21009565D01*
X8432381Y-21009565D01*
X8413334Y-21019089D01*
X8499048Y-21133374D02*
X8480000Y-21142898D01*
X8432381Y-21142898D01*
X8413334Y-21133374D01*
X8403810Y-21114327D01*
X8403810Y-21095279D01*
X8413334Y-21076232D01*
X8432381Y-21066708D01*
X8480000Y-21066708D01*
X8499048Y-21057184D01*
X8565715Y-21009565D02*
X8641905Y-21009565D01*
X8594286Y-20942898D02*
X8594286Y-21114327D01*
X8603810Y-21133374D01*
X8622858Y-21142898D01*
X8641905Y-21142898D01*
X8784762Y-21133374D02*
X8765715Y-21142898D01*
X8727619Y-21142898D01*
X8708572Y-21133374D01*
X8699048Y-21114327D01*
X8699048Y-21038136D01*
X8708572Y-21019089D01*
X8727619Y-21009565D01*
X8765715Y-21009565D01*
X8784762Y-21019089D01*
X8794286Y-21038136D01*
X8794286Y-21057184D01*
X8699048Y-21076232D01*
X8965715Y-21142898D02*
X8965715Y-20942898D01*
X8965715Y-21133374D02*
X8946667Y-21142898D01*
X8908572Y-21142898D01*
X8889524Y-21133374D01*
X8880000Y-21123851D01*
X8870477Y-21104803D01*
X8870477Y-21047660D01*
X8880000Y-21028612D01*
X8889524Y-21019089D01*
X8908572Y-21009565D01*
X8946667Y-21009565D01*
X8965715Y-21019089D01*
X9041905Y-21219089D02*
X9051429Y-21209565D01*
X9070477Y-21180993D01*
X9080000Y-21161946D01*
X9089524Y-21133374D01*
X9099048Y-21085755D01*
X9099048Y-21047660D01*
X9089524Y-21000041D01*
X9080000Y-20971470D01*
X9070477Y-20952422D01*
X9051429Y-20923851D01*
X9041905Y-20914327D01*
X2089048Y-21272422D02*
X2289048Y-21472422D01*
X2289048Y-21272422D02*
X2089048Y-21472422D01*
X2189048Y-21272422D02*
X2189048Y-21472422D01*
X2089048Y-21372422D02*
X2289048Y-21372422D01*
X2632381Y-21262898D02*
X2594286Y-21262898D01*
X2575238Y-21272422D01*
X2565715Y-21281946D01*
X2546667Y-21310517D01*
X2537143Y-21348612D01*
X2537143Y-21424803D01*
X2546667Y-21443851D01*
X2556191Y-21453374D01*
X2575238Y-21462898D01*
X2613334Y-21462898D01*
X2632381Y-21453374D01*
X2641905Y-21443851D01*
X2651429Y-21424803D01*
X2651429Y-21377184D01*
X2641905Y-21358136D01*
X2632381Y-21348612D01*
X2613334Y-21339089D01*
X2575238Y-21339089D01*
X2556191Y-21348612D01*
X2546667Y-21358136D01*
X2537143Y-21377184D01*
X2737143Y-21443851D02*
X2746667Y-21453374D01*
X2737143Y-21462898D01*
X2727619Y-21453374D01*
X2737143Y-21443851D01*
X2737143Y-21462898D01*
X2860953Y-21348612D02*
X2841905Y-21339089D01*
X2832381Y-21329565D01*
X2822857Y-21310517D01*
X2822857Y-21300993D01*
X2832381Y-21281946D01*
X2841905Y-21272422D01*
X2860953Y-21262898D01*
X2899048Y-21262898D01*
X2918096Y-21272422D01*
X2927619Y-21281946D01*
X2937143Y-21300993D01*
X2937143Y-21310517D01*
X2927619Y-21329565D01*
X2918096Y-21339089D01*
X2899048Y-21348612D01*
X2860953Y-21348612D01*
X2841905Y-21358136D01*
X2832381Y-21367660D01*
X2822857Y-21386708D01*
X2822857Y-21424803D01*
X2832381Y-21443851D01*
X2841905Y-21453374D01*
X2860953Y-21462898D01*
X2899048Y-21462898D01*
X2918096Y-21453374D01*
X2927619Y-21443851D01*
X2937143Y-21424803D01*
X2937143Y-21386708D01*
X2927619Y-21367660D01*
X2918096Y-21358136D01*
X2899048Y-21348612D01*
X3060953Y-21262898D02*
X3080000Y-21262898D01*
X3099048Y-21272422D01*
X3108572Y-21281946D01*
X3118096Y-21300993D01*
X3127619Y-21339089D01*
X3127619Y-21386708D01*
X3118096Y-21424803D01*
X3108572Y-21443851D01*
X3099048Y-21453374D01*
X3080000Y-21462898D01*
X3060953Y-21462898D01*
X3041905Y-21453374D01*
X3032381Y-21443851D01*
X3022857Y-21424803D01*
X3013334Y-21386708D01*
X3013334Y-21339089D01*
X3022857Y-21300993D01*
X3032381Y-21281946D01*
X3041905Y-21272422D01*
X3060953Y-21262898D01*
X3251429Y-21262898D02*
X3270476Y-21262898D01*
X3289524Y-21272422D01*
X3299048Y-21281946D01*
X3308572Y-21300993D01*
X3318096Y-21339089D01*
X3318096Y-21386708D01*
X3308572Y-21424803D01*
X3299048Y-21443851D01*
X3289524Y-21453374D01*
X3270476Y-21462898D01*
X3251429Y-21462898D01*
X3232381Y-21453374D01*
X3222857Y-21443851D01*
X3213334Y-21424803D01*
X3203810Y-21386708D01*
X3203810Y-21339089D01*
X3213334Y-21300993D01*
X3222857Y-21281946D01*
X3232381Y-21272422D01*
X3251429Y-21262898D01*
X3403810Y-21462898D02*
X3403810Y-21329565D01*
X3403810Y-21348612D02*
X3413334Y-21339089D01*
X3432381Y-21329565D01*
X3460953Y-21329565D01*
X3480000Y-21339089D01*
X3489524Y-21358136D01*
X3489524Y-21462898D01*
X3489524Y-21358136D02*
X3499048Y-21339089D01*
X3518096Y-21329565D01*
X3546667Y-21329565D01*
X3565715Y-21339089D01*
X3575238Y-21358136D01*
X3575238Y-21462898D01*
X3670476Y-21462898D02*
X3670476Y-21329565D01*
X3670476Y-21348612D02*
X3680000Y-21339089D01*
X3699048Y-21329565D01*
X3727619Y-21329565D01*
X3746667Y-21339089D01*
X3756191Y-21358136D01*
X3756191Y-21462898D01*
X3756191Y-21358136D02*
X3765715Y-21339089D01*
X3784762Y-21329565D01*
X3813334Y-21329565D01*
X3832381Y-21339089D01*
X3841905Y-21358136D01*
X3841905Y-21462898D01*
X4232381Y-21253374D02*
X4060953Y-21510517D01*
X4489524Y-21262898D02*
X4508572Y-21262898D01*
X4527619Y-21272422D01*
X4537143Y-21281946D01*
X4546667Y-21300993D01*
X4556191Y-21339089D01*
X4556191Y-21386708D01*
X4546667Y-21424803D01*
X4537143Y-21443851D01*
X4527619Y-21453374D01*
X4508572Y-21462898D01*
X4489524Y-21462898D01*
X4470477Y-21453374D01*
X4460953Y-21443851D01*
X4451429Y-21424803D01*
X4441905Y-21386708D01*
X4441905Y-21339089D01*
X4451429Y-21300993D01*
X4460953Y-21281946D01*
X4470477Y-21272422D01*
X4489524Y-21262898D01*
X4641905Y-21443851D02*
X4651429Y-21453374D01*
X4641905Y-21462898D01*
X4632381Y-21453374D01*
X4641905Y-21443851D01*
X4641905Y-21462898D01*
X4727619Y-21281946D02*
X4737143Y-21272422D01*
X4756191Y-21262898D01*
X4803810Y-21262898D01*
X4822858Y-21272422D01*
X4832381Y-21281946D01*
X4841905Y-21300993D01*
X4841905Y-21320041D01*
X4832381Y-21348612D01*
X4718096Y-21462898D01*
X4841905Y-21462898D01*
X5013334Y-21262898D02*
X4975238Y-21262898D01*
X4956191Y-21272422D01*
X4946667Y-21281946D01*
X4927619Y-21310517D01*
X4918096Y-21348612D01*
X4918096Y-21424803D01*
X4927619Y-21443851D01*
X4937143Y-21453374D01*
X4956191Y-21462898D01*
X4994286Y-21462898D01*
X5013334Y-21453374D01*
X5022858Y-21443851D01*
X5032381Y-21424803D01*
X5032381Y-21377184D01*
X5022858Y-21358136D01*
X5013334Y-21348612D01*
X4994286Y-21339089D01*
X4956191Y-21339089D01*
X4937143Y-21348612D01*
X4927619Y-21358136D01*
X4918096Y-21377184D01*
X5099048Y-21262898D02*
X5232381Y-21262898D01*
X5146667Y-21462898D01*
X5289524Y-21262898D02*
X5422858Y-21262898D01*
X5337143Y-21462898D01*
X5489524Y-21262898D02*
X5489524Y-21300993D01*
X5565715Y-21262898D02*
X5565715Y-21300993D01*
X5860953Y-21539089D02*
X5851429Y-21529565D01*
X5832381Y-21500993D01*
X5822857Y-21481946D01*
X5813334Y-21453374D01*
X5803810Y-21405755D01*
X5803810Y-21367660D01*
X5813334Y-21320041D01*
X5822857Y-21291470D01*
X5832381Y-21272422D01*
X5851429Y-21243851D01*
X5860953Y-21234327D01*
X6041905Y-21462898D02*
X5927619Y-21462898D01*
X5984762Y-21462898D02*
X5984762Y-21262898D01*
X5965715Y-21291470D01*
X5946667Y-21310517D01*
X5927619Y-21320041D01*
X6280000Y-21462898D02*
X6280000Y-21262898D01*
X6365715Y-21462898D02*
X6365715Y-21358136D01*
X6356191Y-21339089D01*
X6337143Y-21329565D01*
X6308572Y-21329565D01*
X6289524Y-21339089D01*
X6280000Y-21348612D01*
X6489524Y-21462898D02*
X6470476Y-21453374D01*
X6460953Y-21443851D01*
X6451429Y-21424803D01*
X6451429Y-21367660D01*
X6460953Y-21348612D01*
X6470476Y-21339089D01*
X6489524Y-21329565D01*
X6518096Y-21329565D01*
X6537143Y-21339089D01*
X6546667Y-21348612D01*
X6556191Y-21367660D01*
X6556191Y-21424803D01*
X6546667Y-21443851D01*
X6537143Y-21453374D01*
X6518096Y-21462898D01*
X6489524Y-21462898D01*
X6670476Y-21462898D02*
X6651429Y-21453374D01*
X6641905Y-21434327D01*
X6641905Y-21262898D01*
X6822857Y-21453374D02*
X6803810Y-21462898D01*
X6765715Y-21462898D01*
X6746667Y-21453374D01*
X6737143Y-21434327D01*
X6737143Y-21358136D01*
X6746667Y-21339089D01*
X6765715Y-21329565D01*
X6803810Y-21329565D01*
X6822857Y-21339089D01*
X6832381Y-21358136D01*
X6832381Y-21377184D01*
X6737143Y-21396232D01*
X6899048Y-21539089D02*
X6908572Y-21529565D01*
X6927619Y-21500993D01*
X6937143Y-21481946D01*
X6946667Y-21453374D01*
X6956191Y-21405755D01*
X6956191Y-21367660D01*
X6946667Y-21320041D01*
X6937143Y-21291470D01*
X6927619Y-21272422D01*
X6908572Y-21243851D01*
X6899048Y-21234327D01*
X7260953Y-21539089D02*
X7251429Y-21529565D01*
X7232381Y-21500993D01*
X7222857Y-21481946D01*
X7213334Y-21453374D01*
X7203810Y-21405755D01*
X7203810Y-21367660D01*
X7213334Y-21320041D01*
X7222857Y-21291470D01*
X7232381Y-21272422D01*
X7251429Y-21243851D01*
X7260953Y-21234327D01*
X7337143Y-21329565D02*
X7337143Y-21462898D01*
X7337143Y-21348612D02*
X7346667Y-21339089D01*
X7365715Y-21329565D01*
X7394286Y-21329565D01*
X7413334Y-21339089D01*
X7422857Y-21358136D01*
X7422857Y-21462898D01*
X7546667Y-21462898D02*
X7527619Y-21453374D01*
X7518096Y-21443851D01*
X7508572Y-21424803D01*
X7508572Y-21367660D01*
X7518096Y-21348612D01*
X7527619Y-21339089D01*
X7546667Y-21329565D01*
X7575238Y-21329565D01*
X7594286Y-21339089D01*
X7603810Y-21348612D01*
X7613334Y-21367660D01*
X7613334Y-21424803D01*
X7603810Y-21443851D01*
X7594286Y-21453374D01*
X7575238Y-21462898D01*
X7546667Y-21462898D01*
X7670476Y-21329565D02*
X7746667Y-21329565D01*
X7699048Y-21262898D02*
X7699048Y-21434327D01*
X7708572Y-21453374D01*
X7727619Y-21462898D01*
X7746667Y-21462898D01*
X7965715Y-21329565D02*
X7965715Y-21529565D01*
X7965715Y-21339089D02*
X7984762Y-21329565D01*
X8022857Y-21329565D01*
X8041905Y-21339089D01*
X8051429Y-21348612D01*
X8060953Y-21367660D01*
X8060953Y-21424803D01*
X8051429Y-21443851D01*
X8041905Y-21453374D01*
X8022857Y-21462898D01*
X7984762Y-21462898D01*
X7965715Y-21453374D01*
X8175238Y-21462898D02*
X8156191Y-21453374D01*
X8146667Y-21434327D01*
X8146667Y-21262898D01*
X8337143Y-21462898D02*
X8337143Y-21358136D01*
X8327619Y-21339089D01*
X8308572Y-21329565D01*
X8270476Y-21329565D01*
X8251429Y-21339089D01*
X8337143Y-21453374D02*
X8318096Y-21462898D01*
X8270476Y-21462898D01*
X8251429Y-21453374D01*
X8241905Y-21434327D01*
X8241905Y-21415279D01*
X8251429Y-21396232D01*
X8270476Y-21386708D01*
X8318096Y-21386708D01*
X8337143Y-21377184D01*
X8403810Y-21329565D02*
X8480000Y-21329565D01*
X8432381Y-21262898D02*
X8432381Y-21434327D01*
X8441905Y-21453374D01*
X8460953Y-21462898D01*
X8480000Y-21462898D01*
X8622858Y-21453374D02*
X8603810Y-21462898D01*
X8565715Y-21462898D01*
X8546667Y-21453374D01*
X8537143Y-21434327D01*
X8537143Y-21358136D01*
X8546667Y-21339089D01*
X8565715Y-21329565D01*
X8603810Y-21329565D01*
X8622858Y-21339089D01*
X8632381Y-21358136D01*
X8632381Y-21377184D01*
X8537143Y-21396232D01*
X8803810Y-21462898D02*
X8803810Y-21262898D01*
X8803810Y-21453374D02*
X8784762Y-21462898D01*
X8746667Y-21462898D01*
X8727619Y-21453374D01*
X8718096Y-21443851D01*
X8708572Y-21424803D01*
X8708572Y-21367660D01*
X8718096Y-21348612D01*
X8727619Y-21339089D01*
X8746667Y-21329565D01*
X8784762Y-21329565D01*
X8803810Y-21339089D01*
X8880000Y-21539089D02*
X8889524Y-21529565D01*
X8908572Y-21500993D01*
X8918096Y-21481946D01*
X8927619Y-21453374D01*
X8937143Y-21405755D01*
X8937143Y-21367660D01*
X8927619Y-21320041D01*
X8918096Y-21291470D01*
X8908572Y-21272422D01*
X8889524Y-21243851D01*
X8880000Y-21234327D01*
M02*
