%TF.GenerationSoftware,KiCad,Pcbnew,(6.0.7)*%
%TF.CreationDate,2023-01-12T11:55:26-06:00*%
%TF.ProjectId,ErgoDOX,4572676f-444f-4582-9e6b-696361645f70,rev?*%
%TF.SameCoordinates,Original*%
%TF.FileFunction,OtherDrawing,Comment*%
%FSLAX46Y46*%
G04 Gerber Fmt 4.6, Leading zero omitted, Abs format (unit mm)*
G04 Created by KiCad (PCBNEW (6.0.7)) date 2023-01-12 11:55:26*
%MOMM*%
%LPD*%
G01*
G04 APERTURE LIST*
%ADD10C,0.381000*%
%ADD11C,0.025400*%
G04 APERTURE END LIST*
D10*
%TO.C,RC1*%
X101854000Y-42037000D02*
X99314000Y-42037000D01*
X101854000Y-35687000D02*
X101854000Y-42037000D01*
X101854000Y-42011600D02*
X101854000Y-35661600D01*
D11*
X100584000Y-38836600D02*
X100584000Y-38836600D01*
X100584000Y-38862000D02*
X100584000Y-38862000D01*
D10*
X99314000Y-35661600D02*
X99314000Y-42011600D01*
X99314000Y-35687000D02*
X101854000Y-35687000D01*
X99314000Y-42037000D02*
X99314000Y-35687000D01*
X99314000Y-42011600D02*
X101854000Y-42011600D01*
X101854000Y-35661600D02*
X99314000Y-35661600D01*
%TO.C,RA1*%
X92710000Y-35687000D02*
X95250000Y-35687000D01*
X92710000Y-42037000D02*
X92710000Y-35687000D01*
D11*
X93980000Y-38862000D02*
X93980000Y-38862000D01*
D10*
X95250000Y-35687000D02*
X95250000Y-42037000D01*
X95250000Y-42037000D02*
X92710000Y-42037000D01*
D11*
%TO.C,RB1*%
X97282000Y-38862000D02*
X97282000Y-38862000D01*
D10*
X96012000Y-42037000D02*
X96012000Y-35687000D01*
X96012000Y-35687000D02*
X98552000Y-35687000D01*
X98552000Y-42037000D02*
X96012000Y-42037000D01*
X98552000Y-35687000D02*
X98552000Y-42037000D01*
%TO.C,R1*%
X105918000Y-42062400D02*
X108458000Y-42062400D01*
X108458000Y-42062400D02*
X108458000Y-35712400D01*
D11*
X107188000Y-38887400D02*
X107188000Y-38887400D01*
D10*
X108458000Y-35712400D02*
X105918000Y-35712400D01*
X105918000Y-42037000D02*
X105918000Y-35687000D01*
X108458000Y-42037000D02*
X105918000Y-42037000D01*
X105918000Y-35712400D02*
X105918000Y-42062400D01*
D11*
X107188000Y-38862000D02*
X107188000Y-38862000D01*
D10*
X105918000Y-35687000D02*
X108458000Y-35687000D01*
X108458000Y-35687000D02*
X108458000Y-42037000D01*
%TO.C,R2*%
X105156000Y-35687000D02*
X102616000Y-35687000D01*
X102616000Y-42037000D02*
X102616000Y-35687000D01*
D11*
X103886000Y-38862000D02*
X103886000Y-38862000D01*
D10*
X102616000Y-42037000D02*
X105156000Y-42037000D01*
X102616000Y-35687000D02*
X105156000Y-35687000D01*
X105156000Y-35687000D02*
X105156000Y-42037000D01*
X102616000Y-35687000D02*
X102616000Y-42037000D01*
D11*
X103886000Y-38862000D02*
X103886000Y-38862000D01*
D10*
X105156000Y-42037000D02*
X102616000Y-42037000D01*
X105156000Y-42037000D02*
X105156000Y-35687000D01*
%TO.C,J6*%
X88597900Y-31695400D02*
X84102100Y-31695400D01*
X81549400Y-30400000D02*
X81549400Y-42465000D01*
D11*
X86350000Y-30400000D02*
X86350000Y-30400000D01*
D10*
X81549400Y-42465000D02*
X91150600Y-42465000D01*
X84102100Y-31695400D02*
X84102100Y-30400000D01*
X91150600Y-42465000D02*
X91150600Y-30400000D01*
X84102100Y-30400000D02*
X81549400Y-30400000D01*
X88597900Y-30400000D02*
X88597900Y-31695400D01*
X91150600Y-30400000D02*
X88597900Y-30400000D01*
%TO.C,R3*%
X76006476Y-108458000D02*
X69656476Y-108458000D01*
D11*
X72831476Y-107188000D02*
X72831476Y-107188000D01*
D10*
X69656476Y-108458000D02*
X69656476Y-105918000D01*
X69656476Y-105918000D02*
X76006476Y-105918000D01*
X76006476Y-105918000D02*
X76006476Y-108458000D01*
%TO.C,U1*%
X72390000Y-48260000D02*
X110490000Y-48260000D01*
X72390000Y-53340000D02*
X72390000Y-48260000D01*
D11*
X91440000Y-50800000D02*
X91440000Y-50800000D01*
D10*
X110490000Y-53340000D02*
X72390000Y-53340000D01*
X110490000Y-48260000D02*
X110490000Y-53340000D01*
%TD*%
M02*
