%TF.GenerationSoftware,KiCad,Pcbnew,(6.0.7)*%
%TF.CreationDate,2023-01-03T11:14:27-06:00*%
%TF.ProjectId,ErgoDOX,4572676f-444f-4582-9e6b-696361645f70,rev?*%
%TF.SameCoordinates,Original*%
%TF.FileFunction,OtherDrawing,Comment*%
%FSLAX46Y46*%
G04 Gerber Fmt 4.6, Leading zero omitted, Abs format (unit mm)*
G04 Created by KiCad (PCBNEW (6.0.7)) date 2023-01-03 11:14:27*
%MOMM*%
%LPD*%
G01*
G04 APERTURE LIST*
%ADD10C,0.381000*%
%ADD11C,0.025400*%
G04 APERTURE END LIST*
D10*
%TO.C,RC1*%
X101854000Y-42037000D02*
X99314000Y-42037000D01*
X101854000Y-35687000D02*
X101854000Y-42037000D01*
D11*
X100584000Y-38862000D02*
X100584000Y-38862000D01*
D10*
X99314000Y-35687000D02*
X101854000Y-35687000D01*
X99314000Y-42037000D02*
X99314000Y-35687000D01*
%TO.C,RA1*%
X92710000Y-35687000D02*
X95250000Y-35687000D01*
X92710000Y-42037000D02*
X92710000Y-35687000D01*
D11*
X93980000Y-38862000D02*
X93980000Y-38862000D01*
D10*
X95250000Y-35687000D02*
X95250000Y-42037000D01*
X95250000Y-42037000D02*
X92710000Y-42037000D01*
D11*
%TO.C,RB1*%
X97282000Y-38862000D02*
X97282000Y-38862000D01*
D10*
X96012000Y-42037000D02*
X96012000Y-35687000D01*
X96012000Y-35687000D02*
X98552000Y-35687000D01*
X98552000Y-42037000D02*
X96012000Y-42037000D01*
X98552000Y-35687000D02*
X98552000Y-42037000D01*
%TO.C,R1*%
X105918000Y-42037000D02*
X105918000Y-35687000D01*
X108458000Y-42037000D02*
X105918000Y-42037000D01*
D11*
X107188000Y-38862000D02*
X107188000Y-38862000D01*
D10*
X105918000Y-35687000D02*
X108458000Y-35687000D01*
X108458000Y-35687000D02*
X108458000Y-42037000D01*
%TO.C,R2*%
X102616000Y-42037000D02*
X102616000Y-35687000D01*
X102616000Y-35687000D02*
X105156000Y-35687000D01*
X105156000Y-35687000D02*
X105156000Y-42037000D01*
D11*
X103886000Y-38862000D02*
X103886000Y-38862000D01*
D10*
X105156000Y-42037000D02*
X102616000Y-42037000D01*
%TO.C,R3*%
X76006476Y-108458000D02*
X69656476Y-108458000D01*
D11*
X72831476Y-107188000D02*
X72831476Y-107188000D01*
D10*
X69656476Y-108458000D02*
X69656476Y-105918000D01*
X69656476Y-105918000D02*
X76006476Y-105918000D01*
X76006476Y-105918000D02*
X76006476Y-108458000D01*
%TO.C,J6*%
X91160600Y-42545000D02*
X91160600Y-30480000D01*
X81559400Y-42545000D02*
X91160600Y-42545000D01*
X88607900Y-31775400D02*
X84112100Y-31775400D01*
X84112100Y-30480000D02*
X81559400Y-30480000D01*
X81559400Y-30480000D02*
X81559400Y-42545000D01*
D11*
X86360000Y-30480000D02*
X86360000Y-30480000D01*
D10*
X84112100Y-31775400D02*
X84112100Y-30480000D01*
X91160600Y-30480000D02*
X88607900Y-30480000D01*
X88607900Y-30480000D02*
X88607900Y-31775400D01*
%TO.C,U1*%
X72390000Y-48260000D02*
X110490000Y-48260000D01*
X72390000Y-53340000D02*
X72390000Y-48260000D01*
D11*
X91440000Y-50800000D02*
X91440000Y-50800000D01*
D10*
X110490000Y-53340000D02*
X72390000Y-53340000D01*
X110490000Y-48260000D02*
X110490000Y-53340000D01*
%TD*%
M02*
