%TF.GenerationSoftware,KiCad,Pcbnew,(6.0.1)*%
%TF.CreationDate,2022-02-21T20:26:07-06:00*%
%TF.ProjectId,ErgoDOX,4572676f-444f-4582-9e6b-696361645f70,rev?*%
%TF.SameCoordinates,Original*%
%TF.FileFunction,OtherDrawing,Comment*%
%FSLAX46Y46*%
G04 Gerber Fmt 4.6, Leading zero omitted, Abs format (unit mm)*
G04 Created by KiCad (PCBNEW (6.0.1)) date 2022-02-21 20:26:07*
%MOMM*%
%LPD*%
G01*
G04 APERTURE LIST*
%ADD10C,0.100000*%
%ADD11C,0.381000*%
%ADD12C,0.025400*%
G04 APERTURE END LIST*
D10*
%TO.C,P1*%
X135953714Y-30663190D02*
X135953714Y-30163190D01*
X136144190Y-30163190D01*
X136191809Y-30187000D01*
X136215619Y-30210809D01*
X136239428Y-30258428D01*
X136239428Y-30329857D01*
X136215619Y-30377476D01*
X136191809Y-30401285D01*
X136144190Y-30425095D01*
X135953714Y-30425095D01*
X136739428Y-30615571D02*
X136715619Y-30639380D01*
X136644190Y-30663190D01*
X136596571Y-30663190D01*
X136525142Y-30639380D01*
X136477523Y-30591761D01*
X136453714Y-30544142D01*
X136429904Y-30448904D01*
X136429904Y-30377476D01*
X136453714Y-30282238D01*
X136477523Y-30234619D01*
X136525142Y-30187000D01*
X136596571Y-30163190D01*
X136644190Y-30163190D01*
X136715619Y-30187000D01*
X136739428Y-30210809D01*
X137120380Y-30401285D02*
X137191809Y-30425095D01*
X137215619Y-30448904D01*
X137239428Y-30496523D01*
X137239428Y-30567952D01*
X137215619Y-30615571D01*
X137191809Y-30639380D01*
X137144190Y-30663190D01*
X136953714Y-30663190D01*
X136953714Y-30163190D01*
X137120380Y-30163190D01*
X137168000Y-30187000D01*
X137191809Y-30210809D01*
X137215619Y-30258428D01*
X137215619Y-30306047D01*
X137191809Y-30353666D01*
X137168000Y-30377476D01*
X137120380Y-30401285D01*
X136953714Y-30401285D01*
X137834666Y-30401285D02*
X138001333Y-30401285D01*
X138072761Y-30663190D02*
X137834666Y-30663190D01*
X137834666Y-30163190D01*
X138072761Y-30163190D01*
X138501333Y-30663190D02*
X138501333Y-30163190D01*
X138501333Y-30639380D02*
X138453714Y-30663190D01*
X138358476Y-30663190D01*
X138310857Y-30639380D01*
X138287047Y-30615571D01*
X138263238Y-30567952D01*
X138263238Y-30425095D01*
X138287047Y-30377476D01*
X138310857Y-30353666D01*
X138358476Y-30329857D01*
X138453714Y-30329857D01*
X138501333Y-30353666D01*
X138953714Y-30329857D02*
X138953714Y-30734619D01*
X138929904Y-30782238D01*
X138906095Y-30806047D01*
X138858476Y-30829857D01*
X138787047Y-30829857D01*
X138739428Y-30806047D01*
X138953714Y-30639380D02*
X138906095Y-30663190D01*
X138810857Y-30663190D01*
X138763238Y-30639380D01*
X138739428Y-30615571D01*
X138715619Y-30567952D01*
X138715619Y-30425095D01*
X138739428Y-30377476D01*
X138763238Y-30353666D01*
X138810857Y-30329857D01*
X138906095Y-30329857D01*
X138953714Y-30353666D01*
X139382285Y-30639380D02*
X139334666Y-30663190D01*
X139239428Y-30663190D01*
X139191809Y-30639380D01*
X139168000Y-30591761D01*
X139168000Y-30401285D01*
X139191809Y-30353666D01*
X139239428Y-30329857D01*
X139334666Y-30329857D01*
X139382285Y-30353666D01*
X139406095Y-30401285D01*
X139406095Y-30448904D01*
X139168000Y-30496523D01*
D11*
%TO.C,RC1*%
X100887962Y-41878090D02*
X99091910Y-40082038D01*
X105378090Y-37387962D02*
X100887962Y-41878090D01*
D12*
X102235000Y-38735000D02*
X102235000Y-38735000D01*
D11*
X103582038Y-35591910D02*
X105378090Y-37387962D01*
X99091910Y-40082038D02*
X103582038Y-35591910D01*
%TO.C,RA1*%
X95327038Y-34956910D02*
X97123090Y-36752962D01*
X90836910Y-39447038D02*
X95327038Y-34956910D01*
D12*
X93980000Y-38100000D02*
X93980000Y-38100000D01*
D11*
X97123090Y-36752962D02*
X92632962Y-41243090D01*
X92632962Y-41243090D02*
X90836910Y-39447038D01*
D12*
%TO.C,RB1*%
X97790000Y-38735000D02*
X97790000Y-38735000D01*
D11*
X94646910Y-40082038D02*
X99137038Y-35591910D01*
X99137038Y-35591910D02*
X100933090Y-37387962D01*
X96442962Y-41878090D02*
X94646910Y-40082038D01*
X100933090Y-37387962D02*
X96442962Y-41878090D01*
%TO.C,R1*%
X107346910Y-40082038D02*
X111837038Y-35591910D01*
X109142962Y-41878090D02*
X107346910Y-40082038D01*
D12*
X110490000Y-38735000D02*
X110490000Y-38735000D01*
D11*
X111837038Y-35591910D02*
X113633090Y-37387962D01*
X113633090Y-37387962D02*
X109142962Y-41878090D01*
%TO.C,R2*%
X103536910Y-40082038D02*
X108027038Y-35591910D01*
X108027038Y-35591910D02*
X109823090Y-37387962D01*
X109823090Y-37387962D02*
X105332962Y-41878090D01*
D12*
X106680000Y-38735000D02*
X106680000Y-38735000D01*
D11*
X105332962Y-41878090D02*
X103536910Y-40082038D01*
%TO.C,J1*%
X106639360Y-20335240D02*
X106639360Y-11336020D01*
X114340640Y-20335240D02*
X106639360Y-20335240D01*
X114340640Y-11336020D02*
X114340640Y-20335240D01*
D12*
X110490000Y-13335000D02*
X110490000Y-13335000D01*
D11*
X106639360Y-11336020D02*
X114340640Y-11336020D01*
%TO.C,R3*%
X80010000Y-99695000D02*
X82550000Y-99695000D01*
X82550000Y-106045000D02*
X80010000Y-106045000D01*
X80010000Y-106045000D02*
X80010000Y-99695000D01*
D12*
X81280000Y-102870000D02*
X81280000Y-102870000D01*
D11*
X82550000Y-99695000D02*
X82550000Y-106045000D01*
%TO.C,U1*%
X72390000Y-48260000D02*
X110490000Y-48260000D01*
X72390000Y-53340000D02*
X72390000Y-48260000D01*
D12*
X91440000Y-50800000D02*
X91440000Y-50800000D01*
D11*
X110490000Y-53340000D02*
X72390000Y-53340000D01*
X110490000Y-48260000D02*
X110490000Y-53340000D01*
%TD*%
M02*
