%TF.GenerationSoftware,KiCad,Pcbnew,(6.0.7)*%
%TF.CreationDate,2023-01-03T11:14:27-06:00*%
%TF.ProjectId,ErgoDOX,4572676f-444f-4582-9e6b-696361645f70,rev?*%
%TF.SameCoordinates,Original*%
%TF.FileFunction,Soldermask,Bot*%
%TF.FilePolarity,Negative*%
%FSLAX46Y46*%
G04 Gerber Fmt 4.6, Leading zero omitted, Abs format (unit mm)*
G04 Created by KiCad (PCBNEW (6.0.7)) date 2023-01-03 11:14:27*
%MOMM*%
%LPD*%
G01*
G04 APERTURE LIST*
G04 Aperture macros list*
%AMRoundRect*
0 Rectangle with rounded corners*
0 $1 Rounding radius*
0 $2 $3 $4 $5 $6 $7 $8 $9 X,Y pos of 4 corners*
0 Add a 4 corners polygon primitive as box body*
4,1,4,$2,$3,$4,$5,$6,$7,$8,$9,$2,$3,0*
0 Add four circle primitives for the rounded corners*
1,1,$1+$1,$2,$3*
1,1,$1+$1,$4,$5*
1,1,$1+$1,$6,$7*
1,1,$1+$1,$8,$9*
0 Add four rect primitives between the rounded corners*
20,1,$1+$1,$2,$3,$4,$5,0*
20,1,$1+$1,$4,$5,$6,$7,0*
20,1,$1+$1,$6,$7,$8,$9,0*
20,1,$1+$1,$8,$9,$2,$3,0*%
%AMRotRect*
0 Rectangle, with rotation*
0 The origin of the aperture is its center*
0 $1 length*
0 $2 width*
0 $3 Rotation angle, in degrees counterclockwise*
0 Add horizontal line*
21,1,$1,$2,0,0,$3*%
%AMFreePoly0*
4,1,22,0.500000,-0.750000,0.000000,-0.750000,0.000000,-0.745033,-0.079941,-0.743568,-0.215256,-0.701293,-0.333266,-0.622738,-0.424486,-0.514219,-0.481581,-0.384460,-0.499164,-0.250000,-0.500000,-0.250000,-0.500000,0.250000,-0.499164,0.250000,-0.499963,0.256109,-0.478152,0.396186,-0.417904,0.524511,-0.324060,0.630769,-0.204165,0.706417,-0.067858,0.745374,0.000000,0.744959,0.000000,0.750000,
0.500000,0.750000,0.500000,-0.750000,0.500000,-0.750000,$1*%
%AMFreePoly1*
4,1,20,0.000000,0.744959,0.073905,0.744508,0.209726,0.703889,0.328688,0.626782,0.421226,0.519385,0.479903,0.390333,0.500000,0.250000,0.500000,-0.250000,0.499851,-0.262216,0.476331,-0.402017,0.414519,-0.529596,0.319384,-0.634700,0.198574,-0.708877,0.061801,-0.746166,0.000000,-0.745033,0.000000,-0.750000,-0.500000,-0.750000,-0.500000,0.750000,0.000000,0.750000,0.000000,0.744959,
0.000000,0.744959,$1*%
G04 Aperture macros list end*
%ADD10C,1.701800*%
%ADD11C,3.987800*%
%ADD12C,3.600000*%
%ADD13RotRect,2.357000X2.500000X25.000000*%
%ADD14RotRect,2.550000X2.500000X25.000000*%
%ADD15C,1.651000*%
%ADD16RotRect,1.651000X1.651000X25.000000*%
%ADD17RotRect,0.838200X0.838200X25.000000*%
%ADD18RotRect,1.976000X2.022000X115.000000*%
%ADD19RotRect,2.550000X2.500000X115.000000*%
%ADD20RotRect,1.651000X1.651000X115.000000*%
%ADD21RotRect,0.838200X0.838200X115.000000*%
%ADD22RotRect,2.250000X2.250000X115.000000*%
%ADD23R,2.550000X2.500000*%
%ADD24R,1.651000X1.651000*%
%ADD25R,0.838200X0.838200*%
%ADD26R,2.500000X2.550000*%
%ADD27C,1.193800*%
%ADD28C,2.286000*%
%ADD29C,3.479800*%
%ADD30C,2.540000*%
%ADD31C,2.100000*%
%ADD32C,1.750000*%
%ADD33R,1.600000X1.600000*%
%ADD34O,1.600000X1.600000*%
%ADD35R,1.700000X1.700000*%
%ADD36O,1.700000X1.700000*%
%ADD37C,1.600000*%
%ADD38C,0.990600*%
%ADD39O,2.057400X1.752600*%
%ADD40C,1.752600*%
%ADD41R,2.000000X2.000000*%
%ADD42C,2.000000*%
%ADD43R,2.000000X3.200000*%
%ADD44RoundRect,0.250000X-0.600000X-0.750000X0.600000X-0.750000X0.600000X0.750000X-0.600000X0.750000X0*%
%ADD45O,1.700000X2.000000*%
%ADD46C,5.867400*%
%ADD47C,0.700000*%
%ADD48O,0.900000X1.700000*%
%ADD49O,0.900000X2.400000*%
%ADD50R,1.350000X1.350000*%
%ADD51O,1.350000X1.350000*%
%ADD52R,0.850000X0.850000*%
%ADD53O,0.850000X0.850000*%
%ADD54C,1.092200*%
%ADD55R,1.752600X1.752600*%
%ADD56O,2.200000X3.500000*%
%ADD57R,1.500000X2.500000*%
%ADD58O,1.500000X2.500000*%
%ADD59FreePoly0,0.000000*%
%ADD60FreePoly1,0.000000*%
%ADD61R,1.500000X1.000000*%
%ADD62FreePoly0,180.000000*%
%ADD63FreePoly1,180.000000*%
%ADD64RoundRect,0.150000X-0.512500X-0.150000X0.512500X-0.150000X0.512500X0.150000X-0.512500X0.150000X0*%
G04 APERTURE END LIST*
D10*
%TO.C,SW0:9*%
X47352244Y-158386179D03*
D11*
X42748200Y-160533080D03*
D10*
X38144156Y-162679981D03*
D12*
X45127782Y-156620883D03*
D13*
X48199112Y-155177664D03*
D12*
X42903321Y-154855586D03*
D14*
X35022108Y-158398251D03*
D12*
X38302893Y-157033902D03*
X38221717Y-159841234D03*
D15*
X41442068Y-166747299D03*
X42515518Y-169049321D03*
D16*
X48348133Y-163526948D03*
X49421584Y-165828970D03*
D17*
X47476375Y-166736035D03*
X44460727Y-168142255D03*
%TD*%
D11*
%TO.C,SW0:11*%
X64038480Y-161117280D03*
D10*
X61891579Y-156513236D03*
X66185381Y-165721324D03*
D12*
X58360986Y-160962159D03*
X60126283Y-158737698D03*
D18*
X58546966Y-155940026D03*
D12*
X60539302Y-165562587D03*
D19*
X61903651Y-168843372D03*
D12*
X63346634Y-165643763D03*
D15*
X72554721Y-161349962D03*
X70252699Y-162423412D03*
D20*
X69334370Y-154443896D03*
X67032348Y-155517347D03*
D21*
X71647655Y-159404753D03*
X70241435Y-156389105D03*
%TD*%
D10*
%TO.C,SW0:12*%
X46195956Y-179946901D03*
D11*
X50800000Y-177800000D03*
D10*
X55404044Y-175653099D03*
D12*
X50955121Y-172122506D03*
D14*
X56338370Y-172403802D03*
D12*
X53179582Y-173887803D03*
D14*
X43073908Y-175665171D03*
D12*
X46273517Y-177108154D03*
X46354693Y-174300822D03*
D15*
X49493868Y-184014219D03*
X50567318Y-186316241D03*
D16*
X56399933Y-180793868D03*
X57473384Y-183095890D03*
D17*
X55528175Y-184002955D03*
X52512527Y-185409175D03*
%TD*%
D11*
%TO.C,SW0:10*%
X81302860Y-153065480D03*
D10*
X83449761Y-157669524D03*
X79155959Y-148461436D03*
D22*
X75872320Y-148030817D03*
D12*
X75625366Y-152910359D03*
X77390663Y-150685898D03*
X80611014Y-157591963D03*
X77803682Y-157510787D03*
D19*
X79168031Y-160791572D03*
D15*
X87517079Y-154371612D03*
X89819101Y-153298162D03*
D20*
X86598750Y-146392096D03*
X84296728Y-147465547D03*
D21*
X87505815Y-148337305D03*
X88912035Y-151352953D03*
%TD*%
D11*
%TO.C,SW1:13*%
X186690000Y-143202660D03*
D10*
X181610000Y-143202660D03*
X191770000Y-143202660D03*
D12*
X189230000Y-138122660D03*
D23*
X193990000Y-140652660D03*
D12*
X190500000Y-140662660D03*
X182880000Y-140662660D03*
D23*
X180590000Y-138002660D03*
D12*
X184140000Y-138152660D03*
D15*
X182880000Y-148282660D03*
X182880000Y-150822660D03*
D24*
X190500000Y-148282660D03*
X190500000Y-150822660D03*
D25*
X185026300Y-150822660D03*
X188353700Y-150822660D03*
%TD*%
D10*
%TO.C,SW1:10*%
X134620000Y-138430000D03*
D11*
X129540000Y-138430000D03*
D10*
X124460000Y-138430000D03*
D23*
X136840000Y-135880000D03*
D12*
X132080000Y-133350000D03*
X133350000Y-135890000D03*
X126990000Y-133380000D03*
D23*
X123440000Y-133230000D03*
D12*
X125730000Y-135890000D03*
D15*
X125730000Y-143510000D03*
X125730000Y-146050000D03*
D24*
X133350000Y-146050000D03*
X133350000Y-143510000D03*
D25*
X131203700Y-146050000D03*
X127876300Y-146050000D03*
%TD*%
D10*
%TO.C,SW1:9*%
X115570000Y-140027660D03*
D11*
X110490000Y-140027660D03*
D10*
X105410000Y-140027660D03*
D12*
X113030000Y-134947660D03*
D23*
X117790000Y-137477660D03*
D12*
X114300000Y-137487660D03*
X106680000Y-137487660D03*
D23*
X104390000Y-134827660D03*
D12*
X107940000Y-134977660D03*
D15*
X106680000Y-145107660D03*
X106680000Y-147647660D03*
D24*
X114300000Y-145107660D03*
X114300000Y-147647660D03*
D25*
X108826300Y-147647660D03*
X112153700Y-147647660D03*
%TD*%
D11*
%TO.C,SW2:13*%
X191452500Y-124152660D03*
D10*
X196532500Y-124152660D03*
X186372500Y-124152660D03*
D23*
X198752500Y-121602660D03*
D12*
X195262500Y-121612660D03*
X193992500Y-119072660D03*
D23*
X185352500Y-118952660D03*
D12*
X188902500Y-119102660D03*
X187642500Y-121612660D03*
D15*
X187642500Y-129232660D03*
X187642500Y-131772660D03*
D24*
X195262500Y-131772660D03*
X195262500Y-129232660D03*
D25*
X189788800Y-131772660D03*
X193116200Y-131772660D03*
%TD*%
D10*
%TO.C,SW2:10*%
X134620000Y-119380000D03*
D11*
X129540000Y-119380000D03*
D10*
X124460000Y-119380000D03*
D12*
X132080000Y-114300000D03*
X133350000Y-116840000D03*
D23*
X136840000Y-116830000D03*
D12*
X125730000Y-116840000D03*
X126990000Y-114330000D03*
D23*
X123440000Y-114180000D03*
D15*
X125730000Y-124460000D03*
X125730000Y-127000000D03*
D24*
X133350000Y-124460000D03*
X133350000Y-127000000D03*
D25*
X131203700Y-127000000D03*
X127876300Y-127000000D03*
%TD*%
D11*
%TO.C,SW2:9*%
X110490000Y-120977660D03*
D10*
X115570000Y-120977660D03*
X105410000Y-120977660D03*
D23*
X117790000Y-118427660D03*
D12*
X114300000Y-118437660D03*
X113030000Y-115897660D03*
X106680000Y-118437660D03*
X107940000Y-115927660D03*
D23*
X104390000Y-115777660D03*
D15*
X106680000Y-126057660D03*
X106680000Y-128597660D03*
D24*
X114300000Y-128597660D03*
X114300000Y-126057660D03*
D25*
X108826300Y-128597660D03*
X112153700Y-128597660D03*
%TD*%
D10*
%TO.C,SW2:7*%
X72390000Y-112405160D03*
D11*
X72390000Y-117485160D03*
D10*
X72390000Y-122565160D03*
D26*
X69840000Y-110185160D03*
D12*
X67310000Y-114945160D03*
X69850000Y-113675160D03*
X69850000Y-121295160D03*
X67340000Y-120035160D03*
D26*
X67190000Y-123585160D03*
D15*
X77470000Y-121295160D03*
X80010000Y-121295160D03*
D24*
X77470000Y-113675160D03*
X80010000Y-113675160D03*
D25*
X80010000Y-115821460D03*
X80010000Y-119148860D03*
%TD*%
D10*
%TO.C,SW3:13*%
X196532500Y-105102660D03*
D11*
X191452500Y-105102660D03*
D10*
X186372500Y-105102660D03*
D23*
X198752500Y-102552660D03*
D12*
X193992500Y-100022660D03*
X195262500Y-102562660D03*
D23*
X185352500Y-99902660D03*
D12*
X187642500Y-102562660D03*
X188902500Y-100052660D03*
D15*
X187642500Y-110182660D03*
X187642500Y-112722660D03*
D24*
X195262500Y-112722660D03*
X195262500Y-110182660D03*
D25*
X189788800Y-112722660D03*
X193116200Y-112722660D03*
%TD*%
D10*
%TO.C,SW3:11*%
X143510000Y-101927660D03*
X153670000Y-101927660D03*
D11*
X148590000Y-101927660D03*
D23*
X155890000Y-99377660D03*
D12*
X152400000Y-99387660D03*
X151130000Y-96847660D03*
X144780000Y-99387660D03*
X146040000Y-96877660D03*
D23*
X142490000Y-96727660D03*
D15*
X144780000Y-109547660D03*
X144780000Y-107007660D03*
D24*
X152400000Y-107007660D03*
X152400000Y-109547660D03*
D25*
X146926300Y-109547660D03*
X150253700Y-109547660D03*
%TD*%
D10*
%TO.C,SW3:10*%
X124460000Y-100330000D03*
X134620000Y-100330000D03*
D11*
X129540000Y-100330000D03*
D12*
X133350000Y-97790000D03*
D23*
X136840000Y-97780000D03*
D12*
X132080000Y-95250000D03*
X126990000Y-95280000D03*
D23*
X123440000Y-95130000D03*
D12*
X125730000Y-97790000D03*
D15*
X125730000Y-107950000D03*
X125730000Y-105410000D03*
D24*
X133350000Y-107950000D03*
X133350000Y-105410000D03*
D25*
X127876300Y-107950000D03*
X131203700Y-107950000D03*
%TD*%
D11*
%TO.C,SW3:9*%
X110490000Y-101927660D03*
D10*
X105410000Y-101927660D03*
X115570000Y-101927660D03*
D23*
X117790000Y-99377660D03*
D12*
X114300000Y-99387660D03*
X113030000Y-96847660D03*
X106680000Y-99387660D03*
D23*
X104390000Y-96727660D03*
D12*
X107940000Y-96877660D03*
D15*
X106680000Y-109547660D03*
X106680000Y-107007660D03*
D24*
X114300000Y-107007660D03*
X114300000Y-109547660D03*
D25*
X112153700Y-109547660D03*
X108826300Y-109547660D03*
%TD*%
D11*
%TO.C,SW3:8*%
X91440000Y-103197660D03*
D10*
X86360000Y-103197660D03*
X96520000Y-103197660D03*
D23*
X98740000Y-100647660D03*
D12*
X95250000Y-100657660D03*
X93980000Y-98117660D03*
X88890000Y-98147660D03*
X87630000Y-100657660D03*
D23*
X85340000Y-97997660D03*
D15*
X87630000Y-108277660D03*
X87630000Y-110817660D03*
D24*
X95250000Y-108277660D03*
X95250000Y-110817660D03*
D25*
X93103700Y-110817660D03*
X89776300Y-110817660D03*
%TD*%
D11*
%TO.C,SW4:13*%
X191452500Y-86052660D03*
D10*
X186372500Y-86052660D03*
X196532500Y-86052660D03*
D12*
X193992500Y-80972660D03*
D23*
X198752500Y-83502660D03*
D12*
X195262500Y-83512660D03*
D23*
X185352500Y-80852660D03*
D12*
X188902500Y-81002660D03*
X187642500Y-83512660D03*
D15*
X187642500Y-91132660D03*
X187642500Y-93672660D03*
D24*
X195262500Y-93672660D03*
X195262500Y-91132660D03*
D25*
X193116200Y-93672660D03*
X189788800Y-93672660D03*
%TD*%
D10*
%TO.C,SW4:12*%
X162560000Y-86052660D03*
D11*
X167640000Y-86052660D03*
D10*
X172720000Y-86052660D03*
D12*
X170180000Y-80972660D03*
X171450000Y-83512660D03*
D23*
X174940000Y-83502660D03*
D12*
X165090000Y-81002660D03*
X163830000Y-83512660D03*
D23*
X161540000Y-80852660D03*
D15*
X163830000Y-93672660D03*
X163830000Y-91132660D03*
D24*
X171450000Y-93672660D03*
X171450000Y-91132660D03*
D25*
X165976300Y-93672660D03*
X169303700Y-93672660D03*
%TD*%
D10*
%TO.C,SW4:11*%
X143510000Y-82877660D03*
X153670000Y-82877660D03*
D11*
X148590000Y-82877660D03*
D12*
X152400000Y-80337660D03*
D23*
X155890000Y-80327660D03*
D12*
X151130000Y-77797660D03*
D23*
X142490000Y-77677660D03*
D12*
X144780000Y-80337660D03*
X146040000Y-77827660D03*
D15*
X144780000Y-90497660D03*
X144780000Y-87957660D03*
D24*
X152400000Y-87957660D03*
X152400000Y-90497660D03*
D25*
X150253700Y-90497660D03*
X146926300Y-90497660D03*
%TD*%
D10*
%TO.C,SW4:10*%
X124460000Y-81280000D03*
D11*
X129540000Y-81280000D03*
D10*
X134620000Y-81280000D03*
D12*
X133350000Y-78740000D03*
X132080000Y-76200000D03*
D23*
X136840000Y-78730000D03*
D12*
X126990000Y-76230000D03*
X125730000Y-78740000D03*
D23*
X123440000Y-76080000D03*
D15*
X125730000Y-88900000D03*
X125730000Y-86360000D03*
D24*
X133350000Y-86360000D03*
X133350000Y-88900000D03*
D25*
X131203700Y-88900000D03*
X127876300Y-88900000D03*
%TD*%
D10*
%TO.C,SW4:9*%
X105410000Y-82877660D03*
D11*
X110490000Y-82877660D03*
D10*
X115570000Y-82877660D03*
D23*
X117790000Y-80327660D03*
D12*
X114300000Y-80337660D03*
X113030000Y-77797660D03*
X107940000Y-77827660D03*
D23*
X104390000Y-77677660D03*
D12*
X106680000Y-80337660D03*
D15*
X106680000Y-87957660D03*
X106680000Y-90497660D03*
D24*
X114300000Y-87957660D03*
X114300000Y-90497660D03*
D25*
X112153700Y-90497660D03*
X108826300Y-90497660D03*
%TD*%
D10*
%TO.C,SW4:8*%
X96520000Y-84147660D03*
X86360000Y-84147660D03*
D11*
X91440000Y-84147660D03*
D12*
X95250000Y-81607660D03*
X93980000Y-79067660D03*
D23*
X98740000Y-81597660D03*
D12*
X88890000Y-79097660D03*
D23*
X85340000Y-78947660D03*
D12*
X87630000Y-81607660D03*
D15*
X87630000Y-91767660D03*
X87630000Y-89227660D03*
D24*
X95250000Y-89227660D03*
X95250000Y-91767660D03*
D25*
X93103700Y-91767660D03*
X89776300Y-91767660D03*
%TD*%
D11*
%TO.C,SW4:7*%
X72390000Y-88910160D03*
D10*
X72390000Y-83830160D03*
X72390000Y-93990160D03*
D12*
X67310000Y-86370160D03*
X69850000Y-85100160D03*
D26*
X69840000Y-81610160D03*
X67190000Y-95010160D03*
D12*
X67340000Y-91460160D03*
X69850000Y-92720160D03*
D15*
X80010000Y-92720160D03*
X77470000Y-92720160D03*
D24*
X80010000Y-85100160D03*
X77470000Y-85100160D03*
D25*
X80010000Y-90573860D03*
X80010000Y-87246460D03*
%TD*%
D10*
%TO.C,SW0:7*%
X30094896Y-145415601D03*
X39302984Y-141121799D03*
D11*
X34698940Y-143268700D03*
D12*
X37078522Y-139356503D03*
D14*
X40237310Y-137872502D03*
D12*
X34854061Y-137591206D03*
D14*
X26972848Y-141133871D03*
D12*
X30253633Y-139769522D03*
X30172457Y-142576854D03*
D15*
X33392808Y-149482919D03*
X34466258Y-151784941D03*
D16*
X41372324Y-148564590D03*
X40298873Y-146262568D03*
D17*
X36411467Y-150877875D03*
X39427115Y-149471655D03*
%TD*%
D11*
%TO.C,SW1:11*%
X148590000Y-140027660D03*
D10*
X153670000Y-140027660D03*
X143510000Y-140027660D03*
D12*
X151130000Y-134947660D03*
X152400000Y-137487660D03*
D23*
X155890000Y-137477660D03*
X142490000Y-134827660D03*
D12*
X144780000Y-137487660D03*
X146040000Y-134977660D03*
D15*
X144780000Y-145107660D03*
X144780000Y-147647660D03*
D24*
X152400000Y-145107660D03*
X152400000Y-147647660D03*
D25*
X146926300Y-147647660D03*
X150253700Y-147647660D03*
%TD*%
D10*
%TO.C,SW0:8*%
X47359276Y-137366341D03*
D11*
X51963320Y-135219440D03*
D10*
X56567364Y-133072539D03*
D12*
X52118441Y-129541946D03*
X54342902Y-131307243D03*
D14*
X57501690Y-129823242D03*
D12*
X47436837Y-134527594D03*
D14*
X44237228Y-133084611D03*
D12*
X47518013Y-131720262D03*
D15*
X51730638Y-143735681D03*
X50657188Y-141433659D03*
D16*
X57563253Y-138213308D03*
X58636704Y-140515330D03*
D17*
X56691495Y-141422395D03*
X53675847Y-142828615D03*
%TD*%
D15*
%TO.C,LED_C1*%
X77470000Y-118755160D03*
D24*
X77470000Y-116215160D03*
%TD*%
D15*
%TO.C,LED_B1*%
X77470000Y-90180160D03*
D24*
X77470000Y-87640160D03*
%TD*%
D15*
%TO.C,LED_A1*%
X71120000Y-70180200D03*
D24*
X73660000Y-70180200D03*
%TD*%
D15*
%TO.C,RC1*%
X100584000Y-33782001D03*
X100584000Y-43941999D03*
%TD*%
%TO.C,RA1*%
X93980000Y-33782001D03*
X93980000Y-43941999D03*
%TD*%
%TO.C,RB1*%
X97282000Y-33782001D03*
X97282000Y-43941999D03*
%TD*%
%TO.C,R1*%
X107188000Y-43941999D03*
X107188000Y-33782001D03*
%TD*%
%TO.C,R2*%
X103886000Y-43941999D03*
X103886000Y-33782001D03*
%TD*%
D10*
%TO.C,SW5:13*%
X186372500Y-67005200D03*
D11*
X191452500Y-67005200D03*
D10*
X196532500Y-67005200D03*
D12*
X193992500Y-61925200D03*
X195262500Y-64465200D03*
D23*
X198752500Y-64455200D03*
D12*
X187642500Y-64465200D03*
X188902500Y-61955200D03*
D23*
X185352500Y-61805200D03*
D15*
X187642500Y-72085200D03*
X187642500Y-74625200D03*
D24*
X195262500Y-74625200D03*
X195262500Y-72085200D03*
D25*
X193116200Y-74625200D03*
X189788800Y-74625200D03*
%TD*%
D10*
%TO.C,SW5:9*%
X105410000Y-63827660D03*
X115570000Y-63827660D03*
D11*
X110490000Y-63827660D03*
D23*
X117790000Y-61277660D03*
D12*
X114300000Y-61287660D03*
X113030000Y-58747660D03*
X106680000Y-61287660D03*
X107940000Y-58777660D03*
D23*
X104390000Y-58627660D03*
D15*
X106680000Y-71447660D03*
X106680000Y-68907660D03*
D24*
X114300000Y-68907660D03*
X114300000Y-71447660D03*
D25*
X108826300Y-71447660D03*
X112153700Y-71447660D03*
%TD*%
D11*
%TO.C,SW5:10*%
X129540000Y-62230000D03*
D10*
X124460000Y-62230000D03*
X134620000Y-62230000D03*
D23*
X136840000Y-59680000D03*
D12*
X132080000Y-57150000D03*
X133350000Y-59690000D03*
X126990000Y-57180000D03*
X125730000Y-59690000D03*
D23*
X123440000Y-57030000D03*
D15*
X125730000Y-67310000D03*
X125730000Y-69850000D03*
D24*
X133350000Y-69850000D03*
X133350000Y-67310000D03*
D25*
X131203700Y-69850000D03*
X127876300Y-69850000D03*
%TD*%
D10*
%TO.C,SW5:11*%
X153670000Y-63827660D03*
X143510000Y-63827660D03*
D11*
X148590000Y-63827660D03*
D12*
X151130000Y-58747660D03*
D23*
X155890000Y-61277660D03*
D12*
X152400000Y-61287660D03*
D23*
X142490000Y-58627660D03*
D12*
X144780000Y-61287660D03*
X146040000Y-58777660D03*
D15*
X144780000Y-68907660D03*
X144780000Y-71447660D03*
D24*
X152400000Y-68907660D03*
X152400000Y-71447660D03*
D25*
X146926300Y-71447660D03*
X150253700Y-71447660D03*
%TD*%
D10*
%TO.C,SW5:12*%
X172720000Y-67005200D03*
D11*
X167640000Y-67005200D03*
D10*
X162560000Y-67005200D03*
D12*
X171450000Y-64465200D03*
X170180000Y-61925200D03*
D23*
X174940000Y-64455200D03*
D12*
X165090000Y-61955200D03*
D23*
X161540000Y-61805200D03*
D12*
X163830000Y-64465200D03*
D15*
X163830000Y-72085200D03*
X163830000Y-74625200D03*
D24*
X171450000Y-72085200D03*
X171450000Y-74625200D03*
D25*
X169303700Y-74625200D03*
X165976300Y-74625200D03*
%TD*%
D11*
%TO.C,SW5:8*%
X91440000Y-65100200D03*
D10*
X86360000Y-65100200D03*
X96520000Y-65100200D03*
D12*
X93980000Y-60020200D03*
D23*
X98740000Y-62550200D03*
D12*
X95250000Y-62560200D03*
X88890000Y-60050200D03*
D23*
X85340000Y-59900200D03*
D12*
X87630000Y-62560200D03*
D15*
X87630000Y-70180200D03*
X87630000Y-72720200D03*
D24*
X95250000Y-72720200D03*
X95250000Y-70180200D03*
D25*
X89776300Y-72720200D03*
X93103700Y-72720200D03*
%TD*%
D10*
%TO.C,SW5:7*%
X67310000Y-65100200D03*
X77470000Y-65100200D03*
D11*
X72390000Y-65100200D03*
D12*
X74930000Y-60020200D03*
D23*
X79690000Y-62550200D03*
D12*
X76200000Y-62560200D03*
D23*
X66290000Y-59900200D03*
D12*
X69840000Y-60050200D03*
X68580000Y-62560200D03*
D15*
X68580000Y-72720200D03*
X68580000Y-70180200D03*
D24*
X76200000Y-70180200D03*
X76200000Y-72720200D03*
D25*
X74053700Y-72720200D03*
X70726300Y-72720200D03*
%TD*%
D10*
%TO.C,SW2:11*%
X153670000Y-120977660D03*
X143510000Y-120977660D03*
D11*
X148590000Y-120977660D03*
D12*
X152400000Y-118437660D03*
X151130000Y-115897660D03*
D23*
X155890000Y-118427660D03*
D12*
X144780000Y-118437660D03*
X146040000Y-115927660D03*
D23*
X142490000Y-115777660D03*
D15*
X144780000Y-126057660D03*
X144780000Y-128597660D03*
D24*
X152400000Y-126057660D03*
X152400000Y-128597660D03*
D25*
X150253700Y-128597660D03*
X146926300Y-128597660D03*
%TD*%
D10*
%TO.C,SW2:8*%
X86360000Y-122247660D03*
X96520000Y-122247660D03*
D11*
X91440000Y-122247660D03*
D23*
X98740000Y-119697660D03*
D12*
X95250000Y-119707660D03*
X93980000Y-117167660D03*
X87630000Y-119707660D03*
D23*
X85340000Y-117047660D03*
D12*
X88890000Y-117197660D03*
D15*
X87630000Y-127327660D03*
X87630000Y-129867660D03*
D24*
X95250000Y-129867660D03*
X95250000Y-127327660D03*
D25*
X93103700Y-129867660D03*
X89776300Y-129867660D03*
%TD*%
D10*
%TO.C,SW3:12*%
X162560000Y-105102660D03*
X172720000Y-105102660D03*
D11*
X167640000Y-105102660D03*
D12*
X170180000Y-100022660D03*
D23*
X174940000Y-102552660D03*
D12*
X171450000Y-102562660D03*
X165090000Y-100052660D03*
D23*
X161540000Y-99902660D03*
D12*
X163830000Y-102562660D03*
D15*
X163830000Y-112722660D03*
X163830000Y-110182660D03*
D24*
X171450000Y-110182660D03*
X171450000Y-112722660D03*
D25*
X169303700Y-112722660D03*
X165976300Y-112722660D03*
%TD*%
D10*
%TO.C,SW2:12*%
X172720000Y-124152660D03*
X162560000Y-124152660D03*
D11*
X167640000Y-124152660D03*
D23*
X174940000Y-121602660D03*
D12*
X171450000Y-121612660D03*
X170180000Y-119072660D03*
D23*
X161540000Y-118952660D03*
D12*
X165090000Y-119102660D03*
X163830000Y-121612660D03*
D15*
X163830000Y-129232660D03*
X163830000Y-131772660D03*
D24*
X171450000Y-129232660D03*
X171450000Y-131772660D03*
D25*
X169303700Y-131772660D03*
X165976300Y-131772660D03*
%TD*%
D10*
%TO.C,SW1:12*%
X162560000Y-143202660D03*
X172720000Y-143202660D03*
D11*
X167640000Y-143202660D03*
D12*
X170180000Y-138122660D03*
X171450000Y-140662660D03*
D23*
X174940000Y-140652660D03*
D12*
X165090000Y-138152660D03*
D23*
X161540000Y-138002660D03*
D12*
X163830000Y-140662660D03*
D15*
X163830000Y-150822660D03*
X163830000Y-148282660D03*
D24*
X171450000Y-150822660D03*
X171450000Y-148282660D03*
D25*
X165976300Y-150822660D03*
X169303700Y-150822660D03*
%TD*%
D27*
%TO.C,SX1:8*%
X81883544Y-142285119D03*
X72675456Y-146578921D03*
D28*
X77434621Y-138754526D03*
X79659082Y-140519823D03*
X72753017Y-143740174D03*
X72830577Y-140901427D03*
%TD*%
D27*
%TO.C,SX1:7*%
X55411076Y-154630721D03*
X64619164Y-150336919D03*
D29*
X60015120Y-152483820D03*
D28*
X60170241Y-146806326D03*
X62394702Y-148571623D03*
X55488637Y-151791974D03*
X55566197Y-148953227D03*
%TD*%
D29*
%TO.C,SX0:10*%
X85331300Y-161698940D03*
D27*
X89935344Y-159552039D03*
X80727256Y-163845841D03*
D28*
X82951718Y-165611137D03*
X85176179Y-167376434D03*
X89780223Y-165229533D03*
X89857783Y-162390786D03*
%TD*%
D27*
%TO.C,SX0:11*%
X63460336Y-171895101D03*
X72668424Y-167601299D03*
D29*
X68064380Y-169748200D03*
D28*
X65684798Y-173660397D03*
X67909259Y-175425694D03*
X72513303Y-173278793D03*
X72590863Y-170440046D03*
%TD*%
D15*
%TO.C,D1:8*%
X70605747Y-139135936D03*
D16*
X77511813Y-135915584D03*
D17*
X75566604Y-136822650D03*
X72550956Y-138228870D03*
%TD*%
D15*
%TO.C,D1:7*%
X53341367Y-147187736D03*
D16*
X60247433Y-143967384D03*
D17*
X58302224Y-144874450D03*
X55286576Y-146280670D03*
%TD*%
D29*
%TO.C,S1*%
X51511692Y-153786490D03*
D30*
X65323823Y-147345789D03*
D29*
X61602126Y-175425496D03*
%TD*%
D30*
%TO.C,S2*%
X69927083Y-145197966D03*
D29*
X93829648Y-160396270D03*
%TD*%
D31*
%TO.C,SW_RST1*%
X145689000Y-36399000D03*
X152699000Y-36399000D03*
D32*
X146939000Y-33909000D03*
X151439000Y-33909000D03*
%TD*%
D33*
%TO.C,D5*%
X202184000Y-62103000D03*
D34*
X202184000Y-69723000D03*
%TD*%
D35*
%TO.C,OL1*%
X73025000Y-35941000D03*
D36*
X73025000Y-38481000D03*
X73025000Y-41021000D03*
X73025000Y-43561000D03*
%TD*%
D33*
%TO.C,A1*%
X160909000Y-57296500D03*
D37*
X163449000Y-57296500D03*
X165989000Y-57296500D03*
X168529000Y-57296500D03*
X171069000Y-57296500D03*
X173609000Y-57296500D03*
X176149000Y-57296500D03*
X178689000Y-57296500D03*
X181229000Y-57296500D03*
X183769000Y-57296500D03*
X186309000Y-57296500D03*
X188849000Y-57296500D03*
X191389000Y-57296500D03*
X193929000Y-57296500D03*
X196469000Y-57296500D03*
X199009000Y-57296500D03*
X199009000Y-36976500D03*
X196469000Y-36976500D03*
X193929000Y-36976500D03*
X191389000Y-36976500D03*
X188849000Y-36976500D03*
X186309000Y-36976500D03*
X183769000Y-36976500D03*
X181229000Y-36976500D03*
X178689000Y-36976500D03*
X176149000Y-36976500D03*
X173609000Y-36976500D03*
X171069000Y-36976500D03*
%TD*%
D15*
%TO.C,R3*%
X77911475Y-107188000D03*
X67751477Y-107188000D03*
%TD*%
D38*
%TO.C,J6*%
X86360000Y-38379400D03*
X86360000Y-33375600D03*
D39*
X91008200Y-33375600D03*
D40*
X82753200Y-38379400D03*
X87960200Y-41478200D03*
D39*
X81711800Y-33375600D03*
D40*
X84759800Y-41478200D03*
X89966800Y-38379400D03*
%TD*%
D33*
%TO.C,C1*%
X63540000Y-135509000D03*
D37*
X68540000Y-135509000D03*
%TD*%
D41*
%TO.C,SWRE1*%
X91353000Y-146823000D03*
D42*
X96353000Y-146823000D03*
X93853000Y-146823000D03*
D43*
X99453000Y-139323000D03*
X88253000Y-139323000D03*
D42*
X96353000Y-132323000D03*
X91353000Y-132323000D03*
%TD*%
D44*
%TO.C,J2*%
X148737000Y-53429000D03*
D45*
X151237000Y-53429000D03*
%TD*%
D46*
%TO.C,*%
X59817000Y-121767600D03*
%TD*%
D47*
%TO.C,P1*%
X140643000Y-36537000D03*
X139793000Y-36537000D03*
X138943000Y-36537000D03*
X138093000Y-36537000D03*
X137243000Y-36537000D03*
X136393000Y-36537000D03*
X135543000Y-36537000D03*
X134693000Y-36537000D03*
X134693000Y-35187000D03*
X135543000Y-35187000D03*
X136393000Y-35187000D03*
X137243000Y-35187000D03*
X138093000Y-35187000D03*
X138943000Y-35187000D03*
X139793000Y-35187000D03*
X140643000Y-35187000D03*
D48*
X133343000Y-32177000D03*
D49*
X133343000Y-35557000D03*
D48*
X141993000Y-32177000D03*
D49*
X141993000Y-35557000D03*
%TD*%
D50*
%TO.C,J5*%
X62865000Y-128286000D03*
D51*
X62865000Y-130286000D03*
%TD*%
D52*
%TO.C,J1*%
X148590000Y-41426000D03*
D53*
X148590000Y-42426000D03*
X148590000Y-43426000D03*
X148590000Y-44426000D03*
%TD*%
D46*
%TO.C,*%
X201930000Y-140157200D03*
%TD*%
D54*
%TO.C,U1*%
X100330000Y-46990000D03*
X97790000Y-46990000D03*
X102870000Y-46990000D03*
D55*
X74930000Y-54610000D03*
D40*
X77470000Y-54610000D03*
X80010000Y-54610000D03*
X82550000Y-54610000D03*
X85090000Y-54610000D03*
X87630000Y-54610000D03*
X90170000Y-54610000D03*
X92710000Y-54610000D03*
X95250000Y-54610000D03*
X97790000Y-54610000D03*
X100330000Y-54610000D03*
X102870000Y-54610000D03*
X105410000Y-54610000D03*
X107950000Y-54610000D03*
X107950000Y-46990000D03*
X105410000Y-46990000D03*
X95250000Y-46990000D03*
X92710000Y-46990000D03*
X90170000Y-46990000D03*
X87630000Y-46990000D03*
X85090000Y-46990000D03*
X82550000Y-46990000D03*
X80010000Y-46990000D03*
X77470000Y-46990000D03*
X74930000Y-46990000D03*
%TD*%
D50*
%TO.C,J4*%
X202184000Y-75438000D03*
D51*
X202184000Y-77438000D03*
%TD*%
D46*
%TO.C,*%
X139192000Y-91694000D03*
%TD*%
%TO.C,*%
X105587800Y-157861000D03*
%TD*%
D56*
%TO.C,BAT_SW1*%
X118423000Y-34798000D03*
X126623000Y-34798000D03*
D57*
X120523000Y-34798000D03*
D58*
X122523000Y-34798000D03*
X124523000Y-34798000D03*
%TD*%
D46*
%TO.C,*%
X54051200Y-165938200D03*
%TD*%
D44*
%TO.C,J3*%
X148737000Y-47579000D03*
D45*
X151237000Y-47579000D03*
%TD*%
D59*
%TO.C,JP10*%
X76693000Y-38481000D03*
D60*
X77993000Y-38481000D03*
%TD*%
D59*
%TO.C,JP4*%
X66914000Y-39243000D03*
D60*
X68214000Y-39243000D03*
%TD*%
D61*
%TO.C,D3*%
X204126000Y-39421000D03*
X204126000Y-42621000D03*
X199226000Y-42621000D03*
X199226000Y-39421000D03*
%TD*%
D59*
%TO.C,JP8*%
X76693000Y-35814000D03*
D60*
X77993000Y-35814000D03*
%TD*%
D62*
%TO.C,JP18*%
X130444000Y-41529000D03*
D63*
X129144000Y-41529000D03*
%TD*%
D33*
%TO.C,A2*%
X160909000Y-33782000D03*
D37*
X163449000Y-33782000D03*
X165989000Y-33782000D03*
X168529000Y-33782000D03*
X171069000Y-33782000D03*
X173609000Y-33782000D03*
X176149000Y-33782000D03*
X178689000Y-33782000D03*
X181229000Y-33782000D03*
X183769000Y-33782000D03*
X186309000Y-33782000D03*
X188849000Y-33782000D03*
X191389000Y-33782000D03*
X193929000Y-33782000D03*
X196469000Y-33782000D03*
X199009000Y-33782000D03*
X199009000Y-54102000D03*
X196469000Y-54102000D03*
X193929000Y-54102000D03*
X191389000Y-54102000D03*
X188849000Y-54102000D03*
X186309000Y-54102000D03*
X183769000Y-54102000D03*
X181229000Y-54102000D03*
X178689000Y-54102000D03*
X176149000Y-54102000D03*
X173609000Y-54102000D03*
X171069000Y-54102000D03*
%TD*%
D62*
%TO.C,JP2*%
X68214000Y-35433000D03*
D63*
X66914000Y-35433000D03*
%TD*%
D59*
%TO.C,JP22*%
X110602000Y-37592000D03*
D60*
X111902000Y-37592000D03*
%TD*%
D62*
%TO.C,JP16*%
X130444000Y-39000000D03*
D63*
X129144000Y-39000000D03*
%TD*%
D64*
%TO.C,U_ESD2*%
X122052500Y-41209000D03*
X122052500Y-40259000D03*
X122052500Y-39309000D03*
X124327500Y-39309000D03*
X124327500Y-40259000D03*
X124327500Y-41209000D03*
%TD*%
D59*
%TO.C,JP6*%
X201534000Y-36576000D03*
D60*
X202834000Y-36576000D03*
%TD*%
D61*
%TO.C,D1*%
X70141000Y-44120000D03*
X70141000Y-47320000D03*
X65241000Y-47320000D03*
X65241000Y-44120000D03*
%TD*%
D59*
%TO.C,JP14*%
X76693000Y-43561000D03*
D60*
X77993000Y-43561000D03*
%TD*%
D59*
%TO.C,JP20*%
X140574000Y-41656000D03*
D60*
X141874000Y-41656000D03*
%TD*%
D59*
%TO.C,JP12*%
X76693000Y-41021000D03*
D60*
X77993000Y-41021000D03*
%TD*%
M02*
