M48
; DRILL file {KiCad (6.0.7)} date Thu Jan 12 11:12:47 2023
; FORMAT={-:-/ absolute / inch / decimal}
; #@! TF.CreationDate,2023-01-12T11:12:47-06:00
; #@! TF.GenerationSoftware,Kicad,Pcbnew,(6.0.7)
; #@! TF.FileFunction,Plated,1,2,PTH
FMAT,2
INCH
; #@! TA.AperFunction,Plated,PTH,ViaDrill
T1C0.0120
; #@! TA.AperFunction,Plated,PTH,ComponentDrill
T2C0.0157
; #@! TA.AperFunction,Plated,PTH,ComponentDrill
T3C0.0197
; #@! TA.AperFunction,Plated,PTH,ViaDrill
T4C0.0200
; #@! TA.AperFunction,Plated,PTH,ComponentDrill
T5C0.0236
; #@! TA.AperFunction,Plated,PTH,ComponentDrill
T6C0.0315
; #@! TA.AperFunction,Plated,PTH,ComponentDrill
T7C0.0390
; #@! TA.AperFunction,Plated,PTH,ComponentDrill
T8C0.0390
; #@! TA.AperFunction,Plated,PTH,ComponentDrill
T9C0.0394
; #@! TA.AperFunction,Plated,PTH,ComponentDrill
T10C0.0430
; #@! TA.AperFunction,Plated,PTH,ComponentDrill
T11C0.0512
; #@! TA.AperFunction,Plated,PTH,ComponentDrill
T12C0.0590
; #@! TA.AperFunction,Plated,PTH,ComponentDrill
T13C0.0591
; #@! TA.AperFunction,Plated,PTH,ComponentDrill
T14C0.1181
%
G90
G05
T1
X5.535Y-1.5
T2
X5.3029Y-1.3853
X5.3029Y-1.4385
X5.3363Y-1.3853
X5.3363Y-1.4385
X5.3698Y-1.3853
X5.3698Y-1.4385
X5.4033Y-1.3853
X5.4033Y-1.4385
X5.4367Y-1.3853
X5.4367Y-1.4385
X5.4702Y-1.3853
X5.4702Y-1.4385
X5.5037Y-1.3853
X5.5037Y-1.4385
X5.5371Y-1.3853
X5.5371Y-1.4385
T3
X1.5354Y-5.9843
X1.8307Y-6.6929
X2.3571Y-6.7654
X2.8445Y-2.1949
X3.1398Y-4.0157
X3.4646Y-1.5059
X3.5531Y-1.6339
X3.5925Y-2.7756
X3.9445Y-2.3043
X3.9957Y-5.0969
X4.0945Y-1.4961
X4.2323Y-1.437
X4.4291Y-6.1319
X4.4488Y-1.6634
X4.722Y-5.2756
X4.7441Y-4.2224
X4.755Y-2.24
X5.315Y-1.8996
X5.4626Y-4.1732
X5.48Y-5.2787
X5.7972Y-1.9783
X5.85Y-1.6309
X5.85Y-1.6703
X5.85Y-1.7097
X5.85Y-1.7491
X6.0531Y-1.5453
X6.2122Y-5.2169
X6.2402Y-4.2028
X6.3878Y-1.8799
X6.5846Y-5.8366
X6.82Y-2.045
X6.978Y-5.2201
X7.2933Y-1.752
X7.7165Y-1.8701
T4
X1.655Y-5.72
X2.13Y-6.34
X2.223Y-5.6492
X2.445Y-5.57
X2.51Y-2.965
X2.55Y-2.71
X2.5685Y-1.737
X2.635Y-2.9304
X2.64Y-1.92
X2.6856Y-1.395
X2.6856Y-1.545
X2.6892Y-2.0558
X2.695Y-1.98
X2.7061Y-1.8543
X2.7615Y-1.737
X2.7615Y-1.863
X2.7615Y-1.937
X2.8248Y-5.2264
X2.8369Y-1.964
X2.88Y-5.165
X2.8983Y-4.0105
X2.93Y-3.405
X2.935Y-4.54
X2.9626Y-1.565
X2.9944Y-5.1294
X3.115Y-5.25
X3.1217Y-1.5683
X3.1247Y-1.6953
X3.17Y-2.92
X3.171Y-1.4567
X3.1731Y-4.8926
X3.1731Y-4.9674
X3.175Y-4.855
X3.1988Y-1.684
X3.205Y-4.54
X3.225Y-4.4481
X3.225Y-4.855
X3.2283Y-1.5748
X3.2376Y-2.8647
X3.2469Y-4.93
X3.248Y-2.8248
X3.2556Y-2.7461
X3.28Y-3.7
X3.3003Y-2.5736
X3.3407Y-2.9782
X3.3423Y-1.7308
X3.3465Y-1.3925
X3.36Y-4.44
X3.376Y-3.034
X3.4188Y-1.5543
X3.6589Y-1.6628
X3.7598Y-1.6732
X3.7795Y-2.9921
X3.79Y-4.475
X3.7992Y-1.565
X3.8189Y-1.6634
X3.825Y-4.36
X3.8681Y-2.9921
X3.9156Y-4.124
X3.9181Y-3.7295
X3.92Y-2.69
X3.93Y-4.3942
X3.9596Y-4.1929
X3.988Y-4.8909
X4.005Y-5.005
X4.0156Y-1.941
X4.02Y-1.68
X4.0244Y-4.1853
X4.0291Y-2.9941
X4.0354Y-3.7402
X4.0354Y-4.0354
X4.0354Y-4.3898
X4.0354Y-4.498
X4.0453Y-4.3209
X4.0502Y-3.5778
X4.0551Y-2.874
X4.0748Y-2.7067
X4.1339Y-1.3878
X4.1412Y-1.423
X4.1535Y-1.6825
X4.217Y-1.6
X4.24Y-1.9154
X4.2807Y-1.4264
X4.2865Y-1.6584
X4.3028Y-1.7307
X4.311Y-1.3976
X4.322Y-1.653
X4.3445Y-1.5453
X4.379Y-1.854
X4.3812Y-2.9941
X4.432Y-1.7818
X4.4595Y-1.4756
X4.4874Y-1.4469
X4.5164Y-1.6732
X4.5505Y-1.9495
X4.552Y-1.883
X4.5539Y-1.4192
X4.5811Y-1.7153
X4.6051Y-4.78
X4.6096Y-1.7372
X4.6242Y-1.4665
X4.6457Y-1.7224
X4.65Y-2.175
X4.6536Y-1.7818
X4.6862Y-1.5598
X4.6949Y-1.4565
X4.7151Y-1.7818
X4.7244Y-4.3602
X4.725Y-1.63
X4.735Y-1.59
X4.7858Y-1.6934
X4.8052Y-1.585
X4.815Y-1.675
X4.8622Y-1.437
X4.8948Y-1.585
X4.9203Y-1.8374
X4.94Y-1.66
X4.9839Y-1.5697
X4.985Y-1.675
X4.9874Y-1.6126
X5.1356Y-1.54
X5.1356Y-1.635
X5.1476Y-1.3872
X5.1772Y-1.3583
X5.2106Y-1.615
X5.2117Y-1.6823
X5.2264Y-1.5157
X5.2454Y-1.6243
X5.2783Y-1.6098
X5.345Y-2.545
X5.3543Y-1.8209
X5.4111Y-1.5908
X5.43Y-1.6944
X5.435Y-2.525
X5.485Y-4.52
X5.52Y-5.185
X5.5856Y-1.64
X5.6141Y-1.7733
X5.615Y-1.82
X5.645Y-1.471
X5.7283Y-2.0965
X5.7579Y-1.6732
X5.7579Y-1.7126
X5.805Y-1.555
X5.935Y-4.4089
X6.0236Y-1.998
X6.0827Y-4.4089
X6.1024Y-1.8209
X6.122Y-1.5945
X6.122Y-1.6437
X6.1417Y-2.1555
X6.1614Y-1.9587
X6.1797Y-2.0637
X6.1969Y-1.8618
X6.22Y-3.615
X6.2309Y-2.2252
X6.2402Y-1.4665
X6.255Y-4.585
X6.2597Y-2.1845
X6.264Y-2.341
X6.306Y-2.0177
X6.3287Y-1.811
X6.3391Y-1.5143
X6.3976Y-2.3524
X6.437Y-2.0472
X6.4764Y-1.6043
X6.5059Y-1.5453
X6.58Y-3.0654
X6.5802Y-2.0394
X6.5815Y-2.7885
X6.635Y-1.9696
X6.6464Y-1.4272
X6.6634Y-1.5354
X6.6634Y-1.6859
X6.6865Y-1.9882
X6.735Y-1.8181
X6.795Y-4.58
X6.8799Y-1.6142
X6.9093Y-3.0293
X6.998Y-5.4331
X7.0374Y-1.8182
X7.135Y-1.7233
X7.2244Y-1.7618
X7.257Y-1.8178
X7.3031Y-1.9488
X7.3917Y-1.8307
X7.4114Y-1.6727
X7.437Y-1.565
X7.628Y-1.8602
X7.775Y-1.765
X7.8435Y-1.552
X7.8439Y-1.777
X7.9344Y-1.44
X7.98Y-1.78
X7.9921Y-2.0472
X8.0365Y-1.552
T6
X2.475Y-5.0506
X2.475Y-5.1294
X2.5016Y-5.335
X2.6984Y-5.335
X3.2283Y-5.1575
X3.3268Y-5.1575
X4.745Y-1.37
X4.8237Y-1.37
X4.9025Y-1.37
X6.335Y-1.33
X6.335Y-2.2558
X6.435Y-1.33
X6.435Y-2.2558
X6.535Y-1.33
X6.535Y-2.2558
X6.635Y-1.33
X6.635Y-2.2558
X6.735Y-1.33
X6.735Y-1.4558
X6.735Y-2.13
X6.735Y-2.2558
X6.835Y-1.33
X6.835Y-1.4558
X6.835Y-2.13
X6.835Y-2.2558
X6.9169Y-2.687
X6.935Y-1.33
X6.935Y-1.4558
X6.935Y-2.13
X6.935Y-2.2558
X7.035Y-1.33
X7.035Y-1.4558
X7.035Y-2.13
X7.035Y-2.2558
X7.135Y-1.33
X7.135Y-1.4558
X7.135Y-2.13
X7.135Y-2.2558
X7.2169Y-2.687
X7.235Y-1.33
X7.235Y-1.4558
X7.235Y-2.13
X7.235Y-2.2558
X7.335Y-1.33
X7.335Y-1.4558
X7.335Y-2.13
X7.335Y-2.2558
X7.435Y-1.33
X7.435Y-1.4558
X7.435Y-2.13
X7.435Y-2.2558
X7.535Y-1.33
X7.535Y-1.4558
X7.535Y-2.13
X7.535Y-2.2558
X7.635Y-1.33
X7.635Y-1.4558
X7.635Y-2.13
X7.635Y-2.2558
X7.735Y-1.33
X7.735Y-1.4558
X7.735Y-2.13
X7.735Y-2.2558
X7.835Y-1.33
X7.835Y-1.4558
X7.835Y-2.13
X7.835Y-2.2558
X7.96Y-2.97
X7.96Y-3.0487
T7
X5.785Y-1.335
X5.9622Y-1.335
T8
X1.3147Y-5.8852
X1.3569Y-5.9758
X1.5866Y-5.7584
X1.6288Y-5.849
X1.6316Y-6.5649
X1.6738Y-6.6555
X1.9035Y-6.4381
X1.9457Y-6.5287
X1.9486Y-7.2447
X1.9908Y-7.3353
X1.9944Y-5.5683
X2.0366Y-5.6589
X2.1001Y-5.7948
X2.2205Y-7.1179
X2.2627Y-7.2085
X2.2663Y-5.4415
X2.3085Y-5.5321
X2.3719Y-5.668
X2.6391Y-6.1227
X2.6674Y-4.22
X2.7Y-2.763
X2.7Y-2.863
X2.7297Y-6.0805
X2.7659Y-6.3946
X2.7798Y-5.4778
X2.8Y-2.763
X2.8565Y-6.3524
X2.9Y-2.763
X3.0Y-2.763
X3.0Y-2.863
X3.05Y-3.3504
X3.05Y-3.4504
X3.05Y-3.5504
X3.05Y-3.6504
X3.05Y-4.4754
X3.05Y-4.5754
X3.05Y-4.6754
X3.05Y-4.7754
X3.0516Y-5.351
X3.0674Y-4.22
X3.15Y-3.3504
X3.15Y-3.6504
X3.15Y-4.4754
X3.15Y-4.7754
X3.3188Y-5.8057
X3.4094Y-5.7635
X3.4456Y-6.0776
X3.45Y-2.763
X3.45Y-2.863
X3.45Y-3.5129
X3.45Y-3.6129
X3.45Y-4.2629
X3.45Y-4.3629
X3.45Y-5.0129
X3.45Y-5.1129
X3.5362Y-6.0354
X3.7Y-1.33
X3.7Y-1.73
X3.75Y-2.763
X3.75Y-2.863
X3.75Y-3.5129
X3.75Y-3.6129
X3.75Y-4.2629
X3.75Y-4.3629
X3.75Y-5.0129
X3.75Y-5.1129
X3.83Y-1.33
X3.83Y-1.73
X3.96Y-1.33
X3.96Y-1.73
X4.09Y-1.33
X4.09Y-1.73
X4.2Y-2.7129
X4.2Y-2.8129
X4.2Y-3.4629
X4.2Y-3.5629
X4.2Y-4.2129
X4.2Y-4.3129
X4.2Y-4.9629
X4.2Y-5.0629
X4.2Y-5.7129
X4.2Y-5.8129
X4.22Y-1.33
X4.22Y-1.73
X4.5Y-2.7129
X4.5Y-2.8129
X4.5Y-3.4629
X4.5Y-3.5629
X4.5Y-4.2129
X4.5Y-4.3129
X4.5Y-4.9629
X4.5Y-5.0629
X4.5Y-5.7129
X4.5Y-5.8129
X4.95Y-2.65
X4.95Y-2.75
X4.95Y-3.4
X4.95Y-3.5
X4.95Y-4.15
X4.95Y-4.25
X4.95Y-4.9
X4.95Y-5.0
X4.95Y-5.65
X4.95Y-5.75
X5.25Y-2.65
X5.25Y-2.75
X5.25Y-3.4
X5.25Y-3.5
X5.25Y-4.15
X5.25Y-4.25
X5.25Y-4.9
X5.25Y-5.0
X5.25Y-5.65
X5.25Y-5.75
X5.7Y-2.7129
X5.7Y-2.8129
X5.7Y-3.4629
X5.7Y-3.5629
X5.7Y-4.2129
X5.7Y-4.3129
X5.7Y-4.9629
X5.7Y-5.0629
X5.7Y-5.7129
X5.7Y-5.8129
X6.0Y-2.7129
X6.0Y-2.8129
X6.0Y-3.4629
X6.0Y-3.5629
X6.0Y-4.2129
X6.0Y-4.3129
X6.0Y-4.9629
X6.0Y-5.0629
X6.0Y-5.7129
X6.0Y-5.8129
X6.45Y-2.838
X6.45Y-2.938
X6.45Y-3.5879
X6.45Y-3.6879
X6.45Y-4.3379
X6.45Y-4.4379
X6.45Y-5.0879
X6.45Y-5.1879
X6.45Y-5.8379
X6.45Y-5.9379
X6.75Y-2.838
X6.75Y-2.938
X6.75Y-3.5879
X6.75Y-3.6879
X6.75Y-4.3379
X6.75Y-4.4379
X6.75Y-5.0879
X6.75Y-5.1879
X6.75Y-5.8379
X6.75Y-5.9379
X7.2Y-5.8379
X7.2Y-5.9379
X7.3875Y-2.838
X7.3875Y-2.938
X7.3875Y-3.5879
X7.3875Y-3.6879
X7.3875Y-4.3379
X7.3875Y-4.4379
X7.3875Y-5.0879
X7.3875Y-5.1879
X7.5Y-5.8379
X7.5Y-5.9379
X7.6875Y-2.838
X7.6875Y-2.938
X7.6875Y-3.5879
X7.6875Y-3.6879
X7.6875Y-4.3379
X7.6875Y-4.4379
X7.6875Y-5.0879
X7.6875Y-5.1879
T9
X2.875Y-1.415
X2.875Y-1.515
X2.875Y-1.615
X2.875Y-1.715
X3.5966Y-5.2096
X3.5966Y-5.7804
X3.695Y-5.7804
X3.7934Y-5.2096
X3.7934Y-5.7804
X5.8558Y-2.1035
X5.9542Y-2.1035
T10
X2.95Y-1.85
X2.95Y-2.15
X3.05Y-1.85
X3.05Y-2.15
X3.15Y-1.85
X3.15Y-2.15
X3.25Y-1.85
X3.25Y-2.15
X3.2576Y-1.5079
X3.3366Y-1.6299
X3.35Y-1.85
X3.35Y-2.15
X3.45Y-1.85
X3.45Y-2.15
X3.4626Y-1.6299
X3.5416Y-1.5079
X3.55Y-1.85
X3.55Y-2.15
X3.65Y-1.85
X3.65Y-2.15
X3.75Y-1.85
X3.75Y-2.15
X3.85Y-2.15
X3.95Y-2.15
X4.05Y-2.15
X4.15Y-1.85
X4.15Y-2.15
X4.25Y-1.85
X4.25Y-2.15
T11
X5.7358Y-1.433
X6.0118Y-1.433
T12
X2.1846Y-5.9761
X2.1876Y-5.8643
X2.3689Y-5.7798
X2.4565Y-5.8493
X2.586Y-6.837
X2.6736Y-6.9065
X2.8549Y-6.822
X2.8579Y-6.7102
X2.8643Y-5.6591
X2.8673Y-5.5473
X3.0486Y-5.4628
X3.1362Y-5.5323
X3.2658Y-6.5201
X3.3534Y-6.5896
X3.5347Y-6.5051
X3.5377Y-6.3933
T13
X4.6623Y-1.37
X4.9852Y-1.37
T14
X1.1879Y-5.6133
X1.1911Y-5.5027
X1.3722Y-5.417
X1.4598Y-5.4865
X1.5048Y-6.293
X1.508Y-6.1824
X1.6891Y-6.0967
X1.7767Y-6.1662
X1.8218Y-6.9728
X1.825Y-6.8622
X1.8676Y-5.2964
X1.8708Y-5.1858
X2.0061Y-6.7765
X2.0519Y-5.1001
X2.0937Y-6.846
X2.1395Y-5.1696
X2.2977Y-6.3371
X2.3672Y-6.2495
X2.3834Y-6.5182
X2.494Y-6.5214
X2.65Y-3.4004
X2.65Y-4.5254
X2.6512Y-3.6008
X2.6512Y-4.7258
X2.7Y-2.463
X2.7496Y-2.3642
X2.75Y-3.3504
X2.75Y-3.6504
X2.75Y-4.4754
X2.75Y-4.7754
X2.95Y-2.363
X2.9774Y-6.0201
X3.0Y-2.463
X3.0469Y-5.9325
X3.0631Y-6.2012
X3.1737Y-6.2044
X3.45Y-2.463
X3.45Y-3.2129
X3.45Y-3.9629
X3.45Y-4.7129
X3.4996Y-2.3642
X3.4996Y-3.1141
X3.4996Y-3.8641
X3.4996Y-4.6141
X3.7Y-2.363
X3.7Y-3.1129
X3.7Y-3.8629
X3.7Y-4.6129
X3.75Y-2.463
X3.75Y-3.2129
X3.75Y-3.9629
X3.75Y-4.7129
X4.2Y-2.4129
X4.2Y-3.1629
X4.2Y-3.9129
X4.2Y-4.6629
X4.2Y-5.4129
X4.2496Y-2.3141
X4.2496Y-3.0641
X4.2496Y-3.8141
X4.2496Y-4.5641
X4.2496Y-5.3141
X4.45Y-2.3129
X4.45Y-3.0629
X4.45Y-3.8129
X4.45Y-4.5629
X4.45Y-5.3129
X4.5Y-2.4129
X4.5Y-3.1629
X4.5Y-3.9129
X4.5Y-4.6629
X4.5Y-5.4129
X4.95Y-2.35
X4.95Y-3.1
X4.95Y-3.85
X4.95Y-4.6
X4.95Y-5.35
X4.9996Y-2.2512
X4.9996Y-3.0012
X4.9996Y-3.7512
X4.9996Y-4.5012
X4.9996Y-5.2512
X5.2Y-2.25
X5.2Y-3.0
X5.2Y-3.75
X5.2Y-4.5
X5.2Y-5.25
X5.25Y-2.35
X5.25Y-3.1
X5.25Y-3.85
X5.25Y-4.6
X5.25Y-5.35
X5.7Y-2.4129
X5.7Y-3.1629
X5.7Y-3.9129
X5.7Y-4.6629
X5.7Y-5.4129
X5.7496Y-2.3141
X5.7496Y-3.0641
X5.7496Y-3.8141
X5.7496Y-4.5641
X5.7496Y-5.3141
X5.95Y-2.3129
X5.95Y-3.0629
X5.95Y-3.8129
X5.95Y-4.5629
X5.95Y-5.3129
X6.0Y-2.4129
X6.0Y-3.1629
X6.0Y-3.9129
X6.0Y-4.6629
X6.0Y-5.4129
X6.45Y-2.538
X6.45Y-3.2879
X6.45Y-4.0379
X6.45Y-4.7879
X6.45Y-5.5379
X6.4996Y-2.4392
X6.4996Y-3.1891
X6.4996Y-3.9391
X6.4996Y-4.6891
X6.4996Y-5.4391
X6.7Y-2.438
X6.7Y-3.1879
X6.7Y-3.9379
X6.7Y-4.6879
X6.7Y-5.4379
X6.75Y-2.538
X6.75Y-3.2879
X6.75Y-4.0379
X6.75Y-4.7879
X6.75Y-5.5379
X7.2Y-5.5379
X7.2496Y-5.4391
X7.3875Y-2.538
X7.3875Y-3.2879
X7.3875Y-4.0379
X7.3875Y-4.7879
X7.4371Y-2.4392
X7.4371Y-3.1891
X7.4371Y-3.9391
X7.4371Y-4.6891
X7.45Y-5.4379
X7.5Y-5.5379
X7.6375Y-2.438
X7.6375Y-3.1879
X7.6375Y-3.9379
X7.6375Y-4.6879
X7.6875Y-2.538
X7.6875Y-3.2879
X7.6875Y-4.0379
X7.6875Y-4.7879
T5
G00X5.2497Y-1.2826
M15
G01X5.2497Y-1.2511
M16
G05
G00X5.2497Y-1.4294
M15
G01X5.2497Y-1.3704
M16
G05
G00X5.5903Y-1.2826
M15
G01X5.5903Y-1.2511
M16
G05
G00X5.5903Y-1.4294
M15
G01X5.5903Y-1.3704
M16
G05
T10
G00X3.2226Y-1.3109
M15
G01X3.2106Y-1.3109
M16
G05
G00X3.5886Y-1.3109
M15
G01X3.5766Y-1.3109
M16
G05
T13
G00X3.4745Y-5.5107
M15
G01X3.4745Y-5.4596
M16
G05
G00X3.9155Y-5.5107
M15
G01X3.9155Y-5.4596
M16
G05
T0
M30
